G04 #@! TF.GenerationSoftware,KiCad,Pcbnew,9.0.7*
G04 #@! TF.CreationDate,2026-03-17T22:56:18+05:30*
G04 #@! TF.ProjectId,KeyBoard,4b657942-6f61-4726-942e-6b696361645f,rev?*
G04 #@! TF.SameCoordinates,Original*
G04 #@! TF.FileFunction,Legend,Bot*
G04 #@! TF.FilePolarity,Positive*
%FSLAX46Y46*%
G04 Gerber Fmt 4.6, Leading zero omitted, Abs format (unit mm)*
G04 Created by KiCad (PCBNEW 9.0.7) date 2026-03-17 22:56:18*
%MOMM*%
%LPD*%
G01*
G04 APERTURE LIST*
%ADD10C,0.150000*%
%ADD11C,0.120000*%
G04 APERTURE END LIST*
D10*
X297354819Y-113935714D02*
X296354819Y-113935714D01*
X296354819Y-113935714D02*
X296354819Y-114173809D01*
X296354819Y-114173809D02*
X296402438Y-114316666D01*
X296402438Y-114316666D02*
X296497676Y-114411904D01*
X296497676Y-114411904D02*
X296592914Y-114459523D01*
X296592914Y-114459523D02*
X296783390Y-114507142D01*
X296783390Y-114507142D02*
X296926247Y-114507142D01*
X296926247Y-114507142D02*
X297116723Y-114459523D01*
X297116723Y-114459523D02*
X297211961Y-114411904D01*
X297211961Y-114411904D02*
X297307200Y-114316666D01*
X297307200Y-114316666D02*
X297354819Y-114173809D01*
X297354819Y-114173809D02*
X297354819Y-113935714D01*
X297354819Y-115459523D02*
X297354819Y-114888095D01*
X297354819Y-115173809D02*
X296354819Y-115173809D01*
X296354819Y-115173809D02*
X296497676Y-115078571D01*
X296497676Y-115078571D02*
X296592914Y-114983333D01*
X296592914Y-114983333D02*
X296640533Y-114888095D01*
X296688152Y-116316666D02*
X297354819Y-116316666D01*
X296307200Y-116078571D02*
X297021485Y-115840476D01*
X297021485Y-115840476D02*
X297021485Y-116459523D01*
X206867319Y-132985714D02*
X205867319Y-132985714D01*
X205867319Y-132985714D02*
X205867319Y-133223809D01*
X205867319Y-133223809D02*
X205914938Y-133366666D01*
X205914938Y-133366666D02*
X206010176Y-133461904D01*
X206010176Y-133461904D02*
X206105414Y-133509523D01*
X206105414Y-133509523D02*
X206295890Y-133557142D01*
X206295890Y-133557142D02*
X206438747Y-133557142D01*
X206438747Y-133557142D02*
X206629223Y-133509523D01*
X206629223Y-133509523D02*
X206724461Y-133461904D01*
X206724461Y-133461904D02*
X206819700Y-133366666D01*
X206819700Y-133366666D02*
X206867319Y-133223809D01*
X206867319Y-133223809D02*
X206867319Y-132985714D01*
X205962557Y-133938095D02*
X205914938Y-133985714D01*
X205914938Y-133985714D02*
X205867319Y-134080952D01*
X205867319Y-134080952D02*
X205867319Y-134319047D01*
X205867319Y-134319047D02*
X205914938Y-134414285D01*
X205914938Y-134414285D02*
X205962557Y-134461904D01*
X205962557Y-134461904D02*
X206057795Y-134509523D01*
X206057795Y-134509523D02*
X206153033Y-134509523D01*
X206153033Y-134509523D02*
X206295890Y-134461904D01*
X206295890Y-134461904D02*
X206867319Y-133890476D01*
X206867319Y-133890476D02*
X206867319Y-134509523D01*
X206200652Y-135366666D02*
X206867319Y-135366666D01*
X205819700Y-135128571D02*
X206533985Y-134890476D01*
X206533985Y-134890476D02*
X206533985Y-135509523D01*
X302117319Y-190135714D02*
X301117319Y-190135714D01*
X301117319Y-190135714D02*
X301117319Y-190373809D01*
X301117319Y-190373809D02*
X301164938Y-190516666D01*
X301164938Y-190516666D02*
X301260176Y-190611904D01*
X301260176Y-190611904D02*
X301355414Y-190659523D01*
X301355414Y-190659523D02*
X301545890Y-190707142D01*
X301545890Y-190707142D02*
X301688747Y-190707142D01*
X301688747Y-190707142D02*
X301879223Y-190659523D01*
X301879223Y-190659523D02*
X301974461Y-190611904D01*
X301974461Y-190611904D02*
X302069700Y-190516666D01*
X302069700Y-190516666D02*
X302117319Y-190373809D01*
X302117319Y-190373809D02*
X302117319Y-190135714D01*
X301117319Y-191564285D02*
X301117319Y-191373809D01*
X301117319Y-191373809D02*
X301164938Y-191278571D01*
X301164938Y-191278571D02*
X301212557Y-191230952D01*
X301212557Y-191230952D02*
X301355414Y-191135714D01*
X301355414Y-191135714D02*
X301545890Y-191088095D01*
X301545890Y-191088095D02*
X301926842Y-191088095D01*
X301926842Y-191088095D02*
X302022080Y-191135714D01*
X302022080Y-191135714D02*
X302069700Y-191183333D01*
X302069700Y-191183333D02*
X302117319Y-191278571D01*
X302117319Y-191278571D02*
X302117319Y-191469047D01*
X302117319Y-191469047D02*
X302069700Y-191564285D01*
X302069700Y-191564285D02*
X302022080Y-191611904D01*
X302022080Y-191611904D02*
X301926842Y-191659523D01*
X301926842Y-191659523D02*
X301688747Y-191659523D01*
X301688747Y-191659523D02*
X301593509Y-191611904D01*
X301593509Y-191611904D02*
X301545890Y-191564285D01*
X301545890Y-191564285D02*
X301498271Y-191469047D01*
X301498271Y-191469047D02*
X301498271Y-191278571D01*
X301498271Y-191278571D02*
X301545890Y-191183333D01*
X301545890Y-191183333D02*
X301593509Y-191135714D01*
X301593509Y-191135714D02*
X301688747Y-191088095D01*
X301545890Y-192230952D02*
X301498271Y-192135714D01*
X301498271Y-192135714D02*
X301450652Y-192088095D01*
X301450652Y-192088095D02*
X301355414Y-192040476D01*
X301355414Y-192040476D02*
X301307795Y-192040476D01*
X301307795Y-192040476D02*
X301212557Y-192088095D01*
X301212557Y-192088095D02*
X301164938Y-192135714D01*
X301164938Y-192135714D02*
X301117319Y-192230952D01*
X301117319Y-192230952D02*
X301117319Y-192421428D01*
X301117319Y-192421428D02*
X301164938Y-192516666D01*
X301164938Y-192516666D02*
X301212557Y-192564285D01*
X301212557Y-192564285D02*
X301307795Y-192611904D01*
X301307795Y-192611904D02*
X301355414Y-192611904D01*
X301355414Y-192611904D02*
X301450652Y-192564285D01*
X301450652Y-192564285D02*
X301498271Y-192516666D01*
X301498271Y-192516666D02*
X301545890Y-192421428D01*
X301545890Y-192421428D02*
X301545890Y-192230952D01*
X301545890Y-192230952D02*
X301593509Y-192135714D01*
X301593509Y-192135714D02*
X301641128Y-192088095D01*
X301641128Y-192088095D02*
X301736366Y-192040476D01*
X301736366Y-192040476D02*
X301926842Y-192040476D01*
X301926842Y-192040476D02*
X302022080Y-192088095D01*
X302022080Y-192088095D02*
X302069700Y-192135714D01*
X302069700Y-192135714D02*
X302117319Y-192230952D01*
X302117319Y-192230952D02*
X302117319Y-192421428D01*
X302117319Y-192421428D02*
X302069700Y-192516666D01*
X302069700Y-192516666D02*
X302022080Y-192564285D01*
X302022080Y-192564285D02*
X301926842Y-192611904D01*
X301926842Y-192611904D02*
X301736366Y-192611904D01*
X301736366Y-192611904D02*
X301641128Y-192564285D01*
X301641128Y-192564285D02*
X301593509Y-192516666D01*
X301593509Y-192516666D02*
X301545890Y-192421428D01*
X275923569Y-190135714D02*
X274923569Y-190135714D01*
X274923569Y-190135714D02*
X274923569Y-190373809D01*
X274923569Y-190373809D02*
X274971188Y-190516666D01*
X274971188Y-190516666D02*
X275066426Y-190611904D01*
X275066426Y-190611904D02*
X275161664Y-190659523D01*
X275161664Y-190659523D02*
X275352140Y-190707142D01*
X275352140Y-190707142D02*
X275494997Y-190707142D01*
X275494997Y-190707142D02*
X275685473Y-190659523D01*
X275685473Y-190659523D02*
X275780711Y-190611904D01*
X275780711Y-190611904D02*
X275875950Y-190516666D01*
X275875950Y-190516666D02*
X275923569Y-190373809D01*
X275923569Y-190373809D02*
X275923569Y-190135714D01*
X274923569Y-191564285D02*
X274923569Y-191373809D01*
X274923569Y-191373809D02*
X274971188Y-191278571D01*
X274971188Y-191278571D02*
X275018807Y-191230952D01*
X275018807Y-191230952D02*
X275161664Y-191135714D01*
X275161664Y-191135714D02*
X275352140Y-191088095D01*
X275352140Y-191088095D02*
X275733092Y-191088095D01*
X275733092Y-191088095D02*
X275828330Y-191135714D01*
X275828330Y-191135714D02*
X275875950Y-191183333D01*
X275875950Y-191183333D02*
X275923569Y-191278571D01*
X275923569Y-191278571D02*
X275923569Y-191469047D01*
X275923569Y-191469047D02*
X275875950Y-191564285D01*
X275875950Y-191564285D02*
X275828330Y-191611904D01*
X275828330Y-191611904D02*
X275733092Y-191659523D01*
X275733092Y-191659523D02*
X275494997Y-191659523D01*
X275494997Y-191659523D02*
X275399759Y-191611904D01*
X275399759Y-191611904D02*
X275352140Y-191564285D01*
X275352140Y-191564285D02*
X275304521Y-191469047D01*
X275304521Y-191469047D02*
X275304521Y-191278571D01*
X275304521Y-191278571D02*
X275352140Y-191183333D01*
X275352140Y-191183333D02*
X275399759Y-191135714D01*
X275399759Y-191135714D02*
X275494997Y-191088095D01*
X274923569Y-191992857D02*
X274923569Y-192659523D01*
X274923569Y-192659523D02*
X275923569Y-192230952D01*
X159242319Y-114411905D02*
X158242319Y-114411905D01*
X158242319Y-114411905D02*
X158242319Y-114650000D01*
X158242319Y-114650000D02*
X158289938Y-114792857D01*
X158289938Y-114792857D02*
X158385176Y-114888095D01*
X158385176Y-114888095D02*
X158480414Y-114935714D01*
X158480414Y-114935714D02*
X158670890Y-114983333D01*
X158670890Y-114983333D02*
X158813747Y-114983333D01*
X158813747Y-114983333D02*
X159004223Y-114935714D01*
X159004223Y-114935714D02*
X159099461Y-114888095D01*
X159099461Y-114888095D02*
X159194700Y-114792857D01*
X159194700Y-114792857D02*
X159242319Y-114650000D01*
X159242319Y-114650000D02*
X159242319Y-114411905D01*
X158242319Y-115316667D02*
X158242319Y-115983333D01*
X158242319Y-115983333D02*
X159242319Y-115554762D01*
X111617319Y-132985714D02*
X110617319Y-132985714D01*
X110617319Y-132985714D02*
X110617319Y-133223809D01*
X110617319Y-133223809D02*
X110664938Y-133366666D01*
X110664938Y-133366666D02*
X110760176Y-133461904D01*
X110760176Y-133461904D02*
X110855414Y-133509523D01*
X110855414Y-133509523D02*
X111045890Y-133557142D01*
X111045890Y-133557142D02*
X111188747Y-133557142D01*
X111188747Y-133557142D02*
X111379223Y-133509523D01*
X111379223Y-133509523D02*
X111474461Y-133461904D01*
X111474461Y-133461904D02*
X111569700Y-133366666D01*
X111569700Y-133366666D02*
X111617319Y-133223809D01*
X111617319Y-133223809D02*
X111617319Y-132985714D01*
X111617319Y-134509523D02*
X111617319Y-133938095D01*
X111617319Y-134223809D02*
X110617319Y-134223809D01*
X110617319Y-134223809D02*
X110760176Y-134128571D01*
X110760176Y-134128571D02*
X110855414Y-134033333D01*
X110855414Y-134033333D02*
X110903033Y-133938095D01*
X111617319Y-134985714D02*
X111617319Y-135176190D01*
X111617319Y-135176190D02*
X111569700Y-135271428D01*
X111569700Y-135271428D02*
X111522080Y-135319047D01*
X111522080Y-135319047D02*
X111379223Y-135414285D01*
X111379223Y-135414285D02*
X111188747Y-135461904D01*
X111188747Y-135461904D02*
X110807795Y-135461904D01*
X110807795Y-135461904D02*
X110712557Y-135414285D01*
X110712557Y-135414285D02*
X110664938Y-135366666D01*
X110664938Y-135366666D02*
X110617319Y-135271428D01*
X110617319Y-135271428D02*
X110617319Y-135080952D01*
X110617319Y-135080952D02*
X110664938Y-134985714D01*
X110664938Y-134985714D02*
X110712557Y-134938095D01*
X110712557Y-134938095D02*
X110807795Y-134890476D01*
X110807795Y-134890476D02*
X111045890Y-134890476D01*
X111045890Y-134890476D02*
X111141128Y-134938095D01*
X111141128Y-134938095D02*
X111188747Y-134985714D01*
X111188747Y-134985714D02*
X111236366Y-135080952D01*
X111236366Y-135080952D02*
X111236366Y-135271428D01*
X111236366Y-135271428D02*
X111188747Y-135366666D01*
X111188747Y-135366666D02*
X111141128Y-135414285D01*
X111141128Y-135414285D02*
X111045890Y-135461904D01*
X264017319Y-132985714D02*
X263017319Y-132985714D01*
X263017319Y-132985714D02*
X263017319Y-133223809D01*
X263017319Y-133223809D02*
X263064938Y-133366666D01*
X263064938Y-133366666D02*
X263160176Y-133461904D01*
X263160176Y-133461904D02*
X263255414Y-133509523D01*
X263255414Y-133509523D02*
X263445890Y-133557142D01*
X263445890Y-133557142D02*
X263588747Y-133557142D01*
X263588747Y-133557142D02*
X263779223Y-133509523D01*
X263779223Y-133509523D02*
X263874461Y-133461904D01*
X263874461Y-133461904D02*
X263969700Y-133366666D01*
X263969700Y-133366666D02*
X264017319Y-133223809D01*
X264017319Y-133223809D02*
X264017319Y-132985714D01*
X263112557Y-133938095D02*
X263064938Y-133985714D01*
X263064938Y-133985714D02*
X263017319Y-134080952D01*
X263017319Y-134080952D02*
X263017319Y-134319047D01*
X263017319Y-134319047D02*
X263064938Y-134414285D01*
X263064938Y-134414285D02*
X263112557Y-134461904D01*
X263112557Y-134461904D02*
X263207795Y-134509523D01*
X263207795Y-134509523D02*
X263303033Y-134509523D01*
X263303033Y-134509523D02*
X263445890Y-134461904D01*
X263445890Y-134461904D02*
X264017319Y-133890476D01*
X264017319Y-133890476D02*
X264017319Y-134509523D01*
X263017319Y-134842857D02*
X263017319Y-135509523D01*
X263017319Y-135509523D02*
X264017319Y-135080952D01*
X273542319Y-113935714D02*
X272542319Y-113935714D01*
X272542319Y-113935714D02*
X272542319Y-114173809D01*
X272542319Y-114173809D02*
X272589938Y-114316666D01*
X272589938Y-114316666D02*
X272685176Y-114411904D01*
X272685176Y-114411904D02*
X272780414Y-114459523D01*
X272780414Y-114459523D02*
X272970890Y-114507142D01*
X272970890Y-114507142D02*
X273113747Y-114507142D01*
X273113747Y-114507142D02*
X273304223Y-114459523D01*
X273304223Y-114459523D02*
X273399461Y-114411904D01*
X273399461Y-114411904D02*
X273494700Y-114316666D01*
X273494700Y-114316666D02*
X273542319Y-114173809D01*
X273542319Y-114173809D02*
X273542319Y-113935714D01*
X273542319Y-115459523D02*
X273542319Y-114888095D01*
X273542319Y-115173809D02*
X272542319Y-115173809D01*
X272542319Y-115173809D02*
X272685176Y-115078571D01*
X272685176Y-115078571D02*
X272780414Y-114983333D01*
X272780414Y-114983333D02*
X272828033Y-114888095D01*
X272542319Y-115792857D02*
X272542319Y-116411904D01*
X272542319Y-116411904D02*
X272923271Y-116078571D01*
X272923271Y-116078571D02*
X272923271Y-116221428D01*
X272923271Y-116221428D02*
X272970890Y-116316666D01*
X272970890Y-116316666D02*
X273018509Y-116364285D01*
X273018509Y-116364285D02*
X273113747Y-116411904D01*
X273113747Y-116411904D02*
X273351842Y-116411904D01*
X273351842Y-116411904D02*
X273447080Y-116364285D01*
X273447080Y-116364285D02*
X273494700Y-116316666D01*
X273494700Y-116316666D02*
X273542319Y-116221428D01*
X273542319Y-116221428D02*
X273542319Y-115935714D01*
X273542319Y-115935714D02*
X273494700Y-115840476D01*
X273494700Y-115840476D02*
X273447080Y-115792857D01*
X178292319Y-152035714D02*
X177292319Y-152035714D01*
X177292319Y-152035714D02*
X177292319Y-152273809D01*
X177292319Y-152273809D02*
X177339938Y-152416666D01*
X177339938Y-152416666D02*
X177435176Y-152511904D01*
X177435176Y-152511904D02*
X177530414Y-152559523D01*
X177530414Y-152559523D02*
X177720890Y-152607142D01*
X177720890Y-152607142D02*
X177863747Y-152607142D01*
X177863747Y-152607142D02*
X178054223Y-152559523D01*
X178054223Y-152559523D02*
X178149461Y-152511904D01*
X178149461Y-152511904D02*
X178244700Y-152416666D01*
X178244700Y-152416666D02*
X178292319Y-152273809D01*
X178292319Y-152273809D02*
X178292319Y-152035714D01*
X177292319Y-152940476D02*
X177292319Y-153559523D01*
X177292319Y-153559523D02*
X177673271Y-153226190D01*
X177673271Y-153226190D02*
X177673271Y-153369047D01*
X177673271Y-153369047D02*
X177720890Y-153464285D01*
X177720890Y-153464285D02*
X177768509Y-153511904D01*
X177768509Y-153511904D02*
X177863747Y-153559523D01*
X177863747Y-153559523D02*
X178101842Y-153559523D01*
X178101842Y-153559523D02*
X178197080Y-153511904D01*
X178197080Y-153511904D02*
X178244700Y-153464285D01*
X178244700Y-153464285D02*
X178292319Y-153369047D01*
X178292319Y-153369047D02*
X178292319Y-153083333D01*
X178292319Y-153083333D02*
X178244700Y-152988095D01*
X178244700Y-152988095D02*
X178197080Y-152940476D01*
X177292319Y-154416666D02*
X177292319Y-154226190D01*
X177292319Y-154226190D02*
X177339938Y-154130952D01*
X177339938Y-154130952D02*
X177387557Y-154083333D01*
X177387557Y-154083333D02*
X177530414Y-153988095D01*
X177530414Y-153988095D02*
X177720890Y-153940476D01*
X177720890Y-153940476D02*
X178101842Y-153940476D01*
X178101842Y-153940476D02*
X178197080Y-153988095D01*
X178197080Y-153988095D02*
X178244700Y-154035714D01*
X178244700Y-154035714D02*
X178292319Y-154130952D01*
X178292319Y-154130952D02*
X178292319Y-154321428D01*
X178292319Y-154321428D02*
X178244700Y-154416666D01*
X178244700Y-154416666D02*
X178197080Y-154464285D01*
X178197080Y-154464285D02*
X178101842Y-154511904D01*
X178101842Y-154511904D02*
X177863747Y-154511904D01*
X177863747Y-154511904D02*
X177768509Y-154464285D01*
X177768509Y-154464285D02*
X177720890Y-154416666D01*
X177720890Y-154416666D02*
X177673271Y-154321428D01*
X177673271Y-154321428D02*
X177673271Y-154130952D01*
X177673271Y-154130952D02*
X177720890Y-154035714D01*
X177720890Y-154035714D02*
X177768509Y-153988095D01*
X177768509Y-153988095D02*
X177863747Y-153940476D01*
X116379819Y-190135714D02*
X115379819Y-190135714D01*
X115379819Y-190135714D02*
X115379819Y-190373809D01*
X115379819Y-190373809D02*
X115427438Y-190516666D01*
X115427438Y-190516666D02*
X115522676Y-190611904D01*
X115522676Y-190611904D02*
X115617914Y-190659523D01*
X115617914Y-190659523D02*
X115808390Y-190707142D01*
X115808390Y-190707142D02*
X115951247Y-190707142D01*
X115951247Y-190707142D02*
X116141723Y-190659523D01*
X116141723Y-190659523D02*
X116236961Y-190611904D01*
X116236961Y-190611904D02*
X116332200Y-190516666D01*
X116332200Y-190516666D02*
X116379819Y-190373809D01*
X116379819Y-190373809D02*
X116379819Y-190135714D01*
X115379819Y-191611904D02*
X115379819Y-191135714D01*
X115379819Y-191135714D02*
X115856009Y-191088095D01*
X115856009Y-191088095D02*
X115808390Y-191135714D01*
X115808390Y-191135714D02*
X115760771Y-191230952D01*
X115760771Y-191230952D02*
X115760771Y-191469047D01*
X115760771Y-191469047D02*
X115808390Y-191564285D01*
X115808390Y-191564285D02*
X115856009Y-191611904D01*
X115856009Y-191611904D02*
X115951247Y-191659523D01*
X115951247Y-191659523D02*
X116189342Y-191659523D01*
X116189342Y-191659523D02*
X116284580Y-191611904D01*
X116284580Y-191611904D02*
X116332200Y-191564285D01*
X116332200Y-191564285D02*
X116379819Y-191469047D01*
X116379819Y-191469047D02*
X116379819Y-191230952D01*
X116379819Y-191230952D02*
X116332200Y-191135714D01*
X116332200Y-191135714D02*
X116284580Y-191088095D01*
X116379819Y-192135714D02*
X116379819Y-192326190D01*
X116379819Y-192326190D02*
X116332200Y-192421428D01*
X116332200Y-192421428D02*
X116284580Y-192469047D01*
X116284580Y-192469047D02*
X116141723Y-192564285D01*
X116141723Y-192564285D02*
X115951247Y-192611904D01*
X115951247Y-192611904D02*
X115570295Y-192611904D01*
X115570295Y-192611904D02*
X115475057Y-192564285D01*
X115475057Y-192564285D02*
X115427438Y-192516666D01*
X115427438Y-192516666D02*
X115379819Y-192421428D01*
X115379819Y-192421428D02*
X115379819Y-192230952D01*
X115379819Y-192230952D02*
X115427438Y-192135714D01*
X115427438Y-192135714D02*
X115475057Y-192088095D01*
X115475057Y-192088095D02*
X115570295Y-192040476D01*
X115570295Y-192040476D02*
X115808390Y-192040476D01*
X115808390Y-192040476D02*
X115903628Y-192088095D01*
X115903628Y-192088095D02*
X115951247Y-192135714D01*
X115951247Y-192135714D02*
X115998866Y-192230952D01*
X115998866Y-192230952D02*
X115998866Y-192421428D01*
X115998866Y-192421428D02*
X115951247Y-192516666D01*
X115951247Y-192516666D02*
X115903628Y-192564285D01*
X115903628Y-192564285D02*
X115808390Y-192611904D01*
X187817319Y-132985714D02*
X186817319Y-132985714D01*
X186817319Y-132985714D02*
X186817319Y-133223809D01*
X186817319Y-133223809D02*
X186864938Y-133366666D01*
X186864938Y-133366666D02*
X186960176Y-133461904D01*
X186960176Y-133461904D02*
X187055414Y-133509523D01*
X187055414Y-133509523D02*
X187245890Y-133557142D01*
X187245890Y-133557142D02*
X187388747Y-133557142D01*
X187388747Y-133557142D02*
X187579223Y-133509523D01*
X187579223Y-133509523D02*
X187674461Y-133461904D01*
X187674461Y-133461904D02*
X187769700Y-133366666D01*
X187769700Y-133366666D02*
X187817319Y-133223809D01*
X187817319Y-133223809D02*
X187817319Y-132985714D01*
X186912557Y-133938095D02*
X186864938Y-133985714D01*
X186864938Y-133985714D02*
X186817319Y-134080952D01*
X186817319Y-134080952D02*
X186817319Y-134319047D01*
X186817319Y-134319047D02*
X186864938Y-134414285D01*
X186864938Y-134414285D02*
X186912557Y-134461904D01*
X186912557Y-134461904D02*
X187007795Y-134509523D01*
X187007795Y-134509523D02*
X187103033Y-134509523D01*
X187103033Y-134509523D02*
X187245890Y-134461904D01*
X187245890Y-134461904D02*
X187817319Y-133890476D01*
X187817319Y-133890476D02*
X187817319Y-134509523D01*
X186817319Y-134842857D02*
X186817319Y-135461904D01*
X186817319Y-135461904D02*
X187198271Y-135128571D01*
X187198271Y-135128571D02*
X187198271Y-135271428D01*
X187198271Y-135271428D02*
X187245890Y-135366666D01*
X187245890Y-135366666D02*
X187293509Y-135414285D01*
X187293509Y-135414285D02*
X187388747Y-135461904D01*
X187388747Y-135461904D02*
X187626842Y-135461904D01*
X187626842Y-135461904D02*
X187722080Y-135414285D01*
X187722080Y-135414285D02*
X187769700Y-135366666D01*
X187769700Y-135366666D02*
X187817319Y-135271428D01*
X187817319Y-135271428D02*
X187817319Y-134985714D01*
X187817319Y-134985714D02*
X187769700Y-134890476D01*
X187769700Y-134890476D02*
X187722080Y-134842857D01*
X230679819Y-190135714D02*
X229679819Y-190135714D01*
X229679819Y-190135714D02*
X229679819Y-190373809D01*
X229679819Y-190373809D02*
X229727438Y-190516666D01*
X229727438Y-190516666D02*
X229822676Y-190611904D01*
X229822676Y-190611904D02*
X229917914Y-190659523D01*
X229917914Y-190659523D02*
X230108390Y-190707142D01*
X230108390Y-190707142D02*
X230251247Y-190707142D01*
X230251247Y-190707142D02*
X230441723Y-190659523D01*
X230441723Y-190659523D02*
X230536961Y-190611904D01*
X230536961Y-190611904D02*
X230632200Y-190516666D01*
X230632200Y-190516666D02*
X230679819Y-190373809D01*
X230679819Y-190373809D02*
X230679819Y-190135714D01*
X229679819Y-191564285D02*
X229679819Y-191373809D01*
X229679819Y-191373809D02*
X229727438Y-191278571D01*
X229727438Y-191278571D02*
X229775057Y-191230952D01*
X229775057Y-191230952D02*
X229917914Y-191135714D01*
X229917914Y-191135714D02*
X230108390Y-191088095D01*
X230108390Y-191088095D02*
X230489342Y-191088095D01*
X230489342Y-191088095D02*
X230584580Y-191135714D01*
X230584580Y-191135714D02*
X230632200Y-191183333D01*
X230632200Y-191183333D02*
X230679819Y-191278571D01*
X230679819Y-191278571D02*
X230679819Y-191469047D01*
X230679819Y-191469047D02*
X230632200Y-191564285D01*
X230632200Y-191564285D02*
X230584580Y-191611904D01*
X230584580Y-191611904D02*
X230489342Y-191659523D01*
X230489342Y-191659523D02*
X230251247Y-191659523D01*
X230251247Y-191659523D02*
X230156009Y-191611904D01*
X230156009Y-191611904D02*
X230108390Y-191564285D01*
X230108390Y-191564285D02*
X230060771Y-191469047D01*
X230060771Y-191469047D02*
X230060771Y-191278571D01*
X230060771Y-191278571D02*
X230108390Y-191183333D01*
X230108390Y-191183333D02*
X230156009Y-191135714D01*
X230156009Y-191135714D02*
X230251247Y-191088095D01*
X229679819Y-192564285D02*
X229679819Y-192088095D01*
X229679819Y-192088095D02*
X230156009Y-192040476D01*
X230156009Y-192040476D02*
X230108390Y-192088095D01*
X230108390Y-192088095D02*
X230060771Y-192183333D01*
X230060771Y-192183333D02*
X230060771Y-192421428D01*
X230060771Y-192421428D02*
X230108390Y-192516666D01*
X230108390Y-192516666D02*
X230156009Y-192564285D01*
X230156009Y-192564285D02*
X230251247Y-192611904D01*
X230251247Y-192611904D02*
X230489342Y-192611904D01*
X230489342Y-192611904D02*
X230584580Y-192564285D01*
X230584580Y-192564285D02*
X230632200Y-192516666D01*
X230632200Y-192516666D02*
X230679819Y-192421428D01*
X230679819Y-192421428D02*
X230679819Y-192183333D01*
X230679819Y-192183333D02*
X230632200Y-192088095D01*
X230632200Y-192088095D02*
X230584580Y-192040476D01*
X283067319Y-209185714D02*
X282067319Y-209185714D01*
X282067319Y-209185714D02*
X282067319Y-209423809D01*
X282067319Y-209423809D02*
X282114938Y-209566666D01*
X282114938Y-209566666D02*
X282210176Y-209661904D01*
X282210176Y-209661904D02*
X282305414Y-209709523D01*
X282305414Y-209709523D02*
X282495890Y-209757142D01*
X282495890Y-209757142D02*
X282638747Y-209757142D01*
X282638747Y-209757142D02*
X282829223Y-209709523D01*
X282829223Y-209709523D02*
X282924461Y-209661904D01*
X282924461Y-209661904D02*
X283019700Y-209566666D01*
X283019700Y-209566666D02*
X283067319Y-209423809D01*
X283067319Y-209423809D02*
X283067319Y-209185714D01*
X282067319Y-210090476D02*
X282067319Y-210757142D01*
X282067319Y-210757142D02*
X283067319Y-210328571D01*
X282067319Y-211042857D02*
X282067319Y-211709523D01*
X282067319Y-211709523D02*
X283067319Y-211280952D01*
X164004819Y-171085714D02*
X163004819Y-171085714D01*
X163004819Y-171085714D02*
X163004819Y-171323809D01*
X163004819Y-171323809D02*
X163052438Y-171466666D01*
X163052438Y-171466666D02*
X163147676Y-171561904D01*
X163147676Y-171561904D02*
X163242914Y-171609523D01*
X163242914Y-171609523D02*
X163433390Y-171657142D01*
X163433390Y-171657142D02*
X163576247Y-171657142D01*
X163576247Y-171657142D02*
X163766723Y-171609523D01*
X163766723Y-171609523D02*
X163861961Y-171561904D01*
X163861961Y-171561904D02*
X163957200Y-171466666D01*
X163957200Y-171466666D02*
X164004819Y-171323809D01*
X164004819Y-171323809D02*
X164004819Y-171085714D01*
X163338152Y-172514285D02*
X164004819Y-172514285D01*
X162957200Y-172276190D02*
X163671485Y-172038095D01*
X163671485Y-172038095D02*
X163671485Y-172657142D01*
X164004819Y-173085714D02*
X164004819Y-173276190D01*
X164004819Y-173276190D02*
X163957200Y-173371428D01*
X163957200Y-173371428D02*
X163909580Y-173419047D01*
X163909580Y-173419047D02*
X163766723Y-173514285D01*
X163766723Y-173514285D02*
X163576247Y-173561904D01*
X163576247Y-173561904D02*
X163195295Y-173561904D01*
X163195295Y-173561904D02*
X163100057Y-173514285D01*
X163100057Y-173514285D02*
X163052438Y-173466666D01*
X163052438Y-173466666D02*
X163004819Y-173371428D01*
X163004819Y-173371428D02*
X163004819Y-173180952D01*
X163004819Y-173180952D02*
X163052438Y-173085714D01*
X163052438Y-173085714D02*
X163100057Y-173038095D01*
X163100057Y-173038095D02*
X163195295Y-172990476D01*
X163195295Y-172990476D02*
X163433390Y-172990476D01*
X163433390Y-172990476D02*
X163528628Y-173038095D01*
X163528628Y-173038095D02*
X163576247Y-173085714D01*
X163576247Y-173085714D02*
X163623866Y-173180952D01*
X163623866Y-173180952D02*
X163623866Y-173371428D01*
X163623866Y-173371428D02*
X163576247Y-173466666D01*
X163576247Y-173466666D02*
X163528628Y-173514285D01*
X163528628Y-173514285D02*
X163433390Y-173561904D01*
X63992319Y-114411905D02*
X62992319Y-114411905D01*
X62992319Y-114411905D02*
X62992319Y-114650000D01*
X62992319Y-114650000D02*
X63039938Y-114792857D01*
X63039938Y-114792857D02*
X63135176Y-114888095D01*
X63135176Y-114888095D02*
X63230414Y-114935714D01*
X63230414Y-114935714D02*
X63420890Y-114983333D01*
X63420890Y-114983333D02*
X63563747Y-114983333D01*
X63563747Y-114983333D02*
X63754223Y-114935714D01*
X63754223Y-114935714D02*
X63849461Y-114888095D01*
X63849461Y-114888095D02*
X63944700Y-114792857D01*
X63944700Y-114792857D02*
X63992319Y-114650000D01*
X63992319Y-114650000D02*
X63992319Y-114411905D01*
X63087557Y-115364286D02*
X63039938Y-115411905D01*
X63039938Y-115411905D02*
X62992319Y-115507143D01*
X62992319Y-115507143D02*
X62992319Y-115745238D01*
X62992319Y-115745238D02*
X63039938Y-115840476D01*
X63039938Y-115840476D02*
X63087557Y-115888095D01*
X63087557Y-115888095D02*
X63182795Y-115935714D01*
X63182795Y-115935714D02*
X63278033Y-115935714D01*
X63278033Y-115935714D02*
X63420890Y-115888095D01*
X63420890Y-115888095D02*
X63992319Y-115316667D01*
X63992319Y-115316667D02*
X63992319Y-115935714D01*
X54467319Y-132985714D02*
X53467319Y-132985714D01*
X53467319Y-132985714D02*
X53467319Y-133223809D01*
X53467319Y-133223809D02*
X53514938Y-133366666D01*
X53514938Y-133366666D02*
X53610176Y-133461904D01*
X53610176Y-133461904D02*
X53705414Y-133509523D01*
X53705414Y-133509523D02*
X53895890Y-133557142D01*
X53895890Y-133557142D02*
X54038747Y-133557142D01*
X54038747Y-133557142D02*
X54229223Y-133509523D01*
X54229223Y-133509523D02*
X54324461Y-133461904D01*
X54324461Y-133461904D02*
X54419700Y-133366666D01*
X54419700Y-133366666D02*
X54467319Y-133223809D01*
X54467319Y-133223809D02*
X54467319Y-132985714D01*
X54467319Y-134509523D02*
X54467319Y-133938095D01*
X54467319Y-134223809D02*
X53467319Y-134223809D01*
X53467319Y-134223809D02*
X53610176Y-134128571D01*
X53610176Y-134128571D02*
X53705414Y-134033333D01*
X53705414Y-134033333D02*
X53753033Y-133938095D01*
X53467319Y-135366666D02*
X53467319Y-135176190D01*
X53467319Y-135176190D02*
X53514938Y-135080952D01*
X53514938Y-135080952D02*
X53562557Y-135033333D01*
X53562557Y-135033333D02*
X53705414Y-134938095D01*
X53705414Y-134938095D02*
X53895890Y-134890476D01*
X53895890Y-134890476D02*
X54276842Y-134890476D01*
X54276842Y-134890476D02*
X54372080Y-134938095D01*
X54372080Y-134938095D02*
X54419700Y-134985714D01*
X54419700Y-134985714D02*
X54467319Y-135080952D01*
X54467319Y-135080952D02*
X54467319Y-135271428D01*
X54467319Y-135271428D02*
X54419700Y-135366666D01*
X54419700Y-135366666D02*
X54372080Y-135414285D01*
X54372080Y-135414285D02*
X54276842Y-135461904D01*
X54276842Y-135461904D02*
X54038747Y-135461904D01*
X54038747Y-135461904D02*
X53943509Y-135414285D01*
X53943509Y-135414285D02*
X53895890Y-135366666D01*
X53895890Y-135366666D02*
X53848271Y-135271428D01*
X53848271Y-135271428D02*
X53848271Y-135080952D01*
X53848271Y-135080952D02*
X53895890Y-134985714D01*
X53895890Y-134985714D02*
X53943509Y-134938095D01*
X53943509Y-134938095D02*
X54038747Y-134890476D01*
X292592319Y-132985714D02*
X291592319Y-132985714D01*
X291592319Y-132985714D02*
X291592319Y-133223809D01*
X291592319Y-133223809D02*
X291639938Y-133366666D01*
X291639938Y-133366666D02*
X291735176Y-133461904D01*
X291735176Y-133461904D02*
X291830414Y-133509523D01*
X291830414Y-133509523D02*
X292020890Y-133557142D01*
X292020890Y-133557142D02*
X292163747Y-133557142D01*
X292163747Y-133557142D02*
X292354223Y-133509523D01*
X292354223Y-133509523D02*
X292449461Y-133461904D01*
X292449461Y-133461904D02*
X292544700Y-133366666D01*
X292544700Y-133366666D02*
X292592319Y-133223809D01*
X292592319Y-133223809D02*
X292592319Y-132985714D01*
X291687557Y-133938095D02*
X291639938Y-133985714D01*
X291639938Y-133985714D02*
X291592319Y-134080952D01*
X291592319Y-134080952D02*
X291592319Y-134319047D01*
X291592319Y-134319047D02*
X291639938Y-134414285D01*
X291639938Y-134414285D02*
X291687557Y-134461904D01*
X291687557Y-134461904D02*
X291782795Y-134509523D01*
X291782795Y-134509523D02*
X291878033Y-134509523D01*
X291878033Y-134509523D02*
X292020890Y-134461904D01*
X292020890Y-134461904D02*
X292592319Y-133890476D01*
X292592319Y-133890476D02*
X292592319Y-134509523D01*
X292020890Y-135080952D02*
X291973271Y-134985714D01*
X291973271Y-134985714D02*
X291925652Y-134938095D01*
X291925652Y-134938095D02*
X291830414Y-134890476D01*
X291830414Y-134890476D02*
X291782795Y-134890476D01*
X291782795Y-134890476D02*
X291687557Y-134938095D01*
X291687557Y-134938095D02*
X291639938Y-134985714D01*
X291639938Y-134985714D02*
X291592319Y-135080952D01*
X291592319Y-135080952D02*
X291592319Y-135271428D01*
X291592319Y-135271428D02*
X291639938Y-135366666D01*
X291639938Y-135366666D02*
X291687557Y-135414285D01*
X291687557Y-135414285D02*
X291782795Y-135461904D01*
X291782795Y-135461904D02*
X291830414Y-135461904D01*
X291830414Y-135461904D02*
X291925652Y-135414285D01*
X291925652Y-135414285D02*
X291973271Y-135366666D01*
X291973271Y-135366666D02*
X292020890Y-135271428D01*
X292020890Y-135271428D02*
X292020890Y-135080952D01*
X292020890Y-135080952D02*
X292068509Y-134985714D01*
X292068509Y-134985714D02*
X292116128Y-134938095D01*
X292116128Y-134938095D02*
X292211366Y-134890476D01*
X292211366Y-134890476D02*
X292401842Y-134890476D01*
X292401842Y-134890476D02*
X292497080Y-134938095D01*
X292497080Y-134938095D02*
X292544700Y-134985714D01*
X292544700Y-134985714D02*
X292592319Y-135080952D01*
X292592319Y-135080952D02*
X292592319Y-135271428D01*
X292592319Y-135271428D02*
X292544700Y-135366666D01*
X292544700Y-135366666D02*
X292497080Y-135414285D01*
X292497080Y-135414285D02*
X292401842Y-135461904D01*
X292401842Y-135461904D02*
X292211366Y-135461904D01*
X292211366Y-135461904D02*
X292116128Y-135414285D01*
X292116128Y-135414285D02*
X292068509Y-135366666D01*
X292068509Y-135366666D02*
X292020890Y-135271428D01*
X97329819Y-190135714D02*
X96329819Y-190135714D01*
X96329819Y-190135714D02*
X96329819Y-190373809D01*
X96329819Y-190373809D02*
X96377438Y-190516666D01*
X96377438Y-190516666D02*
X96472676Y-190611904D01*
X96472676Y-190611904D02*
X96567914Y-190659523D01*
X96567914Y-190659523D02*
X96758390Y-190707142D01*
X96758390Y-190707142D02*
X96901247Y-190707142D01*
X96901247Y-190707142D02*
X97091723Y-190659523D01*
X97091723Y-190659523D02*
X97186961Y-190611904D01*
X97186961Y-190611904D02*
X97282200Y-190516666D01*
X97282200Y-190516666D02*
X97329819Y-190373809D01*
X97329819Y-190373809D02*
X97329819Y-190135714D01*
X96329819Y-191611904D02*
X96329819Y-191135714D01*
X96329819Y-191135714D02*
X96806009Y-191088095D01*
X96806009Y-191088095D02*
X96758390Y-191135714D01*
X96758390Y-191135714D02*
X96710771Y-191230952D01*
X96710771Y-191230952D02*
X96710771Y-191469047D01*
X96710771Y-191469047D02*
X96758390Y-191564285D01*
X96758390Y-191564285D02*
X96806009Y-191611904D01*
X96806009Y-191611904D02*
X96901247Y-191659523D01*
X96901247Y-191659523D02*
X97139342Y-191659523D01*
X97139342Y-191659523D02*
X97234580Y-191611904D01*
X97234580Y-191611904D02*
X97282200Y-191564285D01*
X97282200Y-191564285D02*
X97329819Y-191469047D01*
X97329819Y-191469047D02*
X97329819Y-191230952D01*
X97329819Y-191230952D02*
X97282200Y-191135714D01*
X97282200Y-191135714D02*
X97234580Y-191088095D01*
X96758390Y-192230952D02*
X96710771Y-192135714D01*
X96710771Y-192135714D02*
X96663152Y-192088095D01*
X96663152Y-192088095D02*
X96567914Y-192040476D01*
X96567914Y-192040476D02*
X96520295Y-192040476D01*
X96520295Y-192040476D02*
X96425057Y-192088095D01*
X96425057Y-192088095D02*
X96377438Y-192135714D01*
X96377438Y-192135714D02*
X96329819Y-192230952D01*
X96329819Y-192230952D02*
X96329819Y-192421428D01*
X96329819Y-192421428D02*
X96377438Y-192516666D01*
X96377438Y-192516666D02*
X96425057Y-192564285D01*
X96425057Y-192564285D02*
X96520295Y-192611904D01*
X96520295Y-192611904D02*
X96567914Y-192611904D01*
X96567914Y-192611904D02*
X96663152Y-192564285D01*
X96663152Y-192564285D02*
X96710771Y-192516666D01*
X96710771Y-192516666D02*
X96758390Y-192421428D01*
X96758390Y-192421428D02*
X96758390Y-192230952D01*
X96758390Y-192230952D02*
X96806009Y-192135714D01*
X96806009Y-192135714D02*
X96853628Y-192088095D01*
X96853628Y-192088095D02*
X96948866Y-192040476D01*
X96948866Y-192040476D02*
X97139342Y-192040476D01*
X97139342Y-192040476D02*
X97234580Y-192088095D01*
X97234580Y-192088095D02*
X97282200Y-192135714D01*
X97282200Y-192135714D02*
X97329819Y-192230952D01*
X97329819Y-192230952D02*
X97329819Y-192421428D01*
X97329819Y-192421428D02*
X97282200Y-192516666D01*
X97282200Y-192516666D02*
X97234580Y-192564285D01*
X97234580Y-192564285D02*
X97139342Y-192611904D01*
X97139342Y-192611904D02*
X96948866Y-192611904D01*
X96948866Y-192611904D02*
X96853628Y-192564285D01*
X96853628Y-192564285D02*
X96806009Y-192516666D01*
X96806009Y-192516666D02*
X96758390Y-192421428D01*
X254492319Y-113935714D02*
X253492319Y-113935714D01*
X253492319Y-113935714D02*
X253492319Y-114173809D01*
X253492319Y-114173809D02*
X253539938Y-114316666D01*
X253539938Y-114316666D02*
X253635176Y-114411904D01*
X253635176Y-114411904D02*
X253730414Y-114459523D01*
X253730414Y-114459523D02*
X253920890Y-114507142D01*
X253920890Y-114507142D02*
X254063747Y-114507142D01*
X254063747Y-114507142D02*
X254254223Y-114459523D01*
X254254223Y-114459523D02*
X254349461Y-114411904D01*
X254349461Y-114411904D02*
X254444700Y-114316666D01*
X254444700Y-114316666D02*
X254492319Y-114173809D01*
X254492319Y-114173809D02*
X254492319Y-113935714D01*
X254492319Y-115459523D02*
X254492319Y-114888095D01*
X254492319Y-115173809D02*
X253492319Y-115173809D01*
X253492319Y-115173809D02*
X253635176Y-115078571D01*
X253635176Y-115078571D02*
X253730414Y-114983333D01*
X253730414Y-114983333D02*
X253778033Y-114888095D01*
X253587557Y-115840476D02*
X253539938Y-115888095D01*
X253539938Y-115888095D02*
X253492319Y-115983333D01*
X253492319Y-115983333D02*
X253492319Y-116221428D01*
X253492319Y-116221428D02*
X253539938Y-116316666D01*
X253539938Y-116316666D02*
X253587557Y-116364285D01*
X253587557Y-116364285D02*
X253682795Y-116411904D01*
X253682795Y-116411904D02*
X253778033Y-116411904D01*
X253778033Y-116411904D02*
X253920890Y-116364285D01*
X253920890Y-116364285D02*
X254492319Y-115792857D01*
X254492319Y-115792857D02*
X254492319Y-116411904D01*
X130667319Y-132985714D02*
X129667319Y-132985714D01*
X129667319Y-132985714D02*
X129667319Y-133223809D01*
X129667319Y-133223809D02*
X129714938Y-133366666D01*
X129714938Y-133366666D02*
X129810176Y-133461904D01*
X129810176Y-133461904D02*
X129905414Y-133509523D01*
X129905414Y-133509523D02*
X130095890Y-133557142D01*
X130095890Y-133557142D02*
X130238747Y-133557142D01*
X130238747Y-133557142D02*
X130429223Y-133509523D01*
X130429223Y-133509523D02*
X130524461Y-133461904D01*
X130524461Y-133461904D02*
X130619700Y-133366666D01*
X130619700Y-133366666D02*
X130667319Y-133223809D01*
X130667319Y-133223809D02*
X130667319Y-132985714D01*
X129762557Y-133938095D02*
X129714938Y-133985714D01*
X129714938Y-133985714D02*
X129667319Y-134080952D01*
X129667319Y-134080952D02*
X129667319Y-134319047D01*
X129667319Y-134319047D02*
X129714938Y-134414285D01*
X129714938Y-134414285D02*
X129762557Y-134461904D01*
X129762557Y-134461904D02*
X129857795Y-134509523D01*
X129857795Y-134509523D02*
X129953033Y-134509523D01*
X129953033Y-134509523D02*
X130095890Y-134461904D01*
X130095890Y-134461904D02*
X130667319Y-133890476D01*
X130667319Y-133890476D02*
X130667319Y-134509523D01*
X129667319Y-135128571D02*
X129667319Y-135223809D01*
X129667319Y-135223809D02*
X129714938Y-135319047D01*
X129714938Y-135319047D02*
X129762557Y-135366666D01*
X129762557Y-135366666D02*
X129857795Y-135414285D01*
X129857795Y-135414285D02*
X130048271Y-135461904D01*
X130048271Y-135461904D02*
X130286366Y-135461904D01*
X130286366Y-135461904D02*
X130476842Y-135414285D01*
X130476842Y-135414285D02*
X130572080Y-135366666D01*
X130572080Y-135366666D02*
X130619700Y-135319047D01*
X130619700Y-135319047D02*
X130667319Y-135223809D01*
X130667319Y-135223809D02*
X130667319Y-135128571D01*
X130667319Y-135128571D02*
X130619700Y-135033333D01*
X130619700Y-135033333D02*
X130572080Y-134985714D01*
X130572080Y-134985714D02*
X130476842Y-134938095D01*
X130476842Y-134938095D02*
X130286366Y-134890476D01*
X130286366Y-134890476D02*
X130048271Y-134890476D01*
X130048271Y-134890476D02*
X129857795Y-134938095D01*
X129857795Y-134938095D02*
X129762557Y-134985714D01*
X129762557Y-134985714D02*
X129714938Y-135033333D01*
X129714938Y-135033333D02*
X129667319Y-135128571D01*
X240204819Y-171085714D02*
X239204819Y-171085714D01*
X239204819Y-171085714D02*
X239204819Y-171323809D01*
X239204819Y-171323809D02*
X239252438Y-171466666D01*
X239252438Y-171466666D02*
X239347676Y-171561904D01*
X239347676Y-171561904D02*
X239442914Y-171609523D01*
X239442914Y-171609523D02*
X239633390Y-171657142D01*
X239633390Y-171657142D02*
X239776247Y-171657142D01*
X239776247Y-171657142D02*
X239966723Y-171609523D01*
X239966723Y-171609523D02*
X240061961Y-171561904D01*
X240061961Y-171561904D02*
X240157200Y-171466666D01*
X240157200Y-171466666D02*
X240204819Y-171323809D01*
X240204819Y-171323809D02*
X240204819Y-171085714D01*
X239204819Y-172561904D02*
X239204819Y-172085714D01*
X239204819Y-172085714D02*
X239681009Y-172038095D01*
X239681009Y-172038095D02*
X239633390Y-172085714D01*
X239633390Y-172085714D02*
X239585771Y-172180952D01*
X239585771Y-172180952D02*
X239585771Y-172419047D01*
X239585771Y-172419047D02*
X239633390Y-172514285D01*
X239633390Y-172514285D02*
X239681009Y-172561904D01*
X239681009Y-172561904D02*
X239776247Y-172609523D01*
X239776247Y-172609523D02*
X240014342Y-172609523D01*
X240014342Y-172609523D02*
X240109580Y-172561904D01*
X240109580Y-172561904D02*
X240157200Y-172514285D01*
X240157200Y-172514285D02*
X240204819Y-172419047D01*
X240204819Y-172419047D02*
X240204819Y-172180952D01*
X240204819Y-172180952D02*
X240157200Y-172085714D01*
X240157200Y-172085714D02*
X240109580Y-172038095D01*
X239204819Y-172942857D02*
X239204819Y-173561904D01*
X239204819Y-173561904D02*
X239585771Y-173228571D01*
X239585771Y-173228571D02*
X239585771Y-173371428D01*
X239585771Y-173371428D02*
X239633390Y-173466666D01*
X239633390Y-173466666D02*
X239681009Y-173514285D01*
X239681009Y-173514285D02*
X239776247Y-173561904D01*
X239776247Y-173561904D02*
X240014342Y-173561904D01*
X240014342Y-173561904D02*
X240109580Y-173514285D01*
X240109580Y-173514285D02*
X240157200Y-173466666D01*
X240157200Y-173466666D02*
X240204819Y-173371428D01*
X240204819Y-173371428D02*
X240204819Y-173085714D01*
X240204819Y-173085714D02*
X240157200Y-172990476D01*
X240157200Y-172990476D02*
X240109580Y-172942857D01*
X83042319Y-114411905D02*
X82042319Y-114411905D01*
X82042319Y-114411905D02*
X82042319Y-114650000D01*
X82042319Y-114650000D02*
X82089938Y-114792857D01*
X82089938Y-114792857D02*
X82185176Y-114888095D01*
X82185176Y-114888095D02*
X82280414Y-114935714D01*
X82280414Y-114935714D02*
X82470890Y-114983333D01*
X82470890Y-114983333D02*
X82613747Y-114983333D01*
X82613747Y-114983333D02*
X82804223Y-114935714D01*
X82804223Y-114935714D02*
X82899461Y-114888095D01*
X82899461Y-114888095D02*
X82994700Y-114792857D01*
X82994700Y-114792857D02*
X83042319Y-114650000D01*
X83042319Y-114650000D02*
X83042319Y-114411905D01*
X82042319Y-115316667D02*
X82042319Y-115935714D01*
X82042319Y-115935714D02*
X82423271Y-115602381D01*
X82423271Y-115602381D02*
X82423271Y-115745238D01*
X82423271Y-115745238D02*
X82470890Y-115840476D01*
X82470890Y-115840476D02*
X82518509Y-115888095D01*
X82518509Y-115888095D02*
X82613747Y-115935714D01*
X82613747Y-115935714D02*
X82851842Y-115935714D01*
X82851842Y-115935714D02*
X82947080Y-115888095D01*
X82947080Y-115888095D02*
X82994700Y-115840476D01*
X82994700Y-115840476D02*
X83042319Y-115745238D01*
X83042319Y-115745238D02*
X83042319Y-115459524D01*
X83042319Y-115459524D02*
X82994700Y-115364286D01*
X82994700Y-115364286D02*
X82947080Y-115316667D01*
X42561069Y-171085714D02*
X41561069Y-171085714D01*
X41561069Y-171085714D02*
X41561069Y-171323809D01*
X41561069Y-171323809D02*
X41608688Y-171466666D01*
X41608688Y-171466666D02*
X41703926Y-171561904D01*
X41703926Y-171561904D02*
X41799164Y-171609523D01*
X41799164Y-171609523D02*
X41989640Y-171657142D01*
X41989640Y-171657142D02*
X42132497Y-171657142D01*
X42132497Y-171657142D02*
X42322973Y-171609523D01*
X42322973Y-171609523D02*
X42418211Y-171561904D01*
X42418211Y-171561904D02*
X42513450Y-171466666D01*
X42513450Y-171466666D02*
X42561069Y-171323809D01*
X42561069Y-171323809D02*
X42561069Y-171085714D01*
X41894402Y-172514285D02*
X42561069Y-172514285D01*
X41513450Y-172276190D02*
X42227735Y-172038095D01*
X42227735Y-172038095D02*
X42227735Y-172657142D01*
X41561069Y-172942857D02*
X41561069Y-173561904D01*
X41561069Y-173561904D02*
X41942021Y-173228571D01*
X41942021Y-173228571D02*
X41942021Y-173371428D01*
X41942021Y-173371428D02*
X41989640Y-173466666D01*
X41989640Y-173466666D02*
X42037259Y-173514285D01*
X42037259Y-173514285D02*
X42132497Y-173561904D01*
X42132497Y-173561904D02*
X42370592Y-173561904D01*
X42370592Y-173561904D02*
X42465830Y-173514285D01*
X42465830Y-173514285D02*
X42513450Y-173466666D01*
X42513450Y-173466666D02*
X42561069Y-173371428D01*
X42561069Y-173371428D02*
X42561069Y-173085714D01*
X42561069Y-173085714D02*
X42513450Y-172990476D01*
X42513450Y-172990476D02*
X42465830Y-172942857D01*
X225917319Y-132985714D02*
X224917319Y-132985714D01*
X224917319Y-132985714D02*
X224917319Y-133223809D01*
X224917319Y-133223809D02*
X224964938Y-133366666D01*
X224964938Y-133366666D02*
X225060176Y-133461904D01*
X225060176Y-133461904D02*
X225155414Y-133509523D01*
X225155414Y-133509523D02*
X225345890Y-133557142D01*
X225345890Y-133557142D02*
X225488747Y-133557142D01*
X225488747Y-133557142D02*
X225679223Y-133509523D01*
X225679223Y-133509523D02*
X225774461Y-133461904D01*
X225774461Y-133461904D02*
X225869700Y-133366666D01*
X225869700Y-133366666D02*
X225917319Y-133223809D01*
X225917319Y-133223809D02*
X225917319Y-132985714D01*
X225012557Y-133938095D02*
X224964938Y-133985714D01*
X224964938Y-133985714D02*
X224917319Y-134080952D01*
X224917319Y-134080952D02*
X224917319Y-134319047D01*
X224917319Y-134319047D02*
X224964938Y-134414285D01*
X224964938Y-134414285D02*
X225012557Y-134461904D01*
X225012557Y-134461904D02*
X225107795Y-134509523D01*
X225107795Y-134509523D02*
X225203033Y-134509523D01*
X225203033Y-134509523D02*
X225345890Y-134461904D01*
X225345890Y-134461904D02*
X225917319Y-133890476D01*
X225917319Y-133890476D02*
X225917319Y-134509523D01*
X224917319Y-135414285D02*
X224917319Y-134938095D01*
X224917319Y-134938095D02*
X225393509Y-134890476D01*
X225393509Y-134890476D02*
X225345890Y-134938095D01*
X225345890Y-134938095D02*
X225298271Y-135033333D01*
X225298271Y-135033333D02*
X225298271Y-135271428D01*
X225298271Y-135271428D02*
X225345890Y-135366666D01*
X225345890Y-135366666D02*
X225393509Y-135414285D01*
X225393509Y-135414285D02*
X225488747Y-135461904D01*
X225488747Y-135461904D02*
X225726842Y-135461904D01*
X225726842Y-135461904D02*
X225822080Y-135414285D01*
X225822080Y-135414285D02*
X225869700Y-135366666D01*
X225869700Y-135366666D02*
X225917319Y-135271428D01*
X225917319Y-135271428D02*
X225917319Y-135033333D01*
X225917319Y-135033333D02*
X225869700Y-134938095D01*
X225869700Y-134938095D02*
X225822080Y-134890476D01*
X225917319Y-209185714D02*
X224917319Y-209185714D01*
X224917319Y-209185714D02*
X224917319Y-209423809D01*
X224917319Y-209423809D02*
X224964938Y-209566666D01*
X224964938Y-209566666D02*
X225060176Y-209661904D01*
X225060176Y-209661904D02*
X225155414Y-209709523D01*
X225155414Y-209709523D02*
X225345890Y-209757142D01*
X225345890Y-209757142D02*
X225488747Y-209757142D01*
X225488747Y-209757142D02*
X225679223Y-209709523D01*
X225679223Y-209709523D02*
X225774461Y-209661904D01*
X225774461Y-209661904D02*
X225869700Y-209566666D01*
X225869700Y-209566666D02*
X225917319Y-209423809D01*
X225917319Y-209423809D02*
X225917319Y-209185714D01*
X224917319Y-210090476D02*
X224917319Y-210757142D01*
X224917319Y-210757142D02*
X225917319Y-210328571D01*
X225250652Y-211566666D02*
X225917319Y-211566666D01*
X224869700Y-211328571D02*
X225583985Y-211090476D01*
X225583985Y-211090476D02*
X225583985Y-211709523D01*
X140192319Y-152035714D02*
X139192319Y-152035714D01*
X139192319Y-152035714D02*
X139192319Y-152273809D01*
X139192319Y-152273809D02*
X139239938Y-152416666D01*
X139239938Y-152416666D02*
X139335176Y-152511904D01*
X139335176Y-152511904D02*
X139430414Y-152559523D01*
X139430414Y-152559523D02*
X139620890Y-152607142D01*
X139620890Y-152607142D02*
X139763747Y-152607142D01*
X139763747Y-152607142D02*
X139954223Y-152559523D01*
X139954223Y-152559523D02*
X140049461Y-152511904D01*
X140049461Y-152511904D02*
X140144700Y-152416666D01*
X140144700Y-152416666D02*
X140192319Y-152273809D01*
X140192319Y-152273809D02*
X140192319Y-152035714D01*
X139192319Y-152940476D02*
X139192319Y-153559523D01*
X139192319Y-153559523D02*
X139573271Y-153226190D01*
X139573271Y-153226190D02*
X139573271Y-153369047D01*
X139573271Y-153369047D02*
X139620890Y-153464285D01*
X139620890Y-153464285D02*
X139668509Y-153511904D01*
X139668509Y-153511904D02*
X139763747Y-153559523D01*
X139763747Y-153559523D02*
X140001842Y-153559523D01*
X140001842Y-153559523D02*
X140097080Y-153511904D01*
X140097080Y-153511904D02*
X140144700Y-153464285D01*
X140144700Y-153464285D02*
X140192319Y-153369047D01*
X140192319Y-153369047D02*
X140192319Y-153083333D01*
X140192319Y-153083333D02*
X140144700Y-152988095D01*
X140144700Y-152988095D02*
X140097080Y-152940476D01*
X139525652Y-154416666D02*
X140192319Y-154416666D01*
X139144700Y-154178571D02*
X139858985Y-153940476D01*
X139858985Y-153940476D02*
X139858985Y-154559523D01*
X216392319Y-152035714D02*
X215392319Y-152035714D01*
X215392319Y-152035714D02*
X215392319Y-152273809D01*
X215392319Y-152273809D02*
X215439938Y-152416666D01*
X215439938Y-152416666D02*
X215535176Y-152511904D01*
X215535176Y-152511904D02*
X215630414Y-152559523D01*
X215630414Y-152559523D02*
X215820890Y-152607142D01*
X215820890Y-152607142D02*
X215963747Y-152607142D01*
X215963747Y-152607142D02*
X216154223Y-152559523D01*
X216154223Y-152559523D02*
X216249461Y-152511904D01*
X216249461Y-152511904D02*
X216344700Y-152416666D01*
X216344700Y-152416666D02*
X216392319Y-152273809D01*
X216392319Y-152273809D02*
X216392319Y-152035714D01*
X215392319Y-152940476D02*
X215392319Y-153559523D01*
X215392319Y-153559523D02*
X215773271Y-153226190D01*
X215773271Y-153226190D02*
X215773271Y-153369047D01*
X215773271Y-153369047D02*
X215820890Y-153464285D01*
X215820890Y-153464285D02*
X215868509Y-153511904D01*
X215868509Y-153511904D02*
X215963747Y-153559523D01*
X215963747Y-153559523D02*
X216201842Y-153559523D01*
X216201842Y-153559523D02*
X216297080Y-153511904D01*
X216297080Y-153511904D02*
X216344700Y-153464285D01*
X216344700Y-153464285D02*
X216392319Y-153369047D01*
X216392319Y-153369047D02*
X216392319Y-153083333D01*
X216392319Y-153083333D02*
X216344700Y-152988095D01*
X216344700Y-152988095D02*
X216297080Y-152940476D01*
X215820890Y-154130952D02*
X215773271Y-154035714D01*
X215773271Y-154035714D02*
X215725652Y-153988095D01*
X215725652Y-153988095D02*
X215630414Y-153940476D01*
X215630414Y-153940476D02*
X215582795Y-153940476D01*
X215582795Y-153940476D02*
X215487557Y-153988095D01*
X215487557Y-153988095D02*
X215439938Y-154035714D01*
X215439938Y-154035714D02*
X215392319Y-154130952D01*
X215392319Y-154130952D02*
X215392319Y-154321428D01*
X215392319Y-154321428D02*
X215439938Y-154416666D01*
X215439938Y-154416666D02*
X215487557Y-154464285D01*
X215487557Y-154464285D02*
X215582795Y-154511904D01*
X215582795Y-154511904D02*
X215630414Y-154511904D01*
X215630414Y-154511904D02*
X215725652Y-154464285D01*
X215725652Y-154464285D02*
X215773271Y-154416666D01*
X215773271Y-154416666D02*
X215820890Y-154321428D01*
X215820890Y-154321428D02*
X215820890Y-154130952D01*
X215820890Y-154130952D02*
X215868509Y-154035714D01*
X215868509Y-154035714D02*
X215916128Y-153988095D01*
X215916128Y-153988095D02*
X216011366Y-153940476D01*
X216011366Y-153940476D02*
X216201842Y-153940476D01*
X216201842Y-153940476D02*
X216297080Y-153988095D01*
X216297080Y-153988095D02*
X216344700Y-154035714D01*
X216344700Y-154035714D02*
X216392319Y-154130952D01*
X216392319Y-154130952D02*
X216392319Y-154321428D01*
X216392319Y-154321428D02*
X216344700Y-154416666D01*
X216344700Y-154416666D02*
X216297080Y-154464285D01*
X216297080Y-154464285D02*
X216201842Y-154511904D01*
X216201842Y-154511904D02*
X216011366Y-154511904D01*
X216011366Y-154511904D02*
X215916128Y-154464285D01*
X215916128Y-154464285D02*
X215868509Y-154416666D01*
X215868509Y-154416666D02*
X215820890Y-154321428D01*
X154479819Y-190135714D02*
X153479819Y-190135714D01*
X153479819Y-190135714D02*
X153479819Y-190373809D01*
X153479819Y-190373809D02*
X153527438Y-190516666D01*
X153527438Y-190516666D02*
X153622676Y-190611904D01*
X153622676Y-190611904D02*
X153717914Y-190659523D01*
X153717914Y-190659523D02*
X153908390Y-190707142D01*
X153908390Y-190707142D02*
X154051247Y-190707142D01*
X154051247Y-190707142D02*
X154241723Y-190659523D01*
X154241723Y-190659523D02*
X154336961Y-190611904D01*
X154336961Y-190611904D02*
X154432200Y-190516666D01*
X154432200Y-190516666D02*
X154479819Y-190373809D01*
X154479819Y-190373809D02*
X154479819Y-190135714D01*
X153479819Y-191564285D02*
X153479819Y-191373809D01*
X153479819Y-191373809D02*
X153527438Y-191278571D01*
X153527438Y-191278571D02*
X153575057Y-191230952D01*
X153575057Y-191230952D02*
X153717914Y-191135714D01*
X153717914Y-191135714D02*
X153908390Y-191088095D01*
X153908390Y-191088095D02*
X154289342Y-191088095D01*
X154289342Y-191088095D02*
X154384580Y-191135714D01*
X154384580Y-191135714D02*
X154432200Y-191183333D01*
X154432200Y-191183333D02*
X154479819Y-191278571D01*
X154479819Y-191278571D02*
X154479819Y-191469047D01*
X154479819Y-191469047D02*
X154432200Y-191564285D01*
X154432200Y-191564285D02*
X154384580Y-191611904D01*
X154384580Y-191611904D02*
X154289342Y-191659523D01*
X154289342Y-191659523D02*
X154051247Y-191659523D01*
X154051247Y-191659523D02*
X153956009Y-191611904D01*
X153956009Y-191611904D02*
X153908390Y-191564285D01*
X153908390Y-191564285D02*
X153860771Y-191469047D01*
X153860771Y-191469047D02*
X153860771Y-191278571D01*
X153860771Y-191278571D02*
X153908390Y-191183333D01*
X153908390Y-191183333D02*
X153956009Y-191135714D01*
X153956009Y-191135714D02*
X154051247Y-191088095D01*
X154479819Y-192611904D02*
X154479819Y-192040476D01*
X154479819Y-192326190D02*
X153479819Y-192326190D01*
X153479819Y-192326190D02*
X153622676Y-192230952D01*
X153622676Y-192230952D02*
X153717914Y-192135714D01*
X153717914Y-192135714D02*
X153765533Y-192040476D01*
X216392319Y-113935714D02*
X215392319Y-113935714D01*
X215392319Y-113935714D02*
X215392319Y-114173809D01*
X215392319Y-114173809D02*
X215439938Y-114316666D01*
X215439938Y-114316666D02*
X215535176Y-114411904D01*
X215535176Y-114411904D02*
X215630414Y-114459523D01*
X215630414Y-114459523D02*
X215820890Y-114507142D01*
X215820890Y-114507142D02*
X215963747Y-114507142D01*
X215963747Y-114507142D02*
X216154223Y-114459523D01*
X216154223Y-114459523D02*
X216249461Y-114411904D01*
X216249461Y-114411904D02*
X216344700Y-114316666D01*
X216344700Y-114316666D02*
X216392319Y-114173809D01*
X216392319Y-114173809D02*
X216392319Y-113935714D01*
X216392319Y-115459523D02*
X216392319Y-114888095D01*
X216392319Y-115173809D02*
X215392319Y-115173809D01*
X215392319Y-115173809D02*
X215535176Y-115078571D01*
X215535176Y-115078571D02*
X215630414Y-114983333D01*
X215630414Y-114983333D02*
X215678033Y-114888095D01*
X215392319Y-116078571D02*
X215392319Y-116173809D01*
X215392319Y-116173809D02*
X215439938Y-116269047D01*
X215439938Y-116269047D02*
X215487557Y-116316666D01*
X215487557Y-116316666D02*
X215582795Y-116364285D01*
X215582795Y-116364285D02*
X215773271Y-116411904D01*
X215773271Y-116411904D02*
X216011366Y-116411904D01*
X216011366Y-116411904D02*
X216201842Y-116364285D01*
X216201842Y-116364285D02*
X216297080Y-116316666D01*
X216297080Y-116316666D02*
X216344700Y-116269047D01*
X216344700Y-116269047D02*
X216392319Y-116173809D01*
X216392319Y-116173809D02*
X216392319Y-116078571D01*
X216392319Y-116078571D02*
X216344700Y-115983333D01*
X216344700Y-115983333D02*
X216297080Y-115935714D01*
X216297080Y-115935714D02*
X216201842Y-115888095D01*
X216201842Y-115888095D02*
X216011366Y-115840476D01*
X216011366Y-115840476D02*
X215773271Y-115840476D01*
X215773271Y-115840476D02*
X215582795Y-115888095D01*
X215582795Y-115888095D02*
X215487557Y-115935714D01*
X215487557Y-115935714D02*
X215439938Y-115983333D01*
X215439938Y-115983333D02*
X215392319Y-116078571D01*
X144954819Y-171085714D02*
X143954819Y-171085714D01*
X143954819Y-171085714D02*
X143954819Y-171323809D01*
X143954819Y-171323809D02*
X144002438Y-171466666D01*
X144002438Y-171466666D02*
X144097676Y-171561904D01*
X144097676Y-171561904D02*
X144192914Y-171609523D01*
X144192914Y-171609523D02*
X144383390Y-171657142D01*
X144383390Y-171657142D02*
X144526247Y-171657142D01*
X144526247Y-171657142D02*
X144716723Y-171609523D01*
X144716723Y-171609523D02*
X144811961Y-171561904D01*
X144811961Y-171561904D02*
X144907200Y-171466666D01*
X144907200Y-171466666D02*
X144954819Y-171323809D01*
X144954819Y-171323809D02*
X144954819Y-171085714D01*
X144288152Y-172514285D02*
X144954819Y-172514285D01*
X143907200Y-172276190D02*
X144621485Y-172038095D01*
X144621485Y-172038095D02*
X144621485Y-172657142D01*
X144383390Y-173180952D02*
X144335771Y-173085714D01*
X144335771Y-173085714D02*
X144288152Y-173038095D01*
X144288152Y-173038095D02*
X144192914Y-172990476D01*
X144192914Y-172990476D02*
X144145295Y-172990476D01*
X144145295Y-172990476D02*
X144050057Y-173038095D01*
X144050057Y-173038095D02*
X144002438Y-173085714D01*
X144002438Y-173085714D02*
X143954819Y-173180952D01*
X143954819Y-173180952D02*
X143954819Y-173371428D01*
X143954819Y-173371428D02*
X144002438Y-173466666D01*
X144002438Y-173466666D02*
X144050057Y-173514285D01*
X144050057Y-173514285D02*
X144145295Y-173561904D01*
X144145295Y-173561904D02*
X144192914Y-173561904D01*
X144192914Y-173561904D02*
X144288152Y-173514285D01*
X144288152Y-173514285D02*
X144335771Y-173466666D01*
X144335771Y-173466666D02*
X144383390Y-173371428D01*
X144383390Y-173371428D02*
X144383390Y-173180952D01*
X144383390Y-173180952D02*
X144431009Y-173085714D01*
X144431009Y-173085714D02*
X144478628Y-173038095D01*
X144478628Y-173038095D02*
X144573866Y-172990476D01*
X144573866Y-172990476D02*
X144764342Y-172990476D01*
X144764342Y-172990476D02*
X144859580Y-173038095D01*
X144859580Y-173038095D02*
X144907200Y-173085714D01*
X144907200Y-173085714D02*
X144954819Y-173180952D01*
X144954819Y-173180952D02*
X144954819Y-173371428D01*
X144954819Y-173371428D02*
X144907200Y-173466666D01*
X144907200Y-173466666D02*
X144859580Y-173514285D01*
X144859580Y-173514285D02*
X144764342Y-173561904D01*
X144764342Y-173561904D02*
X144573866Y-173561904D01*
X144573866Y-173561904D02*
X144478628Y-173514285D01*
X144478628Y-173514285D02*
X144431009Y-173466666D01*
X144431009Y-173466666D02*
X144383390Y-173371428D01*
X168767319Y-132985714D02*
X167767319Y-132985714D01*
X167767319Y-132985714D02*
X167767319Y-133223809D01*
X167767319Y-133223809D02*
X167814938Y-133366666D01*
X167814938Y-133366666D02*
X167910176Y-133461904D01*
X167910176Y-133461904D02*
X168005414Y-133509523D01*
X168005414Y-133509523D02*
X168195890Y-133557142D01*
X168195890Y-133557142D02*
X168338747Y-133557142D01*
X168338747Y-133557142D02*
X168529223Y-133509523D01*
X168529223Y-133509523D02*
X168624461Y-133461904D01*
X168624461Y-133461904D02*
X168719700Y-133366666D01*
X168719700Y-133366666D02*
X168767319Y-133223809D01*
X168767319Y-133223809D02*
X168767319Y-132985714D01*
X167862557Y-133938095D02*
X167814938Y-133985714D01*
X167814938Y-133985714D02*
X167767319Y-134080952D01*
X167767319Y-134080952D02*
X167767319Y-134319047D01*
X167767319Y-134319047D02*
X167814938Y-134414285D01*
X167814938Y-134414285D02*
X167862557Y-134461904D01*
X167862557Y-134461904D02*
X167957795Y-134509523D01*
X167957795Y-134509523D02*
X168053033Y-134509523D01*
X168053033Y-134509523D02*
X168195890Y-134461904D01*
X168195890Y-134461904D02*
X168767319Y-133890476D01*
X168767319Y-133890476D02*
X168767319Y-134509523D01*
X167862557Y-134890476D02*
X167814938Y-134938095D01*
X167814938Y-134938095D02*
X167767319Y-135033333D01*
X167767319Y-135033333D02*
X167767319Y-135271428D01*
X167767319Y-135271428D02*
X167814938Y-135366666D01*
X167814938Y-135366666D02*
X167862557Y-135414285D01*
X167862557Y-135414285D02*
X167957795Y-135461904D01*
X167957795Y-135461904D02*
X168053033Y-135461904D01*
X168053033Y-135461904D02*
X168195890Y-135414285D01*
X168195890Y-135414285D02*
X168767319Y-134842857D01*
X168767319Y-134842857D02*
X168767319Y-135461904D01*
X63992319Y-152035714D02*
X62992319Y-152035714D01*
X62992319Y-152035714D02*
X62992319Y-152273809D01*
X62992319Y-152273809D02*
X63039938Y-152416666D01*
X63039938Y-152416666D02*
X63135176Y-152511904D01*
X63135176Y-152511904D02*
X63230414Y-152559523D01*
X63230414Y-152559523D02*
X63420890Y-152607142D01*
X63420890Y-152607142D02*
X63563747Y-152607142D01*
X63563747Y-152607142D02*
X63754223Y-152559523D01*
X63754223Y-152559523D02*
X63849461Y-152511904D01*
X63849461Y-152511904D02*
X63944700Y-152416666D01*
X63944700Y-152416666D02*
X63992319Y-152273809D01*
X63992319Y-152273809D02*
X63992319Y-152035714D01*
X62992319Y-152940476D02*
X62992319Y-153559523D01*
X62992319Y-153559523D02*
X63373271Y-153226190D01*
X63373271Y-153226190D02*
X63373271Y-153369047D01*
X63373271Y-153369047D02*
X63420890Y-153464285D01*
X63420890Y-153464285D02*
X63468509Y-153511904D01*
X63468509Y-153511904D02*
X63563747Y-153559523D01*
X63563747Y-153559523D02*
X63801842Y-153559523D01*
X63801842Y-153559523D02*
X63897080Y-153511904D01*
X63897080Y-153511904D02*
X63944700Y-153464285D01*
X63944700Y-153464285D02*
X63992319Y-153369047D01*
X63992319Y-153369047D02*
X63992319Y-153083333D01*
X63992319Y-153083333D02*
X63944700Y-152988095D01*
X63944700Y-152988095D02*
X63897080Y-152940476D01*
X62992319Y-154178571D02*
X62992319Y-154273809D01*
X62992319Y-154273809D02*
X63039938Y-154369047D01*
X63039938Y-154369047D02*
X63087557Y-154416666D01*
X63087557Y-154416666D02*
X63182795Y-154464285D01*
X63182795Y-154464285D02*
X63373271Y-154511904D01*
X63373271Y-154511904D02*
X63611366Y-154511904D01*
X63611366Y-154511904D02*
X63801842Y-154464285D01*
X63801842Y-154464285D02*
X63897080Y-154416666D01*
X63897080Y-154416666D02*
X63944700Y-154369047D01*
X63944700Y-154369047D02*
X63992319Y-154273809D01*
X63992319Y-154273809D02*
X63992319Y-154178571D01*
X63992319Y-154178571D02*
X63944700Y-154083333D01*
X63944700Y-154083333D02*
X63897080Y-154035714D01*
X63897080Y-154035714D02*
X63801842Y-153988095D01*
X63801842Y-153988095D02*
X63611366Y-153940476D01*
X63611366Y-153940476D02*
X63373271Y-153940476D01*
X63373271Y-153940476D02*
X63182795Y-153988095D01*
X63182795Y-153988095D02*
X63087557Y-154035714D01*
X63087557Y-154035714D02*
X63039938Y-154083333D01*
X63039938Y-154083333D02*
X62992319Y-154178571D01*
X302117319Y-209185714D02*
X301117319Y-209185714D01*
X301117319Y-209185714D02*
X301117319Y-209423809D01*
X301117319Y-209423809D02*
X301164938Y-209566666D01*
X301164938Y-209566666D02*
X301260176Y-209661904D01*
X301260176Y-209661904D02*
X301355414Y-209709523D01*
X301355414Y-209709523D02*
X301545890Y-209757142D01*
X301545890Y-209757142D02*
X301688747Y-209757142D01*
X301688747Y-209757142D02*
X301879223Y-209709523D01*
X301879223Y-209709523D02*
X301974461Y-209661904D01*
X301974461Y-209661904D02*
X302069700Y-209566666D01*
X302069700Y-209566666D02*
X302117319Y-209423809D01*
X302117319Y-209423809D02*
X302117319Y-209185714D01*
X301117319Y-210090476D02*
X301117319Y-210757142D01*
X301117319Y-210757142D02*
X302117319Y-210328571D01*
X301545890Y-211280952D02*
X301498271Y-211185714D01*
X301498271Y-211185714D02*
X301450652Y-211138095D01*
X301450652Y-211138095D02*
X301355414Y-211090476D01*
X301355414Y-211090476D02*
X301307795Y-211090476D01*
X301307795Y-211090476D02*
X301212557Y-211138095D01*
X301212557Y-211138095D02*
X301164938Y-211185714D01*
X301164938Y-211185714D02*
X301117319Y-211280952D01*
X301117319Y-211280952D02*
X301117319Y-211471428D01*
X301117319Y-211471428D02*
X301164938Y-211566666D01*
X301164938Y-211566666D02*
X301212557Y-211614285D01*
X301212557Y-211614285D02*
X301307795Y-211661904D01*
X301307795Y-211661904D02*
X301355414Y-211661904D01*
X301355414Y-211661904D02*
X301450652Y-211614285D01*
X301450652Y-211614285D02*
X301498271Y-211566666D01*
X301498271Y-211566666D02*
X301545890Y-211471428D01*
X301545890Y-211471428D02*
X301545890Y-211280952D01*
X301545890Y-211280952D02*
X301593509Y-211185714D01*
X301593509Y-211185714D02*
X301641128Y-211138095D01*
X301641128Y-211138095D02*
X301736366Y-211090476D01*
X301736366Y-211090476D02*
X301926842Y-211090476D01*
X301926842Y-211090476D02*
X302022080Y-211138095D01*
X302022080Y-211138095D02*
X302069700Y-211185714D01*
X302069700Y-211185714D02*
X302117319Y-211280952D01*
X302117319Y-211280952D02*
X302117319Y-211471428D01*
X302117319Y-211471428D02*
X302069700Y-211566666D01*
X302069700Y-211566666D02*
X302022080Y-211614285D01*
X302022080Y-211614285D02*
X301926842Y-211661904D01*
X301926842Y-211661904D02*
X301736366Y-211661904D01*
X301736366Y-211661904D02*
X301641128Y-211614285D01*
X301641128Y-211614285D02*
X301593509Y-211566666D01*
X301593509Y-211566666D02*
X301545890Y-211471428D01*
X37798569Y-209185714D02*
X36798569Y-209185714D01*
X36798569Y-209185714D02*
X36798569Y-209423809D01*
X36798569Y-209423809D02*
X36846188Y-209566666D01*
X36846188Y-209566666D02*
X36941426Y-209661904D01*
X36941426Y-209661904D02*
X37036664Y-209709523D01*
X37036664Y-209709523D02*
X37227140Y-209757142D01*
X37227140Y-209757142D02*
X37369997Y-209757142D01*
X37369997Y-209757142D02*
X37560473Y-209709523D01*
X37560473Y-209709523D02*
X37655711Y-209661904D01*
X37655711Y-209661904D02*
X37750950Y-209566666D01*
X37750950Y-209566666D02*
X37798569Y-209423809D01*
X37798569Y-209423809D02*
X37798569Y-209185714D01*
X36798569Y-210090476D02*
X36798569Y-210757142D01*
X36798569Y-210757142D02*
X37798569Y-210328571D01*
X36798569Y-211328571D02*
X36798569Y-211423809D01*
X36798569Y-211423809D02*
X36846188Y-211519047D01*
X36846188Y-211519047D02*
X36893807Y-211566666D01*
X36893807Y-211566666D02*
X36989045Y-211614285D01*
X36989045Y-211614285D02*
X37179521Y-211661904D01*
X37179521Y-211661904D02*
X37417616Y-211661904D01*
X37417616Y-211661904D02*
X37608092Y-211614285D01*
X37608092Y-211614285D02*
X37703330Y-211566666D01*
X37703330Y-211566666D02*
X37750950Y-211519047D01*
X37750950Y-211519047D02*
X37798569Y-211423809D01*
X37798569Y-211423809D02*
X37798569Y-211328571D01*
X37798569Y-211328571D02*
X37750950Y-211233333D01*
X37750950Y-211233333D02*
X37703330Y-211185714D01*
X37703330Y-211185714D02*
X37608092Y-211138095D01*
X37608092Y-211138095D02*
X37417616Y-211090476D01*
X37417616Y-211090476D02*
X37179521Y-211090476D01*
X37179521Y-211090476D02*
X36989045Y-211138095D01*
X36989045Y-211138095D02*
X36893807Y-211185714D01*
X36893807Y-211185714D02*
X36846188Y-211233333D01*
X36846188Y-211233333D02*
X36798569Y-211328571D01*
X192579819Y-190135714D02*
X191579819Y-190135714D01*
X191579819Y-190135714D02*
X191579819Y-190373809D01*
X191579819Y-190373809D02*
X191627438Y-190516666D01*
X191627438Y-190516666D02*
X191722676Y-190611904D01*
X191722676Y-190611904D02*
X191817914Y-190659523D01*
X191817914Y-190659523D02*
X192008390Y-190707142D01*
X192008390Y-190707142D02*
X192151247Y-190707142D01*
X192151247Y-190707142D02*
X192341723Y-190659523D01*
X192341723Y-190659523D02*
X192436961Y-190611904D01*
X192436961Y-190611904D02*
X192532200Y-190516666D01*
X192532200Y-190516666D02*
X192579819Y-190373809D01*
X192579819Y-190373809D02*
X192579819Y-190135714D01*
X191579819Y-191564285D02*
X191579819Y-191373809D01*
X191579819Y-191373809D02*
X191627438Y-191278571D01*
X191627438Y-191278571D02*
X191675057Y-191230952D01*
X191675057Y-191230952D02*
X191817914Y-191135714D01*
X191817914Y-191135714D02*
X192008390Y-191088095D01*
X192008390Y-191088095D02*
X192389342Y-191088095D01*
X192389342Y-191088095D02*
X192484580Y-191135714D01*
X192484580Y-191135714D02*
X192532200Y-191183333D01*
X192532200Y-191183333D02*
X192579819Y-191278571D01*
X192579819Y-191278571D02*
X192579819Y-191469047D01*
X192579819Y-191469047D02*
X192532200Y-191564285D01*
X192532200Y-191564285D02*
X192484580Y-191611904D01*
X192484580Y-191611904D02*
X192389342Y-191659523D01*
X192389342Y-191659523D02*
X192151247Y-191659523D01*
X192151247Y-191659523D02*
X192056009Y-191611904D01*
X192056009Y-191611904D02*
X192008390Y-191564285D01*
X192008390Y-191564285D02*
X191960771Y-191469047D01*
X191960771Y-191469047D02*
X191960771Y-191278571D01*
X191960771Y-191278571D02*
X192008390Y-191183333D01*
X192008390Y-191183333D02*
X192056009Y-191135714D01*
X192056009Y-191135714D02*
X192151247Y-191088095D01*
X191579819Y-191992857D02*
X191579819Y-192611904D01*
X191579819Y-192611904D02*
X191960771Y-192278571D01*
X191960771Y-192278571D02*
X191960771Y-192421428D01*
X191960771Y-192421428D02*
X192008390Y-192516666D01*
X192008390Y-192516666D02*
X192056009Y-192564285D01*
X192056009Y-192564285D02*
X192151247Y-192611904D01*
X192151247Y-192611904D02*
X192389342Y-192611904D01*
X192389342Y-192611904D02*
X192484580Y-192564285D01*
X192484580Y-192564285D02*
X192532200Y-192516666D01*
X192532200Y-192516666D02*
X192579819Y-192421428D01*
X192579819Y-192421428D02*
X192579819Y-192135714D01*
X192579819Y-192135714D02*
X192532200Y-192040476D01*
X192532200Y-192040476D02*
X192484580Y-191992857D01*
X135429819Y-190135714D02*
X134429819Y-190135714D01*
X134429819Y-190135714D02*
X134429819Y-190373809D01*
X134429819Y-190373809D02*
X134477438Y-190516666D01*
X134477438Y-190516666D02*
X134572676Y-190611904D01*
X134572676Y-190611904D02*
X134667914Y-190659523D01*
X134667914Y-190659523D02*
X134858390Y-190707142D01*
X134858390Y-190707142D02*
X135001247Y-190707142D01*
X135001247Y-190707142D02*
X135191723Y-190659523D01*
X135191723Y-190659523D02*
X135286961Y-190611904D01*
X135286961Y-190611904D02*
X135382200Y-190516666D01*
X135382200Y-190516666D02*
X135429819Y-190373809D01*
X135429819Y-190373809D02*
X135429819Y-190135714D01*
X134429819Y-191564285D02*
X134429819Y-191373809D01*
X134429819Y-191373809D02*
X134477438Y-191278571D01*
X134477438Y-191278571D02*
X134525057Y-191230952D01*
X134525057Y-191230952D02*
X134667914Y-191135714D01*
X134667914Y-191135714D02*
X134858390Y-191088095D01*
X134858390Y-191088095D02*
X135239342Y-191088095D01*
X135239342Y-191088095D02*
X135334580Y-191135714D01*
X135334580Y-191135714D02*
X135382200Y-191183333D01*
X135382200Y-191183333D02*
X135429819Y-191278571D01*
X135429819Y-191278571D02*
X135429819Y-191469047D01*
X135429819Y-191469047D02*
X135382200Y-191564285D01*
X135382200Y-191564285D02*
X135334580Y-191611904D01*
X135334580Y-191611904D02*
X135239342Y-191659523D01*
X135239342Y-191659523D02*
X135001247Y-191659523D01*
X135001247Y-191659523D02*
X134906009Y-191611904D01*
X134906009Y-191611904D02*
X134858390Y-191564285D01*
X134858390Y-191564285D02*
X134810771Y-191469047D01*
X134810771Y-191469047D02*
X134810771Y-191278571D01*
X134810771Y-191278571D02*
X134858390Y-191183333D01*
X134858390Y-191183333D02*
X134906009Y-191135714D01*
X134906009Y-191135714D02*
X135001247Y-191088095D01*
X134429819Y-192278571D02*
X134429819Y-192373809D01*
X134429819Y-192373809D02*
X134477438Y-192469047D01*
X134477438Y-192469047D02*
X134525057Y-192516666D01*
X134525057Y-192516666D02*
X134620295Y-192564285D01*
X134620295Y-192564285D02*
X134810771Y-192611904D01*
X134810771Y-192611904D02*
X135048866Y-192611904D01*
X135048866Y-192611904D02*
X135239342Y-192564285D01*
X135239342Y-192564285D02*
X135334580Y-192516666D01*
X135334580Y-192516666D02*
X135382200Y-192469047D01*
X135382200Y-192469047D02*
X135429819Y-192373809D01*
X135429819Y-192373809D02*
X135429819Y-192278571D01*
X135429819Y-192278571D02*
X135382200Y-192183333D01*
X135382200Y-192183333D02*
X135334580Y-192135714D01*
X135334580Y-192135714D02*
X135239342Y-192088095D01*
X135239342Y-192088095D02*
X135048866Y-192040476D01*
X135048866Y-192040476D02*
X134810771Y-192040476D01*
X134810771Y-192040476D02*
X134620295Y-192088095D01*
X134620295Y-192088095D02*
X134525057Y-192135714D01*
X134525057Y-192135714D02*
X134477438Y-192183333D01*
X134477438Y-192183333D02*
X134429819Y-192278571D01*
X259254819Y-171085714D02*
X258254819Y-171085714D01*
X258254819Y-171085714D02*
X258254819Y-171323809D01*
X258254819Y-171323809D02*
X258302438Y-171466666D01*
X258302438Y-171466666D02*
X258397676Y-171561904D01*
X258397676Y-171561904D02*
X258492914Y-171609523D01*
X258492914Y-171609523D02*
X258683390Y-171657142D01*
X258683390Y-171657142D02*
X258826247Y-171657142D01*
X258826247Y-171657142D02*
X259016723Y-171609523D01*
X259016723Y-171609523D02*
X259111961Y-171561904D01*
X259111961Y-171561904D02*
X259207200Y-171466666D01*
X259207200Y-171466666D02*
X259254819Y-171323809D01*
X259254819Y-171323809D02*
X259254819Y-171085714D01*
X258254819Y-172561904D02*
X258254819Y-172085714D01*
X258254819Y-172085714D02*
X258731009Y-172038095D01*
X258731009Y-172038095D02*
X258683390Y-172085714D01*
X258683390Y-172085714D02*
X258635771Y-172180952D01*
X258635771Y-172180952D02*
X258635771Y-172419047D01*
X258635771Y-172419047D02*
X258683390Y-172514285D01*
X258683390Y-172514285D02*
X258731009Y-172561904D01*
X258731009Y-172561904D02*
X258826247Y-172609523D01*
X258826247Y-172609523D02*
X259064342Y-172609523D01*
X259064342Y-172609523D02*
X259159580Y-172561904D01*
X259159580Y-172561904D02*
X259207200Y-172514285D01*
X259207200Y-172514285D02*
X259254819Y-172419047D01*
X259254819Y-172419047D02*
X259254819Y-172180952D01*
X259254819Y-172180952D02*
X259207200Y-172085714D01*
X259207200Y-172085714D02*
X259159580Y-172038095D01*
X258588152Y-173466666D02*
X259254819Y-173466666D01*
X258207200Y-173228571D02*
X258921485Y-172990476D01*
X258921485Y-172990476D02*
X258921485Y-173609523D01*
X264017319Y-209185714D02*
X263017319Y-209185714D01*
X263017319Y-209185714D02*
X263017319Y-209423809D01*
X263017319Y-209423809D02*
X263064938Y-209566666D01*
X263064938Y-209566666D02*
X263160176Y-209661904D01*
X263160176Y-209661904D02*
X263255414Y-209709523D01*
X263255414Y-209709523D02*
X263445890Y-209757142D01*
X263445890Y-209757142D02*
X263588747Y-209757142D01*
X263588747Y-209757142D02*
X263779223Y-209709523D01*
X263779223Y-209709523D02*
X263874461Y-209661904D01*
X263874461Y-209661904D02*
X263969700Y-209566666D01*
X263969700Y-209566666D02*
X264017319Y-209423809D01*
X264017319Y-209423809D02*
X264017319Y-209185714D01*
X263017319Y-210090476D02*
X263017319Y-210757142D01*
X263017319Y-210757142D02*
X264017319Y-210328571D01*
X263017319Y-211566666D02*
X263017319Y-211376190D01*
X263017319Y-211376190D02*
X263064938Y-211280952D01*
X263064938Y-211280952D02*
X263112557Y-211233333D01*
X263112557Y-211233333D02*
X263255414Y-211138095D01*
X263255414Y-211138095D02*
X263445890Y-211090476D01*
X263445890Y-211090476D02*
X263826842Y-211090476D01*
X263826842Y-211090476D02*
X263922080Y-211138095D01*
X263922080Y-211138095D02*
X263969700Y-211185714D01*
X263969700Y-211185714D02*
X264017319Y-211280952D01*
X264017319Y-211280952D02*
X264017319Y-211471428D01*
X264017319Y-211471428D02*
X263969700Y-211566666D01*
X263969700Y-211566666D02*
X263922080Y-211614285D01*
X263922080Y-211614285D02*
X263826842Y-211661904D01*
X263826842Y-211661904D02*
X263588747Y-211661904D01*
X263588747Y-211661904D02*
X263493509Y-211614285D01*
X263493509Y-211614285D02*
X263445890Y-211566666D01*
X263445890Y-211566666D02*
X263398271Y-211471428D01*
X263398271Y-211471428D02*
X263398271Y-211280952D01*
X263398271Y-211280952D02*
X263445890Y-211185714D01*
X263445890Y-211185714D02*
X263493509Y-211138095D01*
X263493509Y-211138095D02*
X263588747Y-211090476D01*
X290211069Y-171085714D02*
X289211069Y-171085714D01*
X289211069Y-171085714D02*
X289211069Y-171323809D01*
X289211069Y-171323809D02*
X289258688Y-171466666D01*
X289258688Y-171466666D02*
X289353926Y-171561904D01*
X289353926Y-171561904D02*
X289449164Y-171609523D01*
X289449164Y-171609523D02*
X289639640Y-171657142D01*
X289639640Y-171657142D02*
X289782497Y-171657142D01*
X289782497Y-171657142D02*
X289972973Y-171609523D01*
X289972973Y-171609523D02*
X290068211Y-171561904D01*
X290068211Y-171561904D02*
X290163450Y-171466666D01*
X290163450Y-171466666D02*
X290211069Y-171323809D01*
X290211069Y-171323809D02*
X290211069Y-171085714D01*
X289211069Y-172561904D02*
X289211069Y-172085714D01*
X289211069Y-172085714D02*
X289687259Y-172038095D01*
X289687259Y-172038095D02*
X289639640Y-172085714D01*
X289639640Y-172085714D02*
X289592021Y-172180952D01*
X289592021Y-172180952D02*
X289592021Y-172419047D01*
X289592021Y-172419047D02*
X289639640Y-172514285D01*
X289639640Y-172514285D02*
X289687259Y-172561904D01*
X289687259Y-172561904D02*
X289782497Y-172609523D01*
X289782497Y-172609523D02*
X290020592Y-172609523D01*
X290020592Y-172609523D02*
X290115830Y-172561904D01*
X290115830Y-172561904D02*
X290163450Y-172514285D01*
X290163450Y-172514285D02*
X290211069Y-172419047D01*
X290211069Y-172419047D02*
X290211069Y-172180952D01*
X290211069Y-172180952D02*
X290163450Y-172085714D01*
X290163450Y-172085714D02*
X290115830Y-172038095D01*
X289211069Y-173514285D02*
X289211069Y-173038095D01*
X289211069Y-173038095D02*
X289687259Y-172990476D01*
X289687259Y-172990476D02*
X289639640Y-173038095D01*
X289639640Y-173038095D02*
X289592021Y-173133333D01*
X289592021Y-173133333D02*
X289592021Y-173371428D01*
X289592021Y-173371428D02*
X289639640Y-173466666D01*
X289639640Y-173466666D02*
X289687259Y-173514285D01*
X289687259Y-173514285D02*
X289782497Y-173561904D01*
X289782497Y-173561904D02*
X290020592Y-173561904D01*
X290020592Y-173561904D02*
X290115830Y-173514285D01*
X290115830Y-173514285D02*
X290163450Y-173466666D01*
X290163450Y-173466666D02*
X290211069Y-173371428D01*
X290211069Y-173371428D02*
X290211069Y-173133333D01*
X290211069Y-173133333D02*
X290163450Y-173038095D01*
X290163450Y-173038095D02*
X290115830Y-172990476D01*
X85423569Y-209185714D02*
X84423569Y-209185714D01*
X84423569Y-209185714D02*
X84423569Y-209423809D01*
X84423569Y-209423809D02*
X84471188Y-209566666D01*
X84471188Y-209566666D02*
X84566426Y-209661904D01*
X84566426Y-209661904D02*
X84661664Y-209709523D01*
X84661664Y-209709523D02*
X84852140Y-209757142D01*
X84852140Y-209757142D02*
X84994997Y-209757142D01*
X84994997Y-209757142D02*
X85185473Y-209709523D01*
X85185473Y-209709523D02*
X85280711Y-209661904D01*
X85280711Y-209661904D02*
X85375950Y-209566666D01*
X85375950Y-209566666D02*
X85423569Y-209423809D01*
X85423569Y-209423809D02*
X85423569Y-209185714D01*
X84423569Y-210090476D02*
X84423569Y-210757142D01*
X84423569Y-210757142D02*
X85423569Y-210328571D01*
X84518807Y-211090476D02*
X84471188Y-211138095D01*
X84471188Y-211138095D02*
X84423569Y-211233333D01*
X84423569Y-211233333D02*
X84423569Y-211471428D01*
X84423569Y-211471428D02*
X84471188Y-211566666D01*
X84471188Y-211566666D02*
X84518807Y-211614285D01*
X84518807Y-211614285D02*
X84614045Y-211661904D01*
X84614045Y-211661904D02*
X84709283Y-211661904D01*
X84709283Y-211661904D02*
X84852140Y-211614285D01*
X84852140Y-211614285D02*
X85423569Y-211042857D01*
X85423569Y-211042857D02*
X85423569Y-211661904D01*
X47323569Y-190135714D02*
X46323569Y-190135714D01*
X46323569Y-190135714D02*
X46323569Y-190373809D01*
X46323569Y-190373809D02*
X46371188Y-190516666D01*
X46371188Y-190516666D02*
X46466426Y-190611904D01*
X46466426Y-190611904D02*
X46561664Y-190659523D01*
X46561664Y-190659523D02*
X46752140Y-190707142D01*
X46752140Y-190707142D02*
X46894997Y-190707142D01*
X46894997Y-190707142D02*
X47085473Y-190659523D01*
X47085473Y-190659523D02*
X47180711Y-190611904D01*
X47180711Y-190611904D02*
X47275950Y-190516666D01*
X47275950Y-190516666D02*
X47323569Y-190373809D01*
X47323569Y-190373809D02*
X47323569Y-190135714D01*
X46323569Y-191611904D02*
X46323569Y-191135714D01*
X46323569Y-191135714D02*
X46799759Y-191088095D01*
X46799759Y-191088095D02*
X46752140Y-191135714D01*
X46752140Y-191135714D02*
X46704521Y-191230952D01*
X46704521Y-191230952D02*
X46704521Y-191469047D01*
X46704521Y-191469047D02*
X46752140Y-191564285D01*
X46752140Y-191564285D02*
X46799759Y-191611904D01*
X46799759Y-191611904D02*
X46894997Y-191659523D01*
X46894997Y-191659523D02*
X47133092Y-191659523D01*
X47133092Y-191659523D02*
X47228330Y-191611904D01*
X47228330Y-191611904D02*
X47275950Y-191564285D01*
X47275950Y-191564285D02*
X47323569Y-191469047D01*
X47323569Y-191469047D02*
X47323569Y-191230952D01*
X47323569Y-191230952D02*
X47275950Y-191135714D01*
X47275950Y-191135714D02*
X47228330Y-191088095D01*
X46323569Y-192516666D02*
X46323569Y-192326190D01*
X46323569Y-192326190D02*
X46371188Y-192230952D01*
X46371188Y-192230952D02*
X46418807Y-192183333D01*
X46418807Y-192183333D02*
X46561664Y-192088095D01*
X46561664Y-192088095D02*
X46752140Y-192040476D01*
X46752140Y-192040476D02*
X47133092Y-192040476D01*
X47133092Y-192040476D02*
X47228330Y-192088095D01*
X47228330Y-192088095D02*
X47275950Y-192135714D01*
X47275950Y-192135714D02*
X47323569Y-192230952D01*
X47323569Y-192230952D02*
X47323569Y-192421428D01*
X47323569Y-192421428D02*
X47275950Y-192516666D01*
X47275950Y-192516666D02*
X47228330Y-192564285D01*
X47228330Y-192564285D02*
X47133092Y-192611904D01*
X47133092Y-192611904D02*
X46894997Y-192611904D01*
X46894997Y-192611904D02*
X46799759Y-192564285D01*
X46799759Y-192564285D02*
X46752140Y-192516666D01*
X46752140Y-192516666D02*
X46704521Y-192421428D01*
X46704521Y-192421428D02*
X46704521Y-192230952D01*
X46704521Y-192230952D02*
X46752140Y-192135714D01*
X46752140Y-192135714D02*
X46799759Y-192088095D01*
X46799759Y-192088095D02*
X46894997Y-192040476D01*
X173529819Y-190135714D02*
X172529819Y-190135714D01*
X172529819Y-190135714D02*
X172529819Y-190373809D01*
X172529819Y-190373809D02*
X172577438Y-190516666D01*
X172577438Y-190516666D02*
X172672676Y-190611904D01*
X172672676Y-190611904D02*
X172767914Y-190659523D01*
X172767914Y-190659523D02*
X172958390Y-190707142D01*
X172958390Y-190707142D02*
X173101247Y-190707142D01*
X173101247Y-190707142D02*
X173291723Y-190659523D01*
X173291723Y-190659523D02*
X173386961Y-190611904D01*
X173386961Y-190611904D02*
X173482200Y-190516666D01*
X173482200Y-190516666D02*
X173529819Y-190373809D01*
X173529819Y-190373809D02*
X173529819Y-190135714D01*
X172529819Y-191564285D02*
X172529819Y-191373809D01*
X172529819Y-191373809D02*
X172577438Y-191278571D01*
X172577438Y-191278571D02*
X172625057Y-191230952D01*
X172625057Y-191230952D02*
X172767914Y-191135714D01*
X172767914Y-191135714D02*
X172958390Y-191088095D01*
X172958390Y-191088095D02*
X173339342Y-191088095D01*
X173339342Y-191088095D02*
X173434580Y-191135714D01*
X173434580Y-191135714D02*
X173482200Y-191183333D01*
X173482200Y-191183333D02*
X173529819Y-191278571D01*
X173529819Y-191278571D02*
X173529819Y-191469047D01*
X173529819Y-191469047D02*
X173482200Y-191564285D01*
X173482200Y-191564285D02*
X173434580Y-191611904D01*
X173434580Y-191611904D02*
X173339342Y-191659523D01*
X173339342Y-191659523D02*
X173101247Y-191659523D01*
X173101247Y-191659523D02*
X173006009Y-191611904D01*
X173006009Y-191611904D02*
X172958390Y-191564285D01*
X172958390Y-191564285D02*
X172910771Y-191469047D01*
X172910771Y-191469047D02*
X172910771Y-191278571D01*
X172910771Y-191278571D02*
X172958390Y-191183333D01*
X172958390Y-191183333D02*
X173006009Y-191135714D01*
X173006009Y-191135714D02*
X173101247Y-191088095D01*
X172625057Y-192040476D02*
X172577438Y-192088095D01*
X172577438Y-192088095D02*
X172529819Y-192183333D01*
X172529819Y-192183333D02*
X172529819Y-192421428D01*
X172529819Y-192421428D02*
X172577438Y-192516666D01*
X172577438Y-192516666D02*
X172625057Y-192564285D01*
X172625057Y-192564285D02*
X172720295Y-192611904D01*
X172720295Y-192611904D02*
X172815533Y-192611904D01*
X172815533Y-192611904D02*
X172958390Y-192564285D01*
X172958390Y-192564285D02*
X173529819Y-191992857D01*
X173529819Y-191992857D02*
X173529819Y-192611904D01*
X244967319Y-209185714D02*
X243967319Y-209185714D01*
X243967319Y-209185714D02*
X243967319Y-209423809D01*
X243967319Y-209423809D02*
X244014938Y-209566666D01*
X244014938Y-209566666D02*
X244110176Y-209661904D01*
X244110176Y-209661904D02*
X244205414Y-209709523D01*
X244205414Y-209709523D02*
X244395890Y-209757142D01*
X244395890Y-209757142D02*
X244538747Y-209757142D01*
X244538747Y-209757142D02*
X244729223Y-209709523D01*
X244729223Y-209709523D02*
X244824461Y-209661904D01*
X244824461Y-209661904D02*
X244919700Y-209566666D01*
X244919700Y-209566666D02*
X244967319Y-209423809D01*
X244967319Y-209423809D02*
X244967319Y-209185714D01*
X243967319Y-210090476D02*
X243967319Y-210757142D01*
X243967319Y-210757142D02*
X244967319Y-210328571D01*
X243967319Y-211614285D02*
X243967319Y-211138095D01*
X243967319Y-211138095D02*
X244443509Y-211090476D01*
X244443509Y-211090476D02*
X244395890Y-211138095D01*
X244395890Y-211138095D02*
X244348271Y-211233333D01*
X244348271Y-211233333D02*
X244348271Y-211471428D01*
X244348271Y-211471428D02*
X244395890Y-211566666D01*
X244395890Y-211566666D02*
X244443509Y-211614285D01*
X244443509Y-211614285D02*
X244538747Y-211661904D01*
X244538747Y-211661904D02*
X244776842Y-211661904D01*
X244776842Y-211661904D02*
X244872080Y-211614285D01*
X244872080Y-211614285D02*
X244919700Y-211566666D01*
X244919700Y-211566666D02*
X244967319Y-211471428D01*
X244967319Y-211471428D02*
X244967319Y-211233333D01*
X244967319Y-211233333D02*
X244919700Y-211138095D01*
X244919700Y-211138095D02*
X244872080Y-211090476D01*
X106854819Y-171085714D02*
X105854819Y-171085714D01*
X105854819Y-171085714D02*
X105854819Y-171323809D01*
X105854819Y-171323809D02*
X105902438Y-171466666D01*
X105902438Y-171466666D02*
X105997676Y-171561904D01*
X105997676Y-171561904D02*
X106092914Y-171609523D01*
X106092914Y-171609523D02*
X106283390Y-171657142D01*
X106283390Y-171657142D02*
X106426247Y-171657142D01*
X106426247Y-171657142D02*
X106616723Y-171609523D01*
X106616723Y-171609523D02*
X106711961Y-171561904D01*
X106711961Y-171561904D02*
X106807200Y-171466666D01*
X106807200Y-171466666D02*
X106854819Y-171323809D01*
X106854819Y-171323809D02*
X106854819Y-171085714D01*
X106188152Y-172514285D02*
X106854819Y-172514285D01*
X105807200Y-172276190D02*
X106521485Y-172038095D01*
X106521485Y-172038095D02*
X106521485Y-172657142D01*
X105854819Y-173466666D02*
X105854819Y-173276190D01*
X105854819Y-173276190D02*
X105902438Y-173180952D01*
X105902438Y-173180952D02*
X105950057Y-173133333D01*
X105950057Y-173133333D02*
X106092914Y-173038095D01*
X106092914Y-173038095D02*
X106283390Y-172990476D01*
X106283390Y-172990476D02*
X106664342Y-172990476D01*
X106664342Y-172990476D02*
X106759580Y-173038095D01*
X106759580Y-173038095D02*
X106807200Y-173085714D01*
X106807200Y-173085714D02*
X106854819Y-173180952D01*
X106854819Y-173180952D02*
X106854819Y-173371428D01*
X106854819Y-173371428D02*
X106807200Y-173466666D01*
X106807200Y-173466666D02*
X106759580Y-173514285D01*
X106759580Y-173514285D02*
X106664342Y-173561904D01*
X106664342Y-173561904D02*
X106426247Y-173561904D01*
X106426247Y-173561904D02*
X106331009Y-173514285D01*
X106331009Y-173514285D02*
X106283390Y-173466666D01*
X106283390Y-173466666D02*
X106235771Y-173371428D01*
X106235771Y-173371428D02*
X106235771Y-173180952D01*
X106235771Y-173180952D02*
X106283390Y-173085714D01*
X106283390Y-173085714D02*
X106331009Y-173038095D01*
X106331009Y-173038095D02*
X106426247Y-172990476D01*
X202104819Y-171085714D02*
X201104819Y-171085714D01*
X201104819Y-171085714D02*
X201104819Y-171323809D01*
X201104819Y-171323809D02*
X201152438Y-171466666D01*
X201152438Y-171466666D02*
X201247676Y-171561904D01*
X201247676Y-171561904D02*
X201342914Y-171609523D01*
X201342914Y-171609523D02*
X201533390Y-171657142D01*
X201533390Y-171657142D02*
X201676247Y-171657142D01*
X201676247Y-171657142D02*
X201866723Y-171609523D01*
X201866723Y-171609523D02*
X201961961Y-171561904D01*
X201961961Y-171561904D02*
X202057200Y-171466666D01*
X202057200Y-171466666D02*
X202104819Y-171323809D01*
X202104819Y-171323809D02*
X202104819Y-171085714D01*
X201104819Y-172561904D02*
X201104819Y-172085714D01*
X201104819Y-172085714D02*
X201581009Y-172038095D01*
X201581009Y-172038095D02*
X201533390Y-172085714D01*
X201533390Y-172085714D02*
X201485771Y-172180952D01*
X201485771Y-172180952D02*
X201485771Y-172419047D01*
X201485771Y-172419047D02*
X201533390Y-172514285D01*
X201533390Y-172514285D02*
X201581009Y-172561904D01*
X201581009Y-172561904D02*
X201676247Y-172609523D01*
X201676247Y-172609523D02*
X201914342Y-172609523D01*
X201914342Y-172609523D02*
X202009580Y-172561904D01*
X202009580Y-172561904D02*
X202057200Y-172514285D01*
X202057200Y-172514285D02*
X202104819Y-172419047D01*
X202104819Y-172419047D02*
X202104819Y-172180952D01*
X202104819Y-172180952D02*
X202057200Y-172085714D01*
X202057200Y-172085714D02*
X202009580Y-172038095D01*
X202104819Y-173561904D02*
X202104819Y-172990476D01*
X202104819Y-173276190D02*
X201104819Y-173276190D01*
X201104819Y-173276190D02*
X201247676Y-173180952D01*
X201247676Y-173180952D02*
X201342914Y-173085714D01*
X201342914Y-173085714D02*
X201390533Y-172990476D01*
X235442319Y-113935714D02*
X234442319Y-113935714D01*
X234442319Y-113935714D02*
X234442319Y-114173809D01*
X234442319Y-114173809D02*
X234489938Y-114316666D01*
X234489938Y-114316666D02*
X234585176Y-114411904D01*
X234585176Y-114411904D02*
X234680414Y-114459523D01*
X234680414Y-114459523D02*
X234870890Y-114507142D01*
X234870890Y-114507142D02*
X235013747Y-114507142D01*
X235013747Y-114507142D02*
X235204223Y-114459523D01*
X235204223Y-114459523D02*
X235299461Y-114411904D01*
X235299461Y-114411904D02*
X235394700Y-114316666D01*
X235394700Y-114316666D02*
X235442319Y-114173809D01*
X235442319Y-114173809D02*
X235442319Y-113935714D01*
X235442319Y-115459523D02*
X235442319Y-114888095D01*
X235442319Y-115173809D02*
X234442319Y-115173809D01*
X234442319Y-115173809D02*
X234585176Y-115078571D01*
X234585176Y-115078571D02*
X234680414Y-114983333D01*
X234680414Y-114983333D02*
X234728033Y-114888095D01*
X235442319Y-116411904D02*
X235442319Y-115840476D01*
X235442319Y-116126190D02*
X234442319Y-116126190D01*
X234442319Y-116126190D02*
X234585176Y-116030952D01*
X234585176Y-116030952D02*
X234680414Y-115935714D01*
X234680414Y-115935714D02*
X234728033Y-115840476D01*
X221154819Y-171085714D02*
X220154819Y-171085714D01*
X220154819Y-171085714D02*
X220154819Y-171323809D01*
X220154819Y-171323809D02*
X220202438Y-171466666D01*
X220202438Y-171466666D02*
X220297676Y-171561904D01*
X220297676Y-171561904D02*
X220392914Y-171609523D01*
X220392914Y-171609523D02*
X220583390Y-171657142D01*
X220583390Y-171657142D02*
X220726247Y-171657142D01*
X220726247Y-171657142D02*
X220916723Y-171609523D01*
X220916723Y-171609523D02*
X221011961Y-171561904D01*
X221011961Y-171561904D02*
X221107200Y-171466666D01*
X221107200Y-171466666D02*
X221154819Y-171323809D01*
X221154819Y-171323809D02*
X221154819Y-171085714D01*
X220154819Y-172561904D02*
X220154819Y-172085714D01*
X220154819Y-172085714D02*
X220631009Y-172038095D01*
X220631009Y-172038095D02*
X220583390Y-172085714D01*
X220583390Y-172085714D02*
X220535771Y-172180952D01*
X220535771Y-172180952D02*
X220535771Y-172419047D01*
X220535771Y-172419047D02*
X220583390Y-172514285D01*
X220583390Y-172514285D02*
X220631009Y-172561904D01*
X220631009Y-172561904D02*
X220726247Y-172609523D01*
X220726247Y-172609523D02*
X220964342Y-172609523D01*
X220964342Y-172609523D02*
X221059580Y-172561904D01*
X221059580Y-172561904D02*
X221107200Y-172514285D01*
X221107200Y-172514285D02*
X221154819Y-172419047D01*
X221154819Y-172419047D02*
X221154819Y-172180952D01*
X221154819Y-172180952D02*
X221107200Y-172085714D01*
X221107200Y-172085714D02*
X221059580Y-172038095D01*
X220250057Y-172990476D02*
X220202438Y-173038095D01*
X220202438Y-173038095D02*
X220154819Y-173133333D01*
X220154819Y-173133333D02*
X220154819Y-173371428D01*
X220154819Y-173371428D02*
X220202438Y-173466666D01*
X220202438Y-173466666D02*
X220250057Y-173514285D01*
X220250057Y-173514285D02*
X220345295Y-173561904D01*
X220345295Y-173561904D02*
X220440533Y-173561904D01*
X220440533Y-173561904D02*
X220583390Y-173514285D01*
X220583390Y-173514285D02*
X221154819Y-172942857D01*
X221154819Y-172942857D02*
X221154819Y-173561904D01*
X197342319Y-114411905D02*
X196342319Y-114411905D01*
X196342319Y-114411905D02*
X196342319Y-114650000D01*
X196342319Y-114650000D02*
X196389938Y-114792857D01*
X196389938Y-114792857D02*
X196485176Y-114888095D01*
X196485176Y-114888095D02*
X196580414Y-114935714D01*
X196580414Y-114935714D02*
X196770890Y-114983333D01*
X196770890Y-114983333D02*
X196913747Y-114983333D01*
X196913747Y-114983333D02*
X197104223Y-114935714D01*
X197104223Y-114935714D02*
X197199461Y-114888095D01*
X197199461Y-114888095D02*
X197294700Y-114792857D01*
X197294700Y-114792857D02*
X197342319Y-114650000D01*
X197342319Y-114650000D02*
X197342319Y-114411905D01*
X197342319Y-115459524D02*
X197342319Y-115650000D01*
X197342319Y-115650000D02*
X197294700Y-115745238D01*
X197294700Y-115745238D02*
X197247080Y-115792857D01*
X197247080Y-115792857D02*
X197104223Y-115888095D01*
X197104223Y-115888095D02*
X196913747Y-115935714D01*
X196913747Y-115935714D02*
X196532795Y-115935714D01*
X196532795Y-115935714D02*
X196437557Y-115888095D01*
X196437557Y-115888095D02*
X196389938Y-115840476D01*
X196389938Y-115840476D02*
X196342319Y-115745238D01*
X196342319Y-115745238D02*
X196342319Y-115554762D01*
X196342319Y-115554762D02*
X196389938Y-115459524D01*
X196389938Y-115459524D02*
X196437557Y-115411905D01*
X196437557Y-115411905D02*
X196532795Y-115364286D01*
X196532795Y-115364286D02*
X196770890Y-115364286D01*
X196770890Y-115364286D02*
X196866128Y-115411905D01*
X196866128Y-115411905D02*
X196913747Y-115459524D01*
X196913747Y-115459524D02*
X196961366Y-115554762D01*
X196961366Y-115554762D02*
X196961366Y-115745238D01*
X196961366Y-115745238D02*
X196913747Y-115840476D01*
X196913747Y-115840476D02*
X196866128Y-115888095D01*
X196866128Y-115888095D02*
X196770890Y-115935714D01*
X73517319Y-132985714D02*
X72517319Y-132985714D01*
X72517319Y-132985714D02*
X72517319Y-133223809D01*
X72517319Y-133223809D02*
X72564938Y-133366666D01*
X72564938Y-133366666D02*
X72660176Y-133461904D01*
X72660176Y-133461904D02*
X72755414Y-133509523D01*
X72755414Y-133509523D02*
X72945890Y-133557142D01*
X72945890Y-133557142D02*
X73088747Y-133557142D01*
X73088747Y-133557142D02*
X73279223Y-133509523D01*
X73279223Y-133509523D02*
X73374461Y-133461904D01*
X73374461Y-133461904D02*
X73469700Y-133366666D01*
X73469700Y-133366666D02*
X73517319Y-133223809D01*
X73517319Y-133223809D02*
X73517319Y-132985714D01*
X73517319Y-134509523D02*
X73517319Y-133938095D01*
X73517319Y-134223809D02*
X72517319Y-134223809D01*
X72517319Y-134223809D02*
X72660176Y-134128571D01*
X72660176Y-134128571D02*
X72755414Y-134033333D01*
X72755414Y-134033333D02*
X72803033Y-133938095D01*
X72517319Y-134842857D02*
X72517319Y-135509523D01*
X72517319Y-135509523D02*
X73517319Y-135080952D01*
X211629819Y-190135714D02*
X210629819Y-190135714D01*
X210629819Y-190135714D02*
X210629819Y-190373809D01*
X210629819Y-190373809D02*
X210677438Y-190516666D01*
X210677438Y-190516666D02*
X210772676Y-190611904D01*
X210772676Y-190611904D02*
X210867914Y-190659523D01*
X210867914Y-190659523D02*
X211058390Y-190707142D01*
X211058390Y-190707142D02*
X211201247Y-190707142D01*
X211201247Y-190707142D02*
X211391723Y-190659523D01*
X211391723Y-190659523D02*
X211486961Y-190611904D01*
X211486961Y-190611904D02*
X211582200Y-190516666D01*
X211582200Y-190516666D02*
X211629819Y-190373809D01*
X211629819Y-190373809D02*
X211629819Y-190135714D01*
X210629819Y-191564285D02*
X210629819Y-191373809D01*
X210629819Y-191373809D02*
X210677438Y-191278571D01*
X210677438Y-191278571D02*
X210725057Y-191230952D01*
X210725057Y-191230952D02*
X210867914Y-191135714D01*
X210867914Y-191135714D02*
X211058390Y-191088095D01*
X211058390Y-191088095D02*
X211439342Y-191088095D01*
X211439342Y-191088095D02*
X211534580Y-191135714D01*
X211534580Y-191135714D02*
X211582200Y-191183333D01*
X211582200Y-191183333D02*
X211629819Y-191278571D01*
X211629819Y-191278571D02*
X211629819Y-191469047D01*
X211629819Y-191469047D02*
X211582200Y-191564285D01*
X211582200Y-191564285D02*
X211534580Y-191611904D01*
X211534580Y-191611904D02*
X211439342Y-191659523D01*
X211439342Y-191659523D02*
X211201247Y-191659523D01*
X211201247Y-191659523D02*
X211106009Y-191611904D01*
X211106009Y-191611904D02*
X211058390Y-191564285D01*
X211058390Y-191564285D02*
X211010771Y-191469047D01*
X211010771Y-191469047D02*
X211010771Y-191278571D01*
X211010771Y-191278571D02*
X211058390Y-191183333D01*
X211058390Y-191183333D02*
X211106009Y-191135714D01*
X211106009Y-191135714D02*
X211201247Y-191088095D01*
X210963152Y-192516666D02*
X211629819Y-192516666D01*
X210582200Y-192278571D02*
X211296485Y-192040476D01*
X211296485Y-192040476D02*
X211296485Y-192659523D01*
X102092319Y-152035714D02*
X101092319Y-152035714D01*
X101092319Y-152035714D02*
X101092319Y-152273809D01*
X101092319Y-152273809D02*
X101139938Y-152416666D01*
X101139938Y-152416666D02*
X101235176Y-152511904D01*
X101235176Y-152511904D02*
X101330414Y-152559523D01*
X101330414Y-152559523D02*
X101520890Y-152607142D01*
X101520890Y-152607142D02*
X101663747Y-152607142D01*
X101663747Y-152607142D02*
X101854223Y-152559523D01*
X101854223Y-152559523D02*
X101949461Y-152511904D01*
X101949461Y-152511904D02*
X102044700Y-152416666D01*
X102044700Y-152416666D02*
X102092319Y-152273809D01*
X102092319Y-152273809D02*
X102092319Y-152035714D01*
X101092319Y-152940476D02*
X101092319Y-153559523D01*
X101092319Y-153559523D02*
X101473271Y-153226190D01*
X101473271Y-153226190D02*
X101473271Y-153369047D01*
X101473271Y-153369047D02*
X101520890Y-153464285D01*
X101520890Y-153464285D02*
X101568509Y-153511904D01*
X101568509Y-153511904D02*
X101663747Y-153559523D01*
X101663747Y-153559523D02*
X101901842Y-153559523D01*
X101901842Y-153559523D02*
X101997080Y-153511904D01*
X101997080Y-153511904D02*
X102044700Y-153464285D01*
X102044700Y-153464285D02*
X102092319Y-153369047D01*
X102092319Y-153369047D02*
X102092319Y-153083333D01*
X102092319Y-153083333D02*
X102044700Y-152988095D01*
X102044700Y-152988095D02*
X101997080Y-152940476D01*
X101187557Y-153940476D02*
X101139938Y-153988095D01*
X101139938Y-153988095D02*
X101092319Y-154083333D01*
X101092319Y-154083333D02*
X101092319Y-154321428D01*
X101092319Y-154321428D02*
X101139938Y-154416666D01*
X101139938Y-154416666D02*
X101187557Y-154464285D01*
X101187557Y-154464285D02*
X101282795Y-154511904D01*
X101282795Y-154511904D02*
X101378033Y-154511904D01*
X101378033Y-154511904D02*
X101520890Y-154464285D01*
X101520890Y-154464285D02*
X102092319Y-153892857D01*
X102092319Y-153892857D02*
X102092319Y-154511904D01*
X244967319Y-132985714D02*
X243967319Y-132985714D01*
X243967319Y-132985714D02*
X243967319Y-133223809D01*
X243967319Y-133223809D02*
X244014938Y-133366666D01*
X244014938Y-133366666D02*
X244110176Y-133461904D01*
X244110176Y-133461904D02*
X244205414Y-133509523D01*
X244205414Y-133509523D02*
X244395890Y-133557142D01*
X244395890Y-133557142D02*
X244538747Y-133557142D01*
X244538747Y-133557142D02*
X244729223Y-133509523D01*
X244729223Y-133509523D02*
X244824461Y-133461904D01*
X244824461Y-133461904D02*
X244919700Y-133366666D01*
X244919700Y-133366666D02*
X244967319Y-133223809D01*
X244967319Y-133223809D02*
X244967319Y-132985714D01*
X244062557Y-133938095D02*
X244014938Y-133985714D01*
X244014938Y-133985714D02*
X243967319Y-134080952D01*
X243967319Y-134080952D02*
X243967319Y-134319047D01*
X243967319Y-134319047D02*
X244014938Y-134414285D01*
X244014938Y-134414285D02*
X244062557Y-134461904D01*
X244062557Y-134461904D02*
X244157795Y-134509523D01*
X244157795Y-134509523D02*
X244253033Y-134509523D01*
X244253033Y-134509523D02*
X244395890Y-134461904D01*
X244395890Y-134461904D02*
X244967319Y-133890476D01*
X244967319Y-133890476D02*
X244967319Y-134509523D01*
X243967319Y-135366666D02*
X243967319Y-135176190D01*
X243967319Y-135176190D02*
X244014938Y-135080952D01*
X244014938Y-135080952D02*
X244062557Y-135033333D01*
X244062557Y-135033333D02*
X244205414Y-134938095D01*
X244205414Y-134938095D02*
X244395890Y-134890476D01*
X244395890Y-134890476D02*
X244776842Y-134890476D01*
X244776842Y-134890476D02*
X244872080Y-134938095D01*
X244872080Y-134938095D02*
X244919700Y-134985714D01*
X244919700Y-134985714D02*
X244967319Y-135080952D01*
X244967319Y-135080952D02*
X244967319Y-135271428D01*
X244967319Y-135271428D02*
X244919700Y-135366666D01*
X244919700Y-135366666D02*
X244872080Y-135414285D01*
X244872080Y-135414285D02*
X244776842Y-135461904D01*
X244776842Y-135461904D02*
X244538747Y-135461904D01*
X244538747Y-135461904D02*
X244443509Y-135414285D01*
X244443509Y-135414285D02*
X244395890Y-135366666D01*
X244395890Y-135366666D02*
X244348271Y-135271428D01*
X244348271Y-135271428D02*
X244348271Y-135080952D01*
X244348271Y-135080952D02*
X244395890Y-134985714D01*
X244395890Y-134985714D02*
X244443509Y-134938095D01*
X244443509Y-134938095D02*
X244538747Y-134890476D01*
X121142319Y-152035714D02*
X120142319Y-152035714D01*
X120142319Y-152035714D02*
X120142319Y-152273809D01*
X120142319Y-152273809D02*
X120189938Y-152416666D01*
X120189938Y-152416666D02*
X120285176Y-152511904D01*
X120285176Y-152511904D02*
X120380414Y-152559523D01*
X120380414Y-152559523D02*
X120570890Y-152607142D01*
X120570890Y-152607142D02*
X120713747Y-152607142D01*
X120713747Y-152607142D02*
X120904223Y-152559523D01*
X120904223Y-152559523D02*
X120999461Y-152511904D01*
X120999461Y-152511904D02*
X121094700Y-152416666D01*
X121094700Y-152416666D02*
X121142319Y-152273809D01*
X121142319Y-152273809D02*
X121142319Y-152035714D01*
X120142319Y-152940476D02*
X120142319Y-153559523D01*
X120142319Y-153559523D02*
X120523271Y-153226190D01*
X120523271Y-153226190D02*
X120523271Y-153369047D01*
X120523271Y-153369047D02*
X120570890Y-153464285D01*
X120570890Y-153464285D02*
X120618509Y-153511904D01*
X120618509Y-153511904D02*
X120713747Y-153559523D01*
X120713747Y-153559523D02*
X120951842Y-153559523D01*
X120951842Y-153559523D02*
X121047080Y-153511904D01*
X121047080Y-153511904D02*
X121094700Y-153464285D01*
X121094700Y-153464285D02*
X121142319Y-153369047D01*
X121142319Y-153369047D02*
X121142319Y-153083333D01*
X121142319Y-153083333D02*
X121094700Y-152988095D01*
X121094700Y-152988095D02*
X121047080Y-152940476D01*
X120142319Y-153892857D02*
X120142319Y-154511904D01*
X120142319Y-154511904D02*
X120523271Y-154178571D01*
X120523271Y-154178571D02*
X120523271Y-154321428D01*
X120523271Y-154321428D02*
X120570890Y-154416666D01*
X120570890Y-154416666D02*
X120618509Y-154464285D01*
X120618509Y-154464285D02*
X120713747Y-154511904D01*
X120713747Y-154511904D02*
X120951842Y-154511904D01*
X120951842Y-154511904D02*
X121047080Y-154464285D01*
X121047080Y-154464285D02*
X121094700Y-154416666D01*
X121094700Y-154416666D02*
X121142319Y-154321428D01*
X121142319Y-154321428D02*
X121142319Y-154035714D01*
X121142319Y-154035714D02*
X121094700Y-153940476D01*
X121094700Y-153940476D02*
X121047080Y-153892857D01*
X102092319Y-114411905D02*
X101092319Y-114411905D01*
X101092319Y-114411905D02*
X101092319Y-114650000D01*
X101092319Y-114650000D02*
X101139938Y-114792857D01*
X101139938Y-114792857D02*
X101235176Y-114888095D01*
X101235176Y-114888095D02*
X101330414Y-114935714D01*
X101330414Y-114935714D02*
X101520890Y-114983333D01*
X101520890Y-114983333D02*
X101663747Y-114983333D01*
X101663747Y-114983333D02*
X101854223Y-114935714D01*
X101854223Y-114935714D02*
X101949461Y-114888095D01*
X101949461Y-114888095D02*
X102044700Y-114792857D01*
X102044700Y-114792857D02*
X102092319Y-114650000D01*
X102092319Y-114650000D02*
X102092319Y-114411905D01*
X101425652Y-115840476D02*
X102092319Y-115840476D01*
X101044700Y-115602381D02*
X101758985Y-115364286D01*
X101758985Y-115364286D02*
X101758985Y-115983333D01*
X92567319Y-132985714D02*
X91567319Y-132985714D01*
X91567319Y-132985714D02*
X91567319Y-133223809D01*
X91567319Y-133223809D02*
X91614938Y-133366666D01*
X91614938Y-133366666D02*
X91710176Y-133461904D01*
X91710176Y-133461904D02*
X91805414Y-133509523D01*
X91805414Y-133509523D02*
X91995890Y-133557142D01*
X91995890Y-133557142D02*
X92138747Y-133557142D01*
X92138747Y-133557142D02*
X92329223Y-133509523D01*
X92329223Y-133509523D02*
X92424461Y-133461904D01*
X92424461Y-133461904D02*
X92519700Y-133366666D01*
X92519700Y-133366666D02*
X92567319Y-133223809D01*
X92567319Y-133223809D02*
X92567319Y-132985714D01*
X92567319Y-134509523D02*
X92567319Y-133938095D01*
X92567319Y-134223809D02*
X91567319Y-134223809D01*
X91567319Y-134223809D02*
X91710176Y-134128571D01*
X91710176Y-134128571D02*
X91805414Y-134033333D01*
X91805414Y-134033333D02*
X91853033Y-133938095D01*
X91995890Y-135080952D02*
X91948271Y-134985714D01*
X91948271Y-134985714D02*
X91900652Y-134938095D01*
X91900652Y-134938095D02*
X91805414Y-134890476D01*
X91805414Y-134890476D02*
X91757795Y-134890476D01*
X91757795Y-134890476D02*
X91662557Y-134938095D01*
X91662557Y-134938095D02*
X91614938Y-134985714D01*
X91614938Y-134985714D02*
X91567319Y-135080952D01*
X91567319Y-135080952D02*
X91567319Y-135271428D01*
X91567319Y-135271428D02*
X91614938Y-135366666D01*
X91614938Y-135366666D02*
X91662557Y-135414285D01*
X91662557Y-135414285D02*
X91757795Y-135461904D01*
X91757795Y-135461904D02*
X91805414Y-135461904D01*
X91805414Y-135461904D02*
X91900652Y-135414285D01*
X91900652Y-135414285D02*
X91948271Y-135366666D01*
X91948271Y-135366666D02*
X91995890Y-135271428D01*
X91995890Y-135271428D02*
X91995890Y-135080952D01*
X91995890Y-135080952D02*
X92043509Y-134985714D01*
X92043509Y-134985714D02*
X92091128Y-134938095D01*
X92091128Y-134938095D02*
X92186366Y-134890476D01*
X92186366Y-134890476D02*
X92376842Y-134890476D01*
X92376842Y-134890476D02*
X92472080Y-134938095D01*
X92472080Y-134938095D02*
X92519700Y-134985714D01*
X92519700Y-134985714D02*
X92567319Y-135080952D01*
X92567319Y-135080952D02*
X92567319Y-135271428D01*
X92567319Y-135271428D02*
X92519700Y-135366666D01*
X92519700Y-135366666D02*
X92472080Y-135414285D01*
X92472080Y-135414285D02*
X92376842Y-135461904D01*
X92376842Y-135461904D02*
X92186366Y-135461904D01*
X92186366Y-135461904D02*
X92091128Y-135414285D01*
X92091128Y-135414285D02*
X92043509Y-135366666D01*
X92043509Y-135366666D02*
X91995890Y-135271428D01*
X178292319Y-114411905D02*
X177292319Y-114411905D01*
X177292319Y-114411905D02*
X177292319Y-114650000D01*
X177292319Y-114650000D02*
X177339938Y-114792857D01*
X177339938Y-114792857D02*
X177435176Y-114888095D01*
X177435176Y-114888095D02*
X177530414Y-114935714D01*
X177530414Y-114935714D02*
X177720890Y-114983333D01*
X177720890Y-114983333D02*
X177863747Y-114983333D01*
X177863747Y-114983333D02*
X178054223Y-114935714D01*
X178054223Y-114935714D02*
X178149461Y-114888095D01*
X178149461Y-114888095D02*
X178244700Y-114792857D01*
X178244700Y-114792857D02*
X178292319Y-114650000D01*
X178292319Y-114650000D02*
X178292319Y-114411905D01*
X177720890Y-115554762D02*
X177673271Y-115459524D01*
X177673271Y-115459524D02*
X177625652Y-115411905D01*
X177625652Y-115411905D02*
X177530414Y-115364286D01*
X177530414Y-115364286D02*
X177482795Y-115364286D01*
X177482795Y-115364286D02*
X177387557Y-115411905D01*
X177387557Y-115411905D02*
X177339938Y-115459524D01*
X177339938Y-115459524D02*
X177292319Y-115554762D01*
X177292319Y-115554762D02*
X177292319Y-115745238D01*
X177292319Y-115745238D02*
X177339938Y-115840476D01*
X177339938Y-115840476D02*
X177387557Y-115888095D01*
X177387557Y-115888095D02*
X177482795Y-115935714D01*
X177482795Y-115935714D02*
X177530414Y-115935714D01*
X177530414Y-115935714D02*
X177625652Y-115888095D01*
X177625652Y-115888095D02*
X177673271Y-115840476D01*
X177673271Y-115840476D02*
X177720890Y-115745238D01*
X177720890Y-115745238D02*
X177720890Y-115554762D01*
X177720890Y-115554762D02*
X177768509Y-115459524D01*
X177768509Y-115459524D02*
X177816128Y-115411905D01*
X177816128Y-115411905D02*
X177911366Y-115364286D01*
X177911366Y-115364286D02*
X178101842Y-115364286D01*
X178101842Y-115364286D02*
X178197080Y-115411905D01*
X178197080Y-115411905D02*
X178244700Y-115459524D01*
X178244700Y-115459524D02*
X178292319Y-115554762D01*
X178292319Y-115554762D02*
X178292319Y-115745238D01*
X178292319Y-115745238D02*
X178244700Y-115840476D01*
X178244700Y-115840476D02*
X178197080Y-115888095D01*
X178197080Y-115888095D02*
X178101842Y-115935714D01*
X178101842Y-115935714D02*
X177911366Y-115935714D01*
X177911366Y-115935714D02*
X177816128Y-115888095D01*
X177816128Y-115888095D02*
X177768509Y-115840476D01*
X177768509Y-115840476D02*
X177720890Y-115745238D01*
X61611069Y-209185714D02*
X60611069Y-209185714D01*
X60611069Y-209185714D02*
X60611069Y-209423809D01*
X60611069Y-209423809D02*
X60658688Y-209566666D01*
X60658688Y-209566666D02*
X60753926Y-209661904D01*
X60753926Y-209661904D02*
X60849164Y-209709523D01*
X60849164Y-209709523D02*
X61039640Y-209757142D01*
X61039640Y-209757142D02*
X61182497Y-209757142D01*
X61182497Y-209757142D02*
X61372973Y-209709523D01*
X61372973Y-209709523D02*
X61468211Y-209661904D01*
X61468211Y-209661904D02*
X61563450Y-209566666D01*
X61563450Y-209566666D02*
X61611069Y-209423809D01*
X61611069Y-209423809D02*
X61611069Y-209185714D01*
X60611069Y-210090476D02*
X60611069Y-210757142D01*
X60611069Y-210757142D02*
X61611069Y-210328571D01*
X61611069Y-211661904D02*
X61611069Y-211090476D01*
X61611069Y-211376190D02*
X60611069Y-211376190D01*
X60611069Y-211376190D02*
X60753926Y-211280952D01*
X60753926Y-211280952D02*
X60849164Y-211185714D01*
X60849164Y-211185714D02*
X60896783Y-211090476D01*
X140192319Y-114411905D02*
X139192319Y-114411905D01*
X139192319Y-114411905D02*
X139192319Y-114650000D01*
X139192319Y-114650000D02*
X139239938Y-114792857D01*
X139239938Y-114792857D02*
X139335176Y-114888095D01*
X139335176Y-114888095D02*
X139430414Y-114935714D01*
X139430414Y-114935714D02*
X139620890Y-114983333D01*
X139620890Y-114983333D02*
X139763747Y-114983333D01*
X139763747Y-114983333D02*
X139954223Y-114935714D01*
X139954223Y-114935714D02*
X140049461Y-114888095D01*
X140049461Y-114888095D02*
X140144700Y-114792857D01*
X140144700Y-114792857D02*
X140192319Y-114650000D01*
X140192319Y-114650000D02*
X140192319Y-114411905D01*
X139192319Y-115840476D02*
X139192319Y-115650000D01*
X139192319Y-115650000D02*
X139239938Y-115554762D01*
X139239938Y-115554762D02*
X139287557Y-115507143D01*
X139287557Y-115507143D02*
X139430414Y-115411905D01*
X139430414Y-115411905D02*
X139620890Y-115364286D01*
X139620890Y-115364286D02*
X140001842Y-115364286D01*
X140001842Y-115364286D02*
X140097080Y-115411905D01*
X140097080Y-115411905D02*
X140144700Y-115459524D01*
X140144700Y-115459524D02*
X140192319Y-115554762D01*
X140192319Y-115554762D02*
X140192319Y-115745238D01*
X140192319Y-115745238D02*
X140144700Y-115840476D01*
X140144700Y-115840476D02*
X140097080Y-115888095D01*
X140097080Y-115888095D02*
X140001842Y-115935714D01*
X140001842Y-115935714D02*
X139763747Y-115935714D01*
X139763747Y-115935714D02*
X139668509Y-115888095D01*
X139668509Y-115888095D02*
X139620890Y-115840476D01*
X139620890Y-115840476D02*
X139573271Y-115745238D01*
X139573271Y-115745238D02*
X139573271Y-115554762D01*
X139573271Y-115554762D02*
X139620890Y-115459524D01*
X139620890Y-115459524D02*
X139668509Y-115411905D01*
X139668509Y-115411905D02*
X139763747Y-115364286D01*
X40179819Y-152035714D02*
X39179819Y-152035714D01*
X39179819Y-152035714D02*
X39179819Y-152273809D01*
X39179819Y-152273809D02*
X39227438Y-152416666D01*
X39227438Y-152416666D02*
X39322676Y-152511904D01*
X39322676Y-152511904D02*
X39417914Y-152559523D01*
X39417914Y-152559523D02*
X39608390Y-152607142D01*
X39608390Y-152607142D02*
X39751247Y-152607142D01*
X39751247Y-152607142D02*
X39941723Y-152559523D01*
X39941723Y-152559523D02*
X40036961Y-152511904D01*
X40036961Y-152511904D02*
X40132200Y-152416666D01*
X40132200Y-152416666D02*
X40179819Y-152273809D01*
X40179819Y-152273809D02*
X40179819Y-152035714D01*
X39275057Y-152988095D02*
X39227438Y-153035714D01*
X39227438Y-153035714D02*
X39179819Y-153130952D01*
X39179819Y-153130952D02*
X39179819Y-153369047D01*
X39179819Y-153369047D02*
X39227438Y-153464285D01*
X39227438Y-153464285D02*
X39275057Y-153511904D01*
X39275057Y-153511904D02*
X39370295Y-153559523D01*
X39370295Y-153559523D02*
X39465533Y-153559523D01*
X39465533Y-153559523D02*
X39608390Y-153511904D01*
X39608390Y-153511904D02*
X40179819Y-152940476D01*
X40179819Y-152940476D02*
X40179819Y-153559523D01*
X40179819Y-154035714D02*
X40179819Y-154226190D01*
X40179819Y-154226190D02*
X40132200Y-154321428D01*
X40132200Y-154321428D02*
X40084580Y-154369047D01*
X40084580Y-154369047D02*
X39941723Y-154464285D01*
X39941723Y-154464285D02*
X39751247Y-154511904D01*
X39751247Y-154511904D02*
X39370295Y-154511904D01*
X39370295Y-154511904D02*
X39275057Y-154464285D01*
X39275057Y-154464285D02*
X39227438Y-154416666D01*
X39227438Y-154416666D02*
X39179819Y-154321428D01*
X39179819Y-154321428D02*
X39179819Y-154130952D01*
X39179819Y-154130952D02*
X39227438Y-154035714D01*
X39227438Y-154035714D02*
X39275057Y-153988095D01*
X39275057Y-153988095D02*
X39370295Y-153940476D01*
X39370295Y-153940476D02*
X39608390Y-153940476D01*
X39608390Y-153940476D02*
X39703628Y-153988095D01*
X39703628Y-153988095D02*
X39751247Y-154035714D01*
X39751247Y-154035714D02*
X39798866Y-154130952D01*
X39798866Y-154130952D02*
X39798866Y-154321428D01*
X39798866Y-154321428D02*
X39751247Y-154416666D01*
X39751247Y-154416666D02*
X39703628Y-154464285D01*
X39703628Y-154464285D02*
X39608390Y-154511904D01*
X156861069Y-209185714D02*
X155861069Y-209185714D01*
X155861069Y-209185714D02*
X155861069Y-209423809D01*
X155861069Y-209423809D02*
X155908688Y-209566666D01*
X155908688Y-209566666D02*
X156003926Y-209661904D01*
X156003926Y-209661904D02*
X156099164Y-209709523D01*
X156099164Y-209709523D02*
X156289640Y-209757142D01*
X156289640Y-209757142D02*
X156432497Y-209757142D01*
X156432497Y-209757142D02*
X156622973Y-209709523D01*
X156622973Y-209709523D02*
X156718211Y-209661904D01*
X156718211Y-209661904D02*
X156813450Y-209566666D01*
X156813450Y-209566666D02*
X156861069Y-209423809D01*
X156861069Y-209423809D02*
X156861069Y-209185714D01*
X155861069Y-210090476D02*
X155861069Y-210757142D01*
X155861069Y-210757142D02*
X156861069Y-210328571D01*
X155861069Y-211042857D02*
X155861069Y-211661904D01*
X155861069Y-211661904D02*
X156242021Y-211328571D01*
X156242021Y-211328571D02*
X156242021Y-211471428D01*
X156242021Y-211471428D02*
X156289640Y-211566666D01*
X156289640Y-211566666D02*
X156337259Y-211614285D01*
X156337259Y-211614285D02*
X156432497Y-211661904D01*
X156432497Y-211661904D02*
X156670592Y-211661904D01*
X156670592Y-211661904D02*
X156765830Y-211614285D01*
X156765830Y-211614285D02*
X156813450Y-211566666D01*
X156813450Y-211566666D02*
X156861069Y-211471428D01*
X156861069Y-211471428D02*
X156861069Y-211185714D01*
X156861069Y-211185714D02*
X156813450Y-211090476D01*
X156813450Y-211090476D02*
X156765830Y-211042857D01*
X35417319Y-132985714D02*
X34417319Y-132985714D01*
X34417319Y-132985714D02*
X34417319Y-133223809D01*
X34417319Y-133223809D02*
X34464938Y-133366666D01*
X34464938Y-133366666D02*
X34560176Y-133461904D01*
X34560176Y-133461904D02*
X34655414Y-133509523D01*
X34655414Y-133509523D02*
X34845890Y-133557142D01*
X34845890Y-133557142D02*
X34988747Y-133557142D01*
X34988747Y-133557142D02*
X35179223Y-133509523D01*
X35179223Y-133509523D02*
X35274461Y-133461904D01*
X35274461Y-133461904D02*
X35369700Y-133366666D01*
X35369700Y-133366666D02*
X35417319Y-133223809D01*
X35417319Y-133223809D02*
X35417319Y-132985714D01*
X35417319Y-134509523D02*
X35417319Y-133938095D01*
X35417319Y-134223809D02*
X34417319Y-134223809D01*
X34417319Y-134223809D02*
X34560176Y-134128571D01*
X34560176Y-134128571D02*
X34655414Y-134033333D01*
X34655414Y-134033333D02*
X34703033Y-133938095D01*
X34417319Y-135414285D02*
X34417319Y-134938095D01*
X34417319Y-134938095D02*
X34893509Y-134890476D01*
X34893509Y-134890476D02*
X34845890Y-134938095D01*
X34845890Y-134938095D02*
X34798271Y-135033333D01*
X34798271Y-135033333D02*
X34798271Y-135271428D01*
X34798271Y-135271428D02*
X34845890Y-135366666D01*
X34845890Y-135366666D02*
X34893509Y-135414285D01*
X34893509Y-135414285D02*
X34988747Y-135461904D01*
X34988747Y-135461904D02*
X35226842Y-135461904D01*
X35226842Y-135461904D02*
X35322080Y-135414285D01*
X35322080Y-135414285D02*
X35369700Y-135366666D01*
X35369700Y-135366666D02*
X35417319Y-135271428D01*
X35417319Y-135271428D02*
X35417319Y-135033333D01*
X35417319Y-135033333D02*
X35369700Y-134938095D01*
X35369700Y-134938095D02*
X35322080Y-134890476D01*
X273542319Y-152035714D02*
X272542319Y-152035714D01*
X272542319Y-152035714D02*
X272542319Y-152273809D01*
X272542319Y-152273809D02*
X272589938Y-152416666D01*
X272589938Y-152416666D02*
X272685176Y-152511904D01*
X272685176Y-152511904D02*
X272780414Y-152559523D01*
X272780414Y-152559523D02*
X272970890Y-152607142D01*
X272970890Y-152607142D02*
X273113747Y-152607142D01*
X273113747Y-152607142D02*
X273304223Y-152559523D01*
X273304223Y-152559523D02*
X273399461Y-152511904D01*
X273399461Y-152511904D02*
X273494700Y-152416666D01*
X273494700Y-152416666D02*
X273542319Y-152273809D01*
X273542319Y-152273809D02*
X273542319Y-152035714D01*
X272875652Y-153464285D02*
X273542319Y-153464285D01*
X272494700Y-153226190D02*
X273208985Y-152988095D01*
X273208985Y-152988095D02*
X273208985Y-153607142D01*
X273542319Y-154511904D02*
X273542319Y-153940476D01*
X273542319Y-154226190D02*
X272542319Y-154226190D01*
X272542319Y-154226190D02*
X272685176Y-154130952D01*
X272685176Y-154130952D02*
X272780414Y-154035714D01*
X272780414Y-154035714D02*
X272828033Y-153940476D01*
X249729819Y-190135714D02*
X248729819Y-190135714D01*
X248729819Y-190135714D02*
X248729819Y-190373809D01*
X248729819Y-190373809D02*
X248777438Y-190516666D01*
X248777438Y-190516666D02*
X248872676Y-190611904D01*
X248872676Y-190611904D02*
X248967914Y-190659523D01*
X248967914Y-190659523D02*
X249158390Y-190707142D01*
X249158390Y-190707142D02*
X249301247Y-190707142D01*
X249301247Y-190707142D02*
X249491723Y-190659523D01*
X249491723Y-190659523D02*
X249586961Y-190611904D01*
X249586961Y-190611904D02*
X249682200Y-190516666D01*
X249682200Y-190516666D02*
X249729819Y-190373809D01*
X249729819Y-190373809D02*
X249729819Y-190135714D01*
X248729819Y-191564285D02*
X248729819Y-191373809D01*
X248729819Y-191373809D02*
X248777438Y-191278571D01*
X248777438Y-191278571D02*
X248825057Y-191230952D01*
X248825057Y-191230952D02*
X248967914Y-191135714D01*
X248967914Y-191135714D02*
X249158390Y-191088095D01*
X249158390Y-191088095D02*
X249539342Y-191088095D01*
X249539342Y-191088095D02*
X249634580Y-191135714D01*
X249634580Y-191135714D02*
X249682200Y-191183333D01*
X249682200Y-191183333D02*
X249729819Y-191278571D01*
X249729819Y-191278571D02*
X249729819Y-191469047D01*
X249729819Y-191469047D02*
X249682200Y-191564285D01*
X249682200Y-191564285D02*
X249634580Y-191611904D01*
X249634580Y-191611904D02*
X249539342Y-191659523D01*
X249539342Y-191659523D02*
X249301247Y-191659523D01*
X249301247Y-191659523D02*
X249206009Y-191611904D01*
X249206009Y-191611904D02*
X249158390Y-191564285D01*
X249158390Y-191564285D02*
X249110771Y-191469047D01*
X249110771Y-191469047D02*
X249110771Y-191278571D01*
X249110771Y-191278571D02*
X249158390Y-191183333D01*
X249158390Y-191183333D02*
X249206009Y-191135714D01*
X249206009Y-191135714D02*
X249301247Y-191088095D01*
X248729819Y-192516666D02*
X248729819Y-192326190D01*
X248729819Y-192326190D02*
X248777438Y-192230952D01*
X248777438Y-192230952D02*
X248825057Y-192183333D01*
X248825057Y-192183333D02*
X248967914Y-192088095D01*
X248967914Y-192088095D02*
X249158390Y-192040476D01*
X249158390Y-192040476D02*
X249539342Y-192040476D01*
X249539342Y-192040476D02*
X249634580Y-192088095D01*
X249634580Y-192088095D02*
X249682200Y-192135714D01*
X249682200Y-192135714D02*
X249729819Y-192230952D01*
X249729819Y-192230952D02*
X249729819Y-192421428D01*
X249729819Y-192421428D02*
X249682200Y-192516666D01*
X249682200Y-192516666D02*
X249634580Y-192564285D01*
X249634580Y-192564285D02*
X249539342Y-192611904D01*
X249539342Y-192611904D02*
X249301247Y-192611904D01*
X249301247Y-192611904D02*
X249206009Y-192564285D01*
X249206009Y-192564285D02*
X249158390Y-192516666D01*
X249158390Y-192516666D02*
X249110771Y-192421428D01*
X249110771Y-192421428D02*
X249110771Y-192230952D01*
X249110771Y-192230952D02*
X249158390Y-192135714D01*
X249158390Y-192135714D02*
X249206009Y-192088095D01*
X249206009Y-192088095D02*
X249301247Y-192040476D01*
X254492319Y-152035714D02*
X253492319Y-152035714D01*
X253492319Y-152035714D02*
X253492319Y-152273809D01*
X253492319Y-152273809D02*
X253539938Y-152416666D01*
X253539938Y-152416666D02*
X253635176Y-152511904D01*
X253635176Y-152511904D02*
X253730414Y-152559523D01*
X253730414Y-152559523D02*
X253920890Y-152607142D01*
X253920890Y-152607142D02*
X254063747Y-152607142D01*
X254063747Y-152607142D02*
X254254223Y-152559523D01*
X254254223Y-152559523D02*
X254349461Y-152511904D01*
X254349461Y-152511904D02*
X254444700Y-152416666D01*
X254444700Y-152416666D02*
X254492319Y-152273809D01*
X254492319Y-152273809D02*
X254492319Y-152035714D01*
X253825652Y-153464285D02*
X254492319Y-153464285D01*
X253444700Y-153226190D02*
X254158985Y-152988095D01*
X254158985Y-152988095D02*
X254158985Y-153607142D01*
X253492319Y-154178571D02*
X253492319Y-154273809D01*
X253492319Y-154273809D02*
X253539938Y-154369047D01*
X253539938Y-154369047D02*
X253587557Y-154416666D01*
X253587557Y-154416666D02*
X253682795Y-154464285D01*
X253682795Y-154464285D02*
X253873271Y-154511904D01*
X253873271Y-154511904D02*
X254111366Y-154511904D01*
X254111366Y-154511904D02*
X254301842Y-154464285D01*
X254301842Y-154464285D02*
X254397080Y-154416666D01*
X254397080Y-154416666D02*
X254444700Y-154369047D01*
X254444700Y-154369047D02*
X254492319Y-154273809D01*
X254492319Y-154273809D02*
X254492319Y-154178571D01*
X254492319Y-154178571D02*
X254444700Y-154083333D01*
X254444700Y-154083333D02*
X254397080Y-154035714D01*
X254397080Y-154035714D02*
X254301842Y-153988095D01*
X254301842Y-153988095D02*
X254111366Y-153940476D01*
X254111366Y-153940476D02*
X253873271Y-153940476D01*
X253873271Y-153940476D02*
X253682795Y-153988095D01*
X253682795Y-153988095D02*
X253587557Y-154035714D01*
X253587557Y-154035714D02*
X253539938Y-154083333D01*
X253539938Y-154083333D02*
X253492319Y-154178571D01*
X235442319Y-152035714D02*
X234442319Y-152035714D01*
X234442319Y-152035714D02*
X234442319Y-152273809D01*
X234442319Y-152273809D02*
X234489938Y-152416666D01*
X234489938Y-152416666D02*
X234585176Y-152511904D01*
X234585176Y-152511904D02*
X234680414Y-152559523D01*
X234680414Y-152559523D02*
X234870890Y-152607142D01*
X234870890Y-152607142D02*
X235013747Y-152607142D01*
X235013747Y-152607142D02*
X235204223Y-152559523D01*
X235204223Y-152559523D02*
X235299461Y-152511904D01*
X235299461Y-152511904D02*
X235394700Y-152416666D01*
X235394700Y-152416666D02*
X235442319Y-152273809D01*
X235442319Y-152273809D02*
X235442319Y-152035714D01*
X234442319Y-152940476D02*
X234442319Y-153559523D01*
X234442319Y-153559523D02*
X234823271Y-153226190D01*
X234823271Y-153226190D02*
X234823271Y-153369047D01*
X234823271Y-153369047D02*
X234870890Y-153464285D01*
X234870890Y-153464285D02*
X234918509Y-153511904D01*
X234918509Y-153511904D02*
X235013747Y-153559523D01*
X235013747Y-153559523D02*
X235251842Y-153559523D01*
X235251842Y-153559523D02*
X235347080Y-153511904D01*
X235347080Y-153511904D02*
X235394700Y-153464285D01*
X235394700Y-153464285D02*
X235442319Y-153369047D01*
X235442319Y-153369047D02*
X235442319Y-153083333D01*
X235442319Y-153083333D02*
X235394700Y-152988095D01*
X235394700Y-152988095D02*
X235347080Y-152940476D01*
X235442319Y-154035714D02*
X235442319Y-154226190D01*
X235442319Y-154226190D02*
X235394700Y-154321428D01*
X235394700Y-154321428D02*
X235347080Y-154369047D01*
X235347080Y-154369047D02*
X235204223Y-154464285D01*
X235204223Y-154464285D02*
X235013747Y-154511904D01*
X235013747Y-154511904D02*
X234632795Y-154511904D01*
X234632795Y-154511904D02*
X234537557Y-154464285D01*
X234537557Y-154464285D02*
X234489938Y-154416666D01*
X234489938Y-154416666D02*
X234442319Y-154321428D01*
X234442319Y-154321428D02*
X234442319Y-154130952D01*
X234442319Y-154130952D02*
X234489938Y-154035714D01*
X234489938Y-154035714D02*
X234537557Y-153988095D01*
X234537557Y-153988095D02*
X234632795Y-153940476D01*
X234632795Y-153940476D02*
X234870890Y-153940476D01*
X234870890Y-153940476D02*
X234966128Y-153988095D01*
X234966128Y-153988095D02*
X235013747Y-154035714D01*
X235013747Y-154035714D02*
X235061366Y-154130952D01*
X235061366Y-154130952D02*
X235061366Y-154321428D01*
X235061366Y-154321428D02*
X235013747Y-154416666D01*
X235013747Y-154416666D02*
X234966128Y-154464285D01*
X234966128Y-154464285D02*
X234870890Y-154511904D01*
X321154819Y-209185714D02*
X320154819Y-209185714D01*
X320154819Y-209185714D02*
X320154819Y-209423809D01*
X320154819Y-209423809D02*
X320202438Y-209566666D01*
X320202438Y-209566666D02*
X320297676Y-209661904D01*
X320297676Y-209661904D02*
X320392914Y-209709523D01*
X320392914Y-209709523D02*
X320583390Y-209757142D01*
X320583390Y-209757142D02*
X320726247Y-209757142D01*
X320726247Y-209757142D02*
X320916723Y-209709523D01*
X320916723Y-209709523D02*
X321011961Y-209661904D01*
X321011961Y-209661904D02*
X321107200Y-209566666D01*
X321107200Y-209566666D02*
X321154819Y-209423809D01*
X321154819Y-209423809D02*
X321154819Y-209185714D01*
X320154819Y-210090476D02*
X320154819Y-210757142D01*
X320154819Y-210757142D02*
X321154819Y-210328571D01*
X321154819Y-211185714D02*
X321154819Y-211376190D01*
X321154819Y-211376190D02*
X321107200Y-211471428D01*
X321107200Y-211471428D02*
X321059580Y-211519047D01*
X321059580Y-211519047D02*
X320916723Y-211614285D01*
X320916723Y-211614285D02*
X320726247Y-211661904D01*
X320726247Y-211661904D02*
X320345295Y-211661904D01*
X320345295Y-211661904D02*
X320250057Y-211614285D01*
X320250057Y-211614285D02*
X320202438Y-211566666D01*
X320202438Y-211566666D02*
X320154819Y-211471428D01*
X320154819Y-211471428D02*
X320154819Y-211280952D01*
X320154819Y-211280952D02*
X320202438Y-211185714D01*
X320202438Y-211185714D02*
X320250057Y-211138095D01*
X320250057Y-211138095D02*
X320345295Y-211090476D01*
X320345295Y-211090476D02*
X320583390Y-211090476D01*
X320583390Y-211090476D02*
X320678628Y-211138095D01*
X320678628Y-211138095D02*
X320726247Y-211185714D01*
X320726247Y-211185714D02*
X320773866Y-211280952D01*
X320773866Y-211280952D02*
X320773866Y-211471428D01*
X320773866Y-211471428D02*
X320726247Y-211566666D01*
X320726247Y-211566666D02*
X320678628Y-211614285D01*
X320678628Y-211614285D02*
X320583390Y-211661904D01*
X78279819Y-190135714D02*
X77279819Y-190135714D01*
X77279819Y-190135714D02*
X77279819Y-190373809D01*
X77279819Y-190373809D02*
X77327438Y-190516666D01*
X77327438Y-190516666D02*
X77422676Y-190611904D01*
X77422676Y-190611904D02*
X77517914Y-190659523D01*
X77517914Y-190659523D02*
X77708390Y-190707142D01*
X77708390Y-190707142D02*
X77851247Y-190707142D01*
X77851247Y-190707142D02*
X78041723Y-190659523D01*
X78041723Y-190659523D02*
X78136961Y-190611904D01*
X78136961Y-190611904D02*
X78232200Y-190516666D01*
X78232200Y-190516666D02*
X78279819Y-190373809D01*
X78279819Y-190373809D02*
X78279819Y-190135714D01*
X77279819Y-191611904D02*
X77279819Y-191135714D01*
X77279819Y-191135714D02*
X77756009Y-191088095D01*
X77756009Y-191088095D02*
X77708390Y-191135714D01*
X77708390Y-191135714D02*
X77660771Y-191230952D01*
X77660771Y-191230952D02*
X77660771Y-191469047D01*
X77660771Y-191469047D02*
X77708390Y-191564285D01*
X77708390Y-191564285D02*
X77756009Y-191611904D01*
X77756009Y-191611904D02*
X77851247Y-191659523D01*
X77851247Y-191659523D02*
X78089342Y-191659523D01*
X78089342Y-191659523D02*
X78184580Y-191611904D01*
X78184580Y-191611904D02*
X78232200Y-191564285D01*
X78232200Y-191564285D02*
X78279819Y-191469047D01*
X78279819Y-191469047D02*
X78279819Y-191230952D01*
X78279819Y-191230952D02*
X78232200Y-191135714D01*
X78232200Y-191135714D02*
X78184580Y-191088095D01*
X77279819Y-191992857D02*
X77279819Y-192659523D01*
X77279819Y-192659523D02*
X78279819Y-192230952D01*
X83042319Y-152035714D02*
X82042319Y-152035714D01*
X82042319Y-152035714D02*
X82042319Y-152273809D01*
X82042319Y-152273809D02*
X82089938Y-152416666D01*
X82089938Y-152416666D02*
X82185176Y-152511904D01*
X82185176Y-152511904D02*
X82280414Y-152559523D01*
X82280414Y-152559523D02*
X82470890Y-152607142D01*
X82470890Y-152607142D02*
X82613747Y-152607142D01*
X82613747Y-152607142D02*
X82804223Y-152559523D01*
X82804223Y-152559523D02*
X82899461Y-152511904D01*
X82899461Y-152511904D02*
X82994700Y-152416666D01*
X82994700Y-152416666D02*
X83042319Y-152273809D01*
X83042319Y-152273809D02*
X83042319Y-152035714D01*
X82042319Y-152940476D02*
X82042319Y-153559523D01*
X82042319Y-153559523D02*
X82423271Y-153226190D01*
X82423271Y-153226190D02*
X82423271Y-153369047D01*
X82423271Y-153369047D02*
X82470890Y-153464285D01*
X82470890Y-153464285D02*
X82518509Y-153511904D01*
X82518509Y-153511904D02*
X82613747Y-153559523D01*
X82613747Y-153559523D02*
X82851842Y-153559523D01*
X82851842Y-153559523D02*
X82947080Y-153511904D01*
X82947080Y-153511904D02*
X82994700Y-153464285D01*
X82994700Y-153464285D02*
X83042319Y-153369047D01*
X83042319Y-153369047D02*
X83042319Y-153083333D01*
X83042319Y-153083333D02*
X82994700Y-152988095D01*
X82994700Y-152988095D02*
X82947080Y-152940476D01*
X83042319Y-154511904D02*
X83042319Y-153940476D01*
X83042319Y-154226190D02*
X82042319Y-154226190D01*
X82042319Y-154226190D02*
X82185176Y-154130952D01*
X82185176Y-154130952D02*
X82280414Y-154035714D01*
X82280414Y-154035714D02*
X82328033Y-153940476D01*
X159242319Y-152035714D02*
X158242319Y-152035714D01*
X158242319Y-152035714D02*
X158242319Y-152273809D01*
X158242319Y-152273809D02*
X158289938Y-152416666D01*
X158289938Y-152416666D02*
X158385176Y-152511904D01*
X158385176Y-152511904D02*
X158480414Y-152559523D01*
X158480414Y-152559523D02*
X158670890Y-152607142D01*
X158670890Y-152607142D02*
X158813747Y-152607142D01*
X158813747Y-152607142D02*
X159004223Y-152559523D01*
X159004223Y-152559523D02*
X159099461Y-152511904D01*
X159099461Y-152511904D02*
X159194700Y-152416666D01*
X159194700Y-152416666D02*
X159242319Y-152273809D01*
X159242319Y-152273809D02*
X159242319Y-152035714D01*
X158242319Y-152940476D02*
X158242319Y-153559523D01*
X158242319Y-153559523D02*
X158623271Y-153226190D01*
X158623271Y-153226190D02*
X158623271Y-153369047D01*
X158623271Y-153369047D02*
X158670890Y-153464285D01*
X158670890Y-153464285D02*
X158718509Y-153511904D01*
X158718509Y-153511904D02*
X158813747Y-153559523D01*
X158813747Y-153559523D02*
X159051842Y-153559523D01*
X159051842Y-153559523D02*
X159147080Y-153511904D01*
X159147080Y-153511904D02*
X159194700Y-153464285D01*
X159194700Y-153464285D02*
X159242319Y-153369047D01*
X159242319Y-153369047D02*
X159242319Y-153083333D01*
X159242319Y-153083333D02*
X159194700Y-152988095D01*
X159194700Y-152988095D02*
X159147080Y-152940476D01*
X158242319Y-154464285D02*
X158242319Y-153988095D01*
X158242319Y-153988095D02*
X158718509Y-153940476D01*
X158718509Y-153940476D02*
X158670890Y-153988095D01*
X158670890Y-153988095D02*
X158623271Y-154083333D01*
X158623271Y-154083333D02*
X158623271Y-154321428D01*
X158623271Y-154321428D02*
X158670890Y-154416666D01*
X158670890Y-154416666D02*
X158718509Y-154464285D01*
X158718509Y-154464285D02*
X158813747Y-154511904D01*
X158813747Y-154511904D02*
X159051842Y-154511904D01*
X159051842Y-154511904D02*
X159147080Y-154464285D01*
X159147080Y-154464285D02*
X159194700Y-154416666D01*
X159194700Y-154416666D02*
X159242319Y-154321428D01*
X159242319Y-154321428D02*
X159242319Y-154083333D01*
X159242319Y-154083333D02*
X159194700Y-153988095D01*
X159194700Y-153988095D02*
X159147080Y-153940476D01*
X121142319Y-114411905D02*
X120142319Y-114411905D01*
X120142319Y-114411905D02*
X120142319Y-114650000D01*
X120142319Y-114650000D02*
X120189938Y-114792857D01*
X120189938Y-114792857D02*
X120285176Y-114888095D01*
X120285176Y-114888095D02*
X120380414Y-114935714D01*
X120380414Y-114935714D02*
X120570890Y-114983333D01*
X120570890Y-114983333D02*
X120713747Y-114983333D01*
X120713747Y-114983333D02*
X120904223Y-114935714D01*
X120904223Y-114935714D02*
X120999461Y-114888095D01*
X120999461Y-114888095D02*
X121094700Y-114792857D01*
X121094700Y-114792857D02*
X121142319Y-114650000D01*
X121142319Y-114650000D02*
X121142319Y-114411905D01*
X120142319Y-115888095D02*
X120142319Y-115411905D01*
X120142319Y-115411905D02*
X120618509Y-115364286D01*
X120618509Y-115364286D02*
X120570890Y-115411905D01*
X120570890Y-115411905D02*
X120523271Y-115507143D01*
X120523271Y-115507143D02*
X120523271Y-115745238D01*
X120523271Y-115745238D02*
X120570890Y-115840476D01*
X120570890Y-115840476D02*
X120618509Y-115888095D01*
X120618509Y-115888095D02*
X120713747Y-115935714D01*
X120713747Y-115935714D02*
X120951842Y-115935714D01*
X120951842Y-115935714D02*
X121047080Y-115888095D01*
X121047080Y-115888095D02*
X121094700Y-115840476D01*
X121094700Y-115840476D02*
X121142319Y-115745238D01*
X121142319Y-115745238D02*
X121142319Y-115507143D01*
X121142319Y-115507143D02*
X121094700Y-115411905D01*
X121094700Y-115411905D02*
X121047080Y-115364286D01*
X68754819Y-171085714D02*
X67754819Y-171085714D01*
X67754819Y-171085714D02*
X67754819Y-171323809D01*
X67754819Y-171323809D02*
X67802438Y-171466666D01*
X67802438Y-171466666D02*
X67897676Y-171561904D01*
X67897676Y-171561904D02*
X67992914Y-171609523D01*
X67992914Y-171609523D02*
X68183390Y-171657142D01*
X68183390Y-171657142D02*
X68326247Y-171657142D01*
X68326247Y-171657142D02*
X68516723Y-171609523D01*
X68516723Y-171609523D02*
X68611961Y-171561904D01*
X68611961Y-171561904D02*
X68707200Y-171466666D01*
X68707200Y-171466666D02*
X68754819Y-171323809D01*
X68754819Y-171323809D02*
X68754819Y-171085714D01*
X68088152Y-172514285D02*
X68754819Y-172514285D01*
X67707200Y-172276190D02*
X68421485Y-172038095D01*
X68421485Y-172038095D02*
X68421485Y-172657142D01*
X68088152Y-173466666D02*
X68754819Y-173466666D01*
X67707200Y-173228571D02*
X68421485Y-172990476D01*
X68421485Y-172990476D02*
X68421485Y-173609523D01*
X87804819Y-171085714D02*
X86804819Y-171085714D01*
X86804819Y-171085714D02*
X86804819Y-171323809D01*
X86804819Y-171323809D02*
X86852438Y-171466666D01*
X86852438Y-171466666D02*
X86947676Y-171561904D01*
X86947676Y-171561904D02*
X87042914Y-171609523D01*
X87042914Y-171609523D02*
X87233390Y-171657142D01*
X87233390Y-171657142D02*
X87376247Y-171657142D01*
X87376247Y-171657142D02*
X87566723Y-171609523D01*
X87566723Y-171609523D02*
X87661961Y-171561904D01*
X87661961Y-171561904D02*
X87757200Y-171466666D01*
X87757200Y-171466666D02*
X87804819Y-171323809D01*
X87804819Y-171323809D02*
X87804819Y-171085714D01*
X87138152Y-172514285D02*
X87804819Y-172514285D01*
X86757200Y-172276190D02*
X87471485Y-172038095D01*
X87471485Y-172038095D02*
X87471485Y-172657142D01*
X86804819Y-173514285D02*
X86804819Y-173038095D01*
X86804819Y-173038095D02*
X87281009Y-172990476D01*
X87281009Y-172990476D02*
X87233390Y-173038095D01*
X87233390Y-173038095D02*
X87185771Y-173133333D01*
X87185771Y-173133333D02*
X87185771Y-173371428D01*
X87185771Y-173371428D02*
X87233390Y-173466666D01*
X87233390Y-173466666D02*
X87281009Y-173514285D01*
X87281009Y-173514285D02*
X87376247Y-173561904D01*
X87376247Y-173561904D02*
X87614342Y-173561904D01*
X87614342Y-173561904D02*
X87709580Y-173514285D01*
X87709580Y-173514285D02*
X87757200Y-173466666D01*
X87757200Y-173466666D02*
X87804819Y-173371428D01*
X87804819Y-173371428D02*
X87804819Y-173133333D01*
X87804819Y-173133333D02*
X87757200Y-173038095D01*
X87757200Y-173038095D02*
X87709580Y-172990476D01*
X125904819Y-171085714D02*
X124904819Y-171085714D01*
X124904819Y-171085714D02*
X124904819Y-171323809D01*
X124904819Y-171323809D02*
X124952438Y-171466666D01*
X124952438Y-171466666D02*
X125047676Y-171561904D01*
X125047676Y-171561904D02*
X125142914Y-171609523D01*
X125142914Y-171609523D02*
X125333390Y-171657142D01*
X125333390Y-171657142D02*
X125476247Y-171657142D01*
X125476247Y-171657142D02*
X125666723Y-171609523D01*
X125666723Y-171609523D02*
X125761961Y-171561904D01*
X125761961Y-171561904D02*
X125857200Y-171466666D01*
X125857200Y-171466666D02*
X125904819Y-171323809D01*
X125904819Y-171323809D02*
X125904819Y-171085714D01*
X125238152Y-172514285D02*
X125904819Y-172514285D01*
X124857200Y-172276190D02*
X125571485Y-172038095D01*
X125571485Y-172038095D02*
X125571485Y-172657142D01*
X124904819Y-172942857D02*
X124904819Y-173609523D01*
X124904819Y-173609523D02*
X125904819Y-173180952D01*
X297354819Y-152035714D02*
X296354819Y-152035714D01*
X296354819Y-152035714D02*
X296354819Y-152273809D01*
X296354819Y-152273809D02*
X296402438Y-152416666D01*
X296402438Y-152416666D02*
X296497676Y-152511904D01*
X296497676Y-152511904D02*
X296592914Y-152559523D01*
X296592914Y-152559523D02*
X296783390Y-152607142D01*
X296783390Y-152607142D02*
X296926247Y-152607142D01*
X296926247Y-152607142D02*
X297116723Y-152559523D01*
X297116723Y-152559523D02*
X297211961Y-152511904D01*
X297211961Y-152511904D02*
X297307200Y-152416666D01*
X297307200Y-152416666D02*
X297354819Y-152273809D01*
X297354819Y-152273809D02*
X297354819Y-152035714D01*
X296688152Y-153464285D02*
X297354819Y-153464285D01*
X296307200Y-153226190D02*
X297021485Y-152988095D01*
X297021485Y-152988095D02*
X297021485Y-153607142D01*
X296450057Y-153940476D02*
X296402438Y-153988095D01*
X296402438Y-153988095D02*
X296354819Y-154083333D01*
X296354819Y-154083333D02*
X296354819Y-154321428D01*
X296354819Y-154321428D02*
X296402438Y-154416666D01*
X296402438Y-154416666D02*
X296450057Y-154464285D01*
X296450057Y-154464285D02*
X296545295Y-154511904D01*
X296545295Y-154511904D02*
X296640533Y-154511904D01*
X296640533Y-154511904D02*
X296783390Y-154464285D01*
X296783390Y-154464285D02*
X297354819Y-153892857D01*
X297354819Y-153892857D02*
X297354819Y-154511904D01*
X183054819Y-171085714D02*
X182054819Y-171085714D01*
X182054819Y-171085714D02*
X182054819Y-171323809D01*
X182054819Y-171323809D02*
X182102438Y-171466666D01*
X182102438Y-171466666D02*
X182197676Y-171561904D01*
X182197676Y-171561904D02*
X182292914Y-171609523D01*
X182292914Y-171609523D02*
X182483390Y-171657142D01*
X182483390Y-171657142D02*
X182626247Y-171657142D01*
X182626247Y-171657142D02*
X182816723Y-171609523D01*
X182816723Y-171609523D02*
X182911961Y-171561904D01*
X182911961Y-171561904D02*
X183007200Y-171466666D01*
X183007200Y-171466666D02*
X183054819Y-171323809D01*
X183054819Y-171323809D02*
X183054819Y-171085714D01*
X182054819Y-172561904D02*
X182054819Y-172085714D01*
X182054819Y-172085714D02*
X182531009Y-172038095D01*
X182531009Y-172038095D02*
X182483390Y-172085714D01*
X182483390Y-172085714D02*
X182435771Y-172180952D01*
X182435771Y-172180952D02*
X182435771Y-172419047D01*
X182435771Y-172419047D02*
X182483390Y-172514285D01*
X182483390Y-172514285D02*
X182531009Y-172561904D01*
X182531009Y-172561904D02*
X182626247Y-172609523D01*
X182626247Y-172609523D02*
X182864342Y-172609523D01*
X182864342Y-172609523D02*
X182959580Y-172561904D01*
X182959580Y-172561904D02*
X183007200Y-172514285D01*
X183007200Y-172514285D02*
X183054819Y-172419047D01*
X183054819Y-172419047D02*
X183054819Y-172180952D01*
X183054819Y-172180952D02*
X183007200Y-172085714D01*
X183007200Y-172085714D02*
X182959580Y-172038095D01*
X182054819Y-173228571D02*
X182054819Y-173323809D01*
X182054819Y-173323809D02*
X182102438Y-173419047D01*
X182102438Y-173419047D02*
X182150057Y-173466666D01*
X182150057Y-173466666D02*
X182245295Y-173514285D01*
X182245295Y-173514285D02*
X182435771Y-173561904D01*
X182435771Y-173561904D02*
X182673866Y-173561904D01*
X182673866Y-173561904D02*
X182864342Y-173514285D01*
X182864342Y-173514285D02*
X182959580Y-173466666D01*
X182959580Y-173466666D02*
X183007200Y-173419047D01*
X183007200Y-173419047D02*
X183054819Y-173323809D01*
X183054819Y-173323809D02*
X183054819Y-173228571D01*
X183054819Y-173228571D02*
X183007200Y-173133333D01*
X183007200Y-173133333D02*
X182959580Y-173085714D01*
X182959580Y-173085714D02*
X182864342Y-173038095D01*
X182864342Y-173038095D02*
X182673866Y-172990476D01*
X182673866Y-172990476D02*
X182435771Y-172990476D01*
X182435771Y-172990476D02*
X182245295Y-173038095D01*
X182245295Y-173038095D02*
X182150057Y-173085714D01*
X182150057Y-173085714D02*
X182102438Y-173133333D01*
X182102438Y-173133333D02*
X182054819Y-173228571D01*
X197342319Y-152035714D02*
X196342319Y-152035714D01*
X196342319Y-152035714D02*
X196342319Y-152273809D01*
X196342319Y-152273809D02*
X196389938Y-152416666D01*
X196389938Y-152416666D02*
X196485176Y-152511904D01*
X196485176Y-152511904D02*
X196580414Y-152559523D01*
X196580414Y-152559523D02*
X196770890Y-152607142D01*
X196770890Y-152607142D02*
X196913747Y-152607142D01*
X196913747Y-152607142D02*
X197104223Y-152559523D01*
X197104223Y-152559523D02*
X197199461Y-152511904D01*
X197199461Y-152511904D02*
X197294700Y-152416666D01*
X197294700Y-152416666D02*
X197342319Y-152273809D01*
X197342319Y-152273809D02*
X197342319Y-152035714D01*
X196342319Y-152940476D02*
X196342319Y-153559523D01*
X196342319Y-153559523D02*
X196723271Y-153226190D01*
X196723271Y-153226190D02*
X196723271Y-153369047D01*
X196723271Y-153369047D02*
X196770890Y-153464285D01*
X196770890Y-153464285D02*
X196818509Y-153511904D01*
X196818509Y-153511904D02*
X196913747Y-153559523D01*
X196913747Y-153559523D02*
X197151842Y-153559523D01*
X197151842Y-153559523D02*
X197247080Y-153511904D01*
X197247080Y-153511904D02*
X197294700Y-153464285D01*
X197294700Y-153464285D02*
X197342319Y-153369047D01*
X197342319Y-153369047D02*
X197342319Y-153083333D01*
X197342319Y-153083333D02*
X197294700Y-152988095D01*
X197294700Y-152988095D02*
X197247080Y-152940476D01*
X196342319Y-153892857D02*
X196342319Y-154559523D01*
X196342319Y-154559523D02*
X197342319Y-154130952D01*
X40179819Y-114411905D02*
X39179819Y-114411905D01*
X39179819Y-114411905D02*
X39179819Y-114650000D01*
X39179819Y-114650000D02*
X39227438Y-114792857D01*
X39227438Y-114792857D02*
X39322676Y-114888095D01*
X39322676Y-114888095D02*
X39417914Y-114935714D01*
X39417914Y-114935714D02*
X39608390Y-114983333D01*
X39608390Y-114983333D02*
X39751247Y-114983333D01*
X39751247Y-114983333D02*
X39941723Y-114935714D01*
X39941723Y-114935714D02*
X40036961Y-114888095D01*
X40036961Y-114888095D02*
X40132200Y-114792857D01*
X40132200Y-114792857D02*
X40179819Y-114650000D01*
X40179819Y-114650000D02*
X40179819Y-114411905D01*
X40179819Y-115935714D02*
X40179819Y-115364286D01*
X40179819Y-115650000D02*
X39179819Y-115650000D01*
X39179819Y-115650000D02*
X39322676Y-115554762D01*
X39322676Y-115554762D02*
X39417914Y-115459524D01*
X39417914Y-115459524D02*
X39465533Y-115364286D01*
X149717319Y-132985714D02*
X148717319Y-132985714D01*
X148717319Y-132985714D02*
X148717319Y-133223809D01*
X148717319Y-133223809D02*
X148764938Y-133366666D01*
X148764938Y-133366666D02*
X148860176Y-133461904D01*
X148860176Y-133461904D02*
X148955414Y-133509523D01*
X148955414Y-133509523D02*
X149145890Y-133557142D01*
X149145890Y-133557142D02*
X149288747Y-133557142D01*
X149288747Y-133557142D02*
X149479223Y-133509523D01*
X149479223Y-133509523D02*
X149574461Y-133461904D01*
X149574461Y-133461904D02*
X149669700Y-133366666D01*
X149669700Y-133366666D02*
X149717319Y-133223809D01*
X149717319Y-133223809D02*
X149717319Y-132985714D01*
X148812557Y-133938095D02*
X148764938Y-133985714D01*
X148764938Y-133985714D02*
X148717319Y-134080952D01*
X148717319Y-134080952D02*
X148717319Y-134319047D01*
X148717319Y-134319047D02*
X148764938Y-134414285D01*
X148764938Y-134414285D02*
X148812557Y-134461904D01*
X148812557Y-134461904D02*
X148907795Y-134509523D01*
X148907795Y-134509523D02*
X149003033Y-134509523D01*
X149003033Y-134509523D02*
X149145890Y-134461904D01*
X149145890Y-134461904D02*
X149717319Y-133890476D01*
X149717319Y-133890476D02*
X149717319Y-134509523D01*
X149717319Y-135461904D02*
X149717319Y-134890476D01*
X149717319Y-135176190D02*
X148717319Y-135176190D01*
X148717319Y-135176190D02*
X148860176Y-135080952D01*
X148860176Y-135080952D02*
X148955414Y-134985714D01*
X148955414Y-134985714D02*
X149003033Y-134890476D01*
D11*
X297900000Y-112790000D02*
X297900000Y-116800000D01*
X297900000Y-112790000D02*
X299900000Y-112790000D01*
X299900000Y-112790000D02*
X299900000Y-116800000D01*
X207412500Y-131840000D02*
X207412500Y-135850000D01*
X207412500Y-131840000D02*
X209412500Y-131840000D01*
X209412500Y-131840000D02*
X209412500Y-135850000D01*
X302662500Y-188990000D02*
X302662500Y-193000000D01*
X302662500Y-188990000D02*
X304662500Y-188990000D01*
X304662500Y-188990000D02*
X304662500Y-193000000D01*
X276468750Y-188990000D02*
X276468750Y-193000000D01*
X276468750Y-188990000D02*
X278468750Y-188990000D01*
X278468750Y-188990000D02*
X278468750Y-193000000D01*
X159787500Y-112790000D02*
X159787500Y-116800000D01*
X159787500Y-112790000D02*
X161787500Y-112790000D01*
X161787500Y-112790000D02*
X161787500Y-116800000D01*
X112162500Y-131840000D02*
X112162500Y-135850000D01*
X112162500Y-131840000D02*
X114162500Y-131840000D01*
X114162500Y-131840000D02*
X114162500Y-135850000D01*
X264562500Y-131840000D02*
X264562500Y-135850000D01*
X264562500Y-131840000D02*
X266562500Y-131840000D01*
X266562500Y-131840000D02*
X266562500Y-135850000D01*
X274087500Y-112790000D02*
X274087500Y-116800000D01*
X274087500Y-112790000D02*
X276087500Y-112790000D01*
X276087500Y-112790000D02*
X276087500Y-116800000D01*
X178837500Y-150890000D02*
X178837500Y-154900000D01*
X178837500Y-150890000D02*
X180837500Y-150890000D01*
X180837500Y-150890000D02*
X180837500Y-154900000D01*
X116925000Y-188990000D02*
X116925000Y-193000000D01*
X116925000Y-188990000D02*
X118925000Y-188990000D01*
X118925000Y-188990000D02*
X118925000Y-193000000D01*
X188362500Y-131840000D02*
X188362500Y-135850000D01*
X188362500Y-131840000D02*
X190362500Y-131840000D01*
X190362500Y-131840000D02*
X190362500Y-135850000D01*
X231225000Y-188990000D02*
X231225000Y-193000000D01*
X231225000Y-188990000D02*
X233225000Y-188990000D01*
X233225000Y-188990000D02*
X233225000Y-193000000D01*
X283612500Y-208040000D02*
X283612500Y-212050000D01*
X283612500Y-208040000D02*
X285612500Y-208040000D01*
X285612500Y-208040000D02*
X285612500Y-212050000D01*
X164550000Y-169940000D02*
X164550000Y-173950000D01*
X164550000Y-169940000D02*
X166550000Y-169940000D01*
X166550000Y-169940000D02*
X166550000Y-173950000D01*
X64537500Y-112790000D02*
X64537500Y-116800000D01*
X64537500Y-112790000D02*
X66537500Y-112790000D01*
X66537500Y-112790000D02*
X66537500Y-116800000D01*
X55012500Y-131840000D02*
X55012500Y-135850000D01*
X55012500Y-131840000D02*
X57012500Y-131840000D01*
X57012500Y-131840000D02*
X57012500Y-135850000D01*
X293137500Y-131840000D02*
X293137500Y-135850000D01*
X293137500Y-131840000D02*
X295137500Y-131840000D01*
X295137500Y-131840000D02*
X295137500Y-135850000D01*
X97875000Y-188990000D02*
X97875000Y-193000000D01*
X97875000Y-188990000D02*
X99875000Y-188990000D01*
X99875000Y-188990000D02*
X99875000Y-193000000D01*
X255037500Y-112790000D02*
X255037500Y-116800000D01*
X255037500Y-112790000D02*
X257037500Y-112790000D01*
X257037500Y-112790000D02*
X257037500Y-116800000D01*
X131212500Y-131840000D02*
X131212500Y-135850000D01*
X131212500Y-131840000D02*
X133212500Y-131840000D01*
X133212500Y-131840000D02*
X133212500Y-135850000D01*
X240750000Y-169940000D02*
X240750000Y-173950000D01*
X240750000Y-169940000D02*
X242750000Y-169940000D01*
X242750000Y-169940000D02*
X242750000Y-173950000D01*
X83587500Y-112790000D02*
X83587500Y-116800000D01*
X83587500Y-112790000D02*
X85587500Y-112790000D01*
X85587500Y-112790000D02*
X85587500Y-116800000D01*
X43106250Y-169940000D02*
X43106250Y-173950000D01*
X43106250Y-169940000D02*
X45106250Y-169940000D01*
X45106250Y-169940000D02*
X45106250Y-173950000D01*
X226462500Y-131840000D02*
X226462500Y-135850000D01*
X226462500Y-131840000D02*
X228462500Y-131840000D01*
X228462500Y-131840000D02*
X228462500Y-135850000D01*
X226462500Y-208040000D02*
X226462500Y-212050000D01*
X226462500Y-208040000D02*
X228462500Y-208040000D01*
X228462500Y-208040000D02*
X228462500Y-212050000D01*
X140737500Y-150890000D02*
X140737500Y-154900000D01*
X140737500Y-150890000D02*
X142737500Y-150890000D01*
X142737500Y-150890000D02*
X142737500Y-154900000D01*
X216937500Y-150890000D02*
X216937500Y-154900000D01*
X216937500Y-150890000D02*
X218937500Y-150890000D01*
X218937500Y-150890000D02*
X218937500Y-154900000D01*
X155025000Y-188990000D02*
X155025000Y-193000000D01*
X155025000Y-188990000D02*
X157025000Y-188990000D01*
X157025000Y-188990000D02*
X157025000Y-193000000D01*
X216937500Y-112790000D02*
X216937500Y-116800000D01*
X216937500Y-112790000D02*
X218937500Y-112790000D01*
X218937500Y-112790000D02*
X218937500Y-116800000D01*
X145500000Y-169940000D02*
X145500000Y-173950000D01*
X145500000Y-169940000D02*
X147500000Y-169940000D01*
X147500000Y-169940000D02*
X147500000Y-173950000D01*
X169312500Y-131840000D02*
X169312500Y-135850000D01*
X169312500Y-131840000D02*
X171312500Y-131840000D01*
X171312500Y-131840000D02*
X171312500Y-135850000D01*
X64537500Y-150890000D02*
X64537500Y-154900000D01*
X64537500Y-150890000D02*
X66537500Y-150890000D01*
X66537500Y-150890000D02*
X66537500Y-154900000D01*
X302662500Y-208040000D02*
X302662500Y-212050000D01*
X302662500Y-208040000D02*
X304662500Y-208040000D01*
X304662500Y-208040000D02*
X304662500Y-212050000D01*
X38343750Y-208040000D02*
X38343750Y-212050000D01*
X38343750Y-208040000D02*
X40343750Y-208040000D01*
X40343750Y-208040000D02*
X40343750Y-212050000D01*
X193125000Y-188990000D02*
X193125000Y-193000000D01*
X193125000Y-188990000D02*
X195125000Y-188990000D01*
X195125000Y-188990000D02*
X195125000Y-193000000D01*
X135975000Y-188990000D02*
X135975000Y-193000000D01*
X135975000Y-188990000D02*
X137975000Y-188990000D01*
X137975000Y-188990000D02*
X137975000Y-193000000D01*
X259800000Y-169940000D02*
X259800000Y-173950000D01*
X259800000Y-169940000D02*
X261800000Y-169940000D01*
X261800000Y-169940000D02*
X261800000Y-173950000D01*
X264562500Y-208040000D02*
X264562500Y-212050000D01*
X264562500Y-208040000D02*
X266562500Y-208040000D01*
X266562500Y-208040000D02*
X266562500Y-212050000D01*
X290756250Y-169940000D02*
X290756250Y-173950000D01*
X290756250Y-169940000D02*
X292756250Y-169940000D01*
X292756250Y-169940000D02*
X292756250Y-173950000D01*
X85968750Y-208040000D02*
X85968750Y-212050000D01*
X85968750Y-208040000D02*
X87968750Y-208040000D01*
X87968750Y-208040000D02*
X87968750Y-212050000D01*
X47868750Y-188990000D02*
X47868750Y-193000000D01*
X47868750Y-188990000D02*
X49868750Y-188990000D01*
X49868750Y-188990000D02*
X49868750Y-193000000D01*
X174075000Y-188990000D02*
X174075000Y-193000000D01*
X174075000Y-188990000D02*
X176075000Y-188990000D01*
X176075000Y-188990000D02*
X176075000Y-193000000D01*
X245512500Y-208040000D02*
X245512500Y-212050000D01*
X245512500Y-208040000D02*
X247512500Y-208040000D01*
X247512500Y-208040000D02*
X247512500Y-212050000D01*
X107400000Y-169940000D02*
X107400000Y-173950000D01*
X107400000Y-169940000D02*
X109400000Y-169940000D01*
X109400000Y-169940000D02*
X109400000Y-173950000D01*
X202650000Y-169940000D02*
X202650000Y-173950000D01*
X202650000Y-169940000D02*
X204650000Y-169940000D01*
X204650000Y-169940000D02*
X204650000Y-173950000D01*
X235987500Y-112790000D02*
X235987500Y-116800000D01*
X235987500Y-112790000D02*
X237987500Y-112790000D01*
X237987500Y-112790000D02*
X237987500Y-116800000D01*
X221700000Y-169940000D02*
X221700000Y-173950000D01*
X221700000Y-169940000D02*
X223700000Y-169940000D01*
X223700000Y-169940000D02*
X223700000Y-173950000D01*
X197887500Y-112790000D02*
X197887500Y-116800000D01*
X197887500Y-112790000D02*
X199887500Y-112790000D01*
X199887500Y-112790000D02*
X199887500Y-116800000D01*
X74062500Y-131840000D02*
X74062500Y-135850000D01*
X74062500Y-131840000D02*
X76062500Y-131840000D01*
X76062500Y-131840000D02*
X76062500Y-135850000D01*
X212175000Y-188990000D02*
X212175000Y-193000000D01*
X212175000Y-188990000D02*
X214175000Y-188990000D01*
X214175000Y-188990000D02*
X214175000Y-193000000D01*
X102637500Y-150890000D02*
X102637500Y-154900000D01*
X102637500Y-150890000D02*
X104637500Y-150890000D01*
X104637500Y-150890000D02*
X104637500Y-154900000D01*
X245512500Y-131840000D02*
X245512500Y-135850000D01*
X245512500Y-131840000D02*
X247512500Y-131840000D01*
X247512500Y-131840000D02*
X247512500Y-135850000D01*
X121687500Y-150890000D02*
X121687500Y-154900000D01*
X121687500Y-150890000D02*
X123687500Y-150890000D01*
X123687500Y-150890000D02*
X123687500Y-154900000D01*
X102637500Y-112790000D02*
X102637500Y-116800000D01*
X102637500Y-112790000D02*
X104637500Y-112790000D01*
X104637500Y-112790000D02*
X104637500Y-116800000D01*
X93112500Y-131840000D02*
X93112500Y-135850000D01*
X93112500Y-131840000D02*
X95112500Y-131840000D01*
X95112500Y-131840000D02*
X95112500Y-135850000D01*
X178837500Y-112790000D02*
X178837500Y-116800000D01*
X178837500Y-112790000D02*
X180837500Y-112790000D01*
X180837500Y-112790000D02*
X180837500Y-116800000D01*
X62156250Y-208040000D02*
X62156250Y-212050000D01*
X62156250Y-208040000D02*
X64156250Y-208040000D01*
X64156250Y-208040000D02*
X64156250Y-212050000D01*
X140737500Y-112790000D02*
X140737500Y-116800000D01*
X140737500Y-112790000D02*
X142737500Y-112790000D01*
X142737500Y-112790000D02*
X142737500Y-116800000D01*
X40725000Y-150890000D02*
X40725000Y-154900000D01*
X40725000Y-150890000D02*
X42725000Y-150890000D01*
X42725000Y-150890000D02*
X42725000Y-154900000D01*
X157406250Y-208040000D02*
X157406250Y-212050000D01*
X157406250Y-208040000D02*
X159406250Y-208040000D01*
X159406250Y-208040000D02*
X159406250Y-212050000D01*
X35962500Y-131840000D02*
X35962500Y-135850000D01*
X35962500Y-131840000D02*
X37962500Y-131840000D01*
X37962500Y-131840000D02*
X37962500Y-135850000D01*
X274087500Y-150890000D02*
X274087500Y-154900000D01*
X274087500Y-150890000D02*
X276087500Y-150890000D01*
X276087500Y-150890000D02*
X276087500Y-154900000D01*
X250275000Y-188990000D02*
X250275000Y-193000000D01*
X250275000Y-188990000D02*
X252275000Y-188990000D01*
X252275000Y-188990000D02*
X252275000Y-193000000D01*
X255037500Y-150890000D02*
X255037500Y-154900000D01*
X255037500Y-150890000D02*
X257037500Y-150890000D01*
X257037500Y-150890000D02*
X257037500Y-154900000D01*
X235987500Y-150890000D02*
X235987500Y-154900000D01*
X235987500Y-150890000D02*
X237987500Y-150890000D01*
X237987500Y-150890000D02*
X237987500Y-154900000D01*
X321700000Y-208040000D02*
X321700000Y-212050000D01*
X321700000Y-208040000D02*
X323700000Y-208040000D01*
X323700000Y-208040000D02*
X323700000Y-212050000D01*
X78825000Y-188990000D02*
X78825000Y-193000000D01*
X78825000Y-188990000D02*
X80825000Y-188990000D01*
X80825000Y-188990000D02*
X80825000Y-193000000D01*
X83587500Y-150890000D02*
X83587500Y-154900000D01*
X83587500Y-150890000D02*
X85587500Y-150890000D01*
X85587500Y-150890000D02*
X85587500Y-154900000D01*
X159787500Y-150890000D02*
X159787500Y-154900000D01*
X159787500Y-150890000D02*
X161787500Y-150890000D01*
X161787500Y-150890000D02*
X161787500Y-154900000D01*
X121687500Y-112790000D02*
X121687500Y-116800000D01*
X121687500Y-112790000D02*
X123687500Y-112790000D01*
X123687500Y-112790000D02*
X123687500Y-116800000D01*
X69300000Y-169940000D02*
X69300000Y-173950000D01*
X69300000Y-169940000D02*
X71300000Y-169940000D01*
X71300000Y-169940000D02*
X71300000Y-173950000D01*
X88350000Y-169940000D02*
X88350000Y-173950000D01*
X88350000Y-169940000D02*
X90350000Y-169940000D01*
X90350000Y-169940000D02*
X90350000Y-173950000D01*
X126450000Y-169940000D02*
X126450000Y-173950000D01*
X126450000Y-169940000D02*
X128450000Y-169940000D01*
X128450000Y-169940000D02*
X128450000Y-173950000D01*
X297900000Y-150890000D02*
X297900000Y-154900000D01*
X297900000Y-150890000D02*
X299900000Y-150890000D01*
X299900000Y-150890000D02*
X299900000Y-154900000D01*
X183600000Y-169940000D02*
X183600000Y-173950000D01*
X183600000Y-169940000D02*
X185600000Y-169940000D01*
X185600000Y-169940000D02*
X185600000Y-173950000D01*
X197887500Y-150890000D02*
X197887500Y-154900000D01*
X197887500Y-150890000D02*
X199887500Y-150890000D01*
X199887500Y-150890000D02*
X199887500Y-154900000D01*
X40725000Y-112790000D02*
X40725000Y-116800000D01*
X40725000Y-112790000D02*
X42725000Y-112790000D01*
X42725000Y-112790000D02*
X42725000Y-116800000D01*
X150262500Y-131840000D02*
X150262500Y-135850000D01*
X150262500Y-131840000D02*
X152262500Y-131840000D01*
X152262500Y-131840000D02*
X152262500Y-135850000D01*
M02*
