%TF.GenerationSoftware,KiCad,Pcbnew,9.0.7*%
%TF.CreationDate,2026-03-17T22:56:22+05:30*%
%TF.ProjectId,KeyBoard,4b657942-6f61-4726-942e-6b696361645f,rev?*%
%TF.SameCoordinates,Original*%
%TF.FileFunction,NonPlated,1,2,NPTH,Mixed*%
%TF.FilePolarity,Positive*%
%FSLAX46Y46*%
G04 Gerber Fmt 4.6, Leading zero omitted, Abs format (unit mm)*
G04 Created by KiCad (PCBNEW 9.0.7) date 2026-03-17 22:56:22*
%MOMM*%
%LPD*%
G01*
G04 APERTURE LIST*
%TA.AperFunction,ComponentDrill*%
%ADD10C,0.900000*%
%TD*%
G04 aperture for slot hole*
%TA.AperFunction,ComponentDrill*%
%ADD11C,1.500000*%
%TD*%
%TA.AperFunction,ComponentDrill*%
%ADD12C,3.000000*%
%TD*%
%TA.AperFunction,ComponentDrill*%
%ADD13C,5.100000*%
%TD*%
G04 APERTURE END LIST*
D10*
%TO.C,SW95*%
X344950000Y-105770000D03*
X347950000Y-105770000D03*
D11*
%TO.C,SW15*%
X37462500Y-127800000D02*
X37462500Y-128300000D01*
%TO.C,SW69*%
X39843750Y-204000000D02*
X39843750Y-204500000D01*
%TO.C,SW1*%
X42225000Y-108750000D02*
X42225000Y-109250000D01*
%TO.C,SW29*%
X42225000Y-146850000D02*
X42225000Y-147350000D01*
%TO.C,SW43*%
X44606250Y-165900000D02*
X44606250Y-166400000D01*
%TO.C,SW56*%
X49368750Y-184950000D02*
X49368750Y-185450000D01*
%TO.C,SW16*%
X56512500Y-127800000D02*
X56512500Y-128300000D01*
%TO.C,SW70*%
X63656250Y-204000000D02*
X63656250Y-204500000D01*
%TO.C,SW2*%
X66037500Y-108750000D02*
X66037500Y-109250000D01*
%TO.C,SW30*%
X66037500Y-146850000D02*
X66037500Y-147350000D01*
%TO.C,SW44*%
X70800000Y-165900000D02*
X70800000Y-166400000D01*
%TO.C,SW17*%
X75562500Y-127800000D02*
X75562500Y-128300000D01*
%TO.C,SW57*%
X80325000Y-184950000D02*
X80325000Y-185450000D01*
%TO.C,SW3*%
X85087500Y-108750000D02*
X85087500Y-109250000D01*
%TO.C,SW31*%
X85087500Y-146850000D02*
X85087500Y-147350000D01*
%TO.C,SW71*%
X87468750Y-204000000D02*
X87468750Y-204500000D01*
%TO.C,SW45*%
X89850000Y-165900000D02*
X89850000Y-166400000D01*
%TO.C,SW18*%
X94612500Y-127800000D02*
X94612500Y-128300000D01*
%TO.C,SW58*%
X99375000Y-184950000D02*
X99375000Y-185450000D01*
%TO.C,SW4*%
X104137500Y-108750000D02*
X104137500Y-109250000D01*
%TO.C,SW32*%
X104137500Y-146850000D02*
X104137500Y-147350000D01*
%TO.C,SW46*%
X108900000Y-165900000D02*
X108900000Y-166400000D01*
%TO.C,SW19*%
X113662500Y-127800000D02*
X113662500Y-128300000D01*
%TO.C,SW59*%
X118425000Y-184950000D02*
X118425000Y-185450000D01*
%TO.C,SW5*%
X123187500Y-108750000D02*
X123187500Y-109250000D01*
%TO.C,SW33*%
X123187500Y-146850000D02*
X123187500Y-147350000D01*
%TO.C,SW47*%
X127950000Y-165900000D02*
X127950000Y-166400000D01*
%TO.C,SW20*%
X132712500Y-127800000D02*
X132712500Y-128300000D01*
%TO.C,SW60*%
X137475000Y-184950000D02*
X137475000Y-185450000D01*
%TO.C,SW6*%
X142237500Y-108750000D02*
X142237500Y-109250000D01*
%TO.C,SW34*%
X142237500Y-146850000D02*
X142237500Y-147350000D01*
%TO.C,SW48*%
X147000000Y-165900000D02*
X147000000Y-166400000D01*
%TO.C,SW21*%
X151762500Y-127800000D02*
X151762500Y-128300000D01*
%TO.C,SW61*%
X156525000Y-184950000D02*
X156525000Y-185450000D01*
%TO.C,SW72*%
X158906250Y-204000000D02*
X158906250Y-204500000D01*
%TO.C,SW7*%
X161287500Y-108750000D02*
X161287500Y-109250000D01*
%TO.C,SW35*%
X161287500Y-146850000D02*
X161287500Y-147350000D01*
%TO.C,SW49*%
X166050000Y-165900000D02*
X166050000Y-166400000D01*
%TO.C,SW22*%
X170812500Y-127800000D02*
X170812500Y-128300000D01*
%TO.C,SW62*%
X175575000Y-184950000D02*
X175575000Y-185450000D01*
%TO.C,SW8*%
X180337500Y-108750000D02*
X180337500Y-109250000D01*
%TO.C,SW36*%
X180337500Y-146850000D02*
X180337500Y-147350000D01*
%TO.C,SW50*%
X185100000Y-165900000D02*
X185100000Y-166400000D01*
%TO.C,SW23*%
X189862500Y-127800000D02*
X189862500Y-128300000D01*
%TO.C,SW63*%
X194625000Y-184950000D02*
X194625000Y-185450000D01*
%TO.C,SW9*%
X199387500Y-108750000D02*
X199387500Y-109250000D01*
%TO.C,SW37*%
X199387500Y-146850000D02*
X199387500Y-147350000D01*
%TO.C,SW51*%
X204150000Y-165900000D02*
X204150000Y-166400000D01*
%TO.C,SW24*%
X208912500Y-127800000D02*
X208912500Y-128300000D01*
%TO.C,SW64*%
X213675000Y-184950000D02*
X213675000Y-185450000D01*
%TO.C,SW10*%
X218437500Y-108750000D02*
X218437500Y-109250000D01*
%TO.C,SW38*%
X218437500Y-146850000D02*
X218437500Y-147350000D01*
%TO.C,SW52*%
X223200000Y-165900000D02*
X223200000Y-166400000D01*
%TO.C,SW25*%
X227962500Y-127800000D02*
X227962500Y-128300000D01*
%TO.C,SW73*%
X227962500Y-204000000D02*
X227962500Y-204500000D01*
%TO.C,SW65*%
X232725000Y-184950000D02*
X232725000Y-185450000D01*
%TO.C,SW11*%
X237487500Y-108750000D02*
X237487500Y-109250000D01*
%TO.C,SW39*%
X237487500Y-146850000D02*
X237487500Y-147350000D01*
%TO.C,SW53*%
X242250000Y-165900000D02*
X242250000Y-166400000D01*
%TO.C,SW26*%
X247012500Y-127800000D02*
X247012500Y-128300000D01*
%TO.C,SW74*%
X247012500Y-204000000D02*
X247012500Y-204500000D01*
%TO.C,SW66*%
X251775000Y-184950000D02*
X251775000Y-185450000D01*
%TO.C,SW12*%
X256537500Y-108750000D02*
X256537500Y-109250000D01*
%TO.C,SW40*%
X256537500Y-146850000D02*
X256537500Y-147350000D01*
%TO.C,SW54*%
X261300000Y-165900000D02*
X261300000Y-166400000D01*
%TO.C,SW27*%
X266062500Y-127800000D02*
X266062500Y-128300000D01*
%TO.C,SW75*%
X266062500Y-204000000D02*
X266062500Y-204500000D01*
%TO.C,SW13*%
X275587500Y-108750000D02*
X275587500Y-109250000D01*
%TO.C,SW41*%
X275587500Y-146850000D02*
X275587500Y-147350000D01*
%TO.C,SW67*%
X277968750Y-184950000D02*
X277968750Y-185450000D01*
%TO.C,SW76*%
X285112500Y-204000000D02*
X285112500Y-204500000D01*
%TO.C,SW55*%
X292256250Y-165900000D02*
X292256250Y-166400000D01*
%TO.C,SW28*%
X294637500Y-127800000D02*
X294637500Y-128300000D01*
%TO.C,SW14*%
X299400000Y-108750000D02*
X299400000Y-109250000D01*
%TO.C,SW42*%
X299400000Y-146850000D02*
X299400000Y-147350000D01*
%TO.C,SW68*%
X304162500Y-184950000D02*
X304162500Y-185450000D01*
%TO.C,SW77*%
X304162500Y-204000000D02*
X304162500Y-204500000D01*
%TO.C,SW78*%
X323212500Y-204000000D02*
X323212500Y-204500000D01*
D12*
%TO.C,SW15*%
X27462500Y-137000000D03*
%TO.C,SW69*%
X29843750Y-213200000D03*
%TO.C,SW1*%
X32225000Y-117950000D03*
%TO.C,SW29*%
X32225000Y-156050000D03*
%TO.C,SW15*%
X32462500Y-139200000D03*
%TO.C,SW43*%
X34606250Y-175100000D03*
%TO.C,SW69*%
X34843750Y-215400000D03*
%TO.C,SW1*%
X37225000Y-120150000D03*
%TO.C,SW29*%
X37225000Y-158250000D03*
%TO.C,SW56*%
X39368750Y-194150000D03*
%TO.C,SW43*%
X39606250Y-177300000D03*
%TO.C,SW56*%
X44368750Y-196350000D03*
%TO.C,SW16*%
X46512500Y-137000000D03*
X51512500Y-139200000D03*
%TO.C,SW70*%
X53656250Y-213200000D03*
%TO.C,SW2*%
X56037500Y-117950000D03*
%TO.C,SW30*%
X56037500Y-156050000D03*
%TO.C,SW70*%
X58656250Y-215400000D03*
%TO.C,SW44*%
X60800000Y-175100000D03*
%TO.C,SW2*%
X61037500Y-120150000D03*
%TO.C,SW30*%
X61037500Y-158250000D03*
%TO.C,SW17*%
X65562500Y-137000000D03*
%TO.C,SW44*%
X65800000Y-177300000D03*
%TO.C,SW57*%
X70325000Y-194150000D03*
%TO.C,SW17*%
X70562500Y-139200000D03*
%TO.C,SW3*%
X75087500Y-117950000D03*
%TO.C,SW31*%
X75087500Y-156050000D03*
%TO.C,SW57*%
X75325000Y-196350000D03*
%TO.C,SW71*%
X77468750Y-213200000D03*
%TO.C,SW45*%
X79850000Y-175100000D03*
%TO.C,SW3*%
X80087500Y-120150000D03*
%TO.C,SW31*%
X80087500Y-158250000D03*
%TO.C,SW71*%
X82468750Y-215400000D03*
%TO.C,SW18*%
X84612500Y-137000000D03*
%TO.C,SW45*%
X84850000Y-177300000D03*
%TO.C,SW58*%
X89375000Y-194150000D03*
%TO.C,SW18*%
X89612500Y-139200000D03*
%TO.C,SW4*%
X94137500Y-117950000D03*
%TO.C,SW32*%
X94137500Y-156050000D03*
%TO.C,SW58*%
X94375000Y-196350000D03*
%TO.C,SW46*%
X98900000Y-175100000D03*
%TO.C,SW4*%
X99137500Y-120150000D03*
%TO.C,SW32*%
X99137500Y-158250000D03*
%TO.C,SW19*%
X103662500Y-137000000D03*
%TO.C,SW46*%
X103900000Y-177300000D03*
%TO.C,SW59*%
X108425000Y-194150000D03*
%TO.C,SW19*%
X108662500Y-139200000D03*
%TO.C,SW5*%
X113187500Y-117950000D03*
%TO.C,SW33*%
X113187500Y-156050000D03*
%TO.C,SW59*%
X113425000Y-196350000D03*
%TO.C,SW47*%
X117950000Y-175100000D03*
%TO.C,SW5*%
X118187500Y-120150000D03*
%TO.C,SW33*%
X118187500Y-158250000D03*
%TO.C,SW20*%
X122712500Y-137000000D03*
%TO.C,SW47*%
X122950000Y-177300000D03*
%TO.C,SW60*%
X127475000Y-194150000D03*
%TO.C,SW20*%
X127712500Y-139200000D03*
%TO.C,SW6*%
X132237500Y-117950000D03*
%TO.C,SW34*%
X132237500Y-156050000D03*
%TO.C,SW60*%
X132475000Y-196350000D03*
%TO.C,SW48*%
X137000000Y-175100000D03*
%TO.C,SW6*%
X137237500Y-120150000D03*
%TO.C,SW34*%
X137237500Y-158250000D03*
%TO.C,SW21*%
X141762500Y-137000000D03*
%TO.C,SW48*%
X142000000Y-177300000D03*
%TO.C,SW61*%
X146525000Y-194150000D03*
%TO.C,SW21*%
X146762500Y-139200000D03*
%TO.C,SW72*%
X148906250Y-213200000D03*
%TO.C,SW7*%
X151287500Y-117950000D03*
%TO.C,SW35*%
X151287500Y-156050000D03*
%TO.C,SW61*%
X151525000Y-196350000D03*
%TO.C,SW72*%
X153906250Y-215400000D03*
%TO.C,SW49*%
X156050000Y-175100000D03*
%TO.C,SW7*%
X156287500Y-120150000D03*
%TO.C,SW35*%
X156287500Y-158250000D03*
%TO.C,SW22*%
X160812500Y-137000000D03*
%TO.C,SW49*%
X161050000Y-177300000D03*
%TO.C,SW62*%
X165575000Y-194150000D03*
%TO.C,SW22*%
X165812500Y-139200000D03*
%TO.C,SW8*%
X170337500Y-117950000D03*
%TO.C,SW36*%
X170337500Y-156050000D03*
%TO.C,SW62*%
X170575000Y-196350000D03*
%TO.C,SW50*%
X175100000Y-175100000D03*
%TO.C,SW8*%
X175337500Y-120150000D03*
%TO.C,SW36*%
X175337500Y-158250000D03*
%TO.C,SW23*%
X179862500Y-137000000D03*
%TO.C,SW50*%
X180100000Y-177300000D03*
%TO.C,SW63*%
X184625000Y-194150000D03*
%TO.C,SW23*%
X184862500Y-139200000D03*
%TO.C,SW9*%
X189387500Y-117950000D03*
%TO.C,SW37*%
X189387500Y-156050000D03*
%TO.C,SW63*%
X189625000Y-196350000D03*
%TO.C,SW51*%
X194150000Y-175100000D03*
%TO.C,SW9*%
X194387500Y-120150000D03*
%TO.C,SW37*%
X194387500Y-158250000D03*
%TO.C,SW24*%
X198912500Y-137000000D03*
%TO.C,SW51*%
X199150000Y-177300000D03*
%TO.C,SW64*%
X203675000Y-194150000D03*
%TO.C,SW24*%
X203912500Y-139200000D03*
%TO.C,SW10*%
X208437500Y-117950000D03*
%TO.C,SW38*%
X208437500Y-156050000D03*
%TO.C,SW64*%
X208675000Y-196350000D03*
%TO.C,SW52*%
X213200000Y-175100000D03*
%TO.C,SW10*%
X213437500Y-120150000D03*
%TO.C,SW38*%
X213437500Y-158250000D03*
%TO.C,SW25*%
X217962500Y-137000000D03*
%TO.C,SW73*%
X217962500Y-213200000D03*
%TO.C,SW52*%
X218200000Y-177300000D03*
%TO.C,SW65*%
X222725000Y-194150000D03*
%TO.C,SW25*%
X222962500Y-139200000D03*
%TO.C,SW73*%
X222962500Y-215400000D03*
%TO.C,SW11*%
X227487500Y-117950000D03*
%TO.C,SW39*%
X227487500Y-156050000D03*
%TO.C,SW65*%
X227725000Y-196350000D03*
%TO.C,SW53*%
X232250000Y-175100000D03*
%TO.C,SW11*%
X232487500Y-120150000D03*
%TO.C,SW39*%
X232487500Y-158250000D03*
%TO.C,SW26*%
X237012500Y-137000000D03*
%TO.C,SW74*%
X237012500Y-213200000D03*
%TO.C,SW53*%
X237250000Y-177300000D03*
%TO.C,SW66*%
X241775000Y-194150000D03*
%TO.C,SW26*%
X242012500Y-139200000D03*
%TO.C,SW74*%
X242012500Y-215400000D03*
%TO.C,SW12*%
X246537500Y-117950000D03*
%TO.C,SW40*%
X246537500Y-156050000D03*
%TO.C,SW66*%
X246775000Y-196350000D03*
%TO.C,SW54*%
X251300000Y-175100000D03*
%TO.C,SW12*%
X251537500Y-120150000D03*
%TO.C,SW40*%
X251537500Y-158250000D03*
%TO.C,SW27*%
X256062500Y-137000000D03*
%TO.C,SW75*%
X256062500Y-213200000D03*
%TO.C,SW54*%
X256300000Y-177300000D03*
%TO.C,SW27*%
X261062500Y-139200000D03*
%TO.C,SW75*%
X261062500Y-215400000D03*
%TO.C,SW13*%
X265587500Y-117950000D03*
%TO.C,SW41*%
X265587500Y-156050000D03*
%TO.C,SW67*%
X267968750Y-194150000D03*
%TO.C,SW13*%
X270587500Y-120150000D03*
%TO.C,SW41*%
X270587500Y-158250000D03*
%TO.C,SW67*%
X272968750Y-196350000D03*
%TO.C,SW76*%
X275112500Y-213200000D03*
X280112500Y-215400000D03*
%TO.C,SW55*%
X282256250Y-175100000D03*
%TO.C,SW28*%
X284637500Y-137000000D03*
%TO.C,SW55*%
X287256250Y-177300000D03*
%TO.C,SW14*%
X289400000Y-117950000D03*
%TO.C,SW42*%
X289400000Y-156050000D03*
%TO.C,SW28*%
X289637500Y-139200000D03*
%TO.C,SW68*%
X294162500Y-194150000D03*
%TO.C,SW77*%
X294162500Y-213200000D03*
%TO.C,SW14*%
X294400000Y-120150000D03*
%TO.C,SW42*%
X294400000Y-158250000D03*
%TO.C,SW68*%
X299162500Y-196350000D03*
%TO.C,SW77*%
X299162500Y-215400000D03*
%TO.C,SW78*%
X313212500Y-213200000D03*
X318212500Y-215400000D03*
D13*
%TO.C,SW15*%
X32462500Y-133200000D03*
%TO.C,SW69*%
X34843750Y-209400000D03*
%TO.C,SW1*%
X37225000Y-114150000D03*
%TO.C,SW29*%
X37225000Y-152250000D03*
%TO.C,SW43*%
X39606250Y-171300000D03*
%TO.C,SW56*%
X44368750Y-190350000D03*
%TO.C,SW16*%
X51512500Y-133200000D03*
%TO.C,SW70*%
X58656250Y-209400000D03*
%TO.C,SW2*%
X61037500Y-114150000D03*
%TO.C,SW30*%
X61037500Y-152250000D03*
%TO.C,SW44*%
X65800000Y-171300000D03*
%TO.C,SW17*%
X70562500Y-133200000D03*
%TO.C,SW57*%
X75325000Y-190350000D03*
%TO.C,SW3*%
X80087500Y-114150000D03*
%TO.C,SW31*%
X80087500Y-152250000D03*
%TO.C,SW71*%
X82468750Y-209400000D03*
%TO.C,SW45*%
X84850000Y-171300000D03*
%TO.C,SW18*%
X89612500Y-133200000D03*
%TO.C,SW58*%
X94375000Y-190350000D03*
%TO.C,SW4*%
X99137500Y-114150000D03*
%TO.C,SW32*%
X99137500Y-152250000D03*
%TO.C,SW46*%
X103900000Y-171300000D03*
%TO.C,SW19*%
X108662500Y-133200000D03*
%TO.C,SW59*%
X113425000Y-190350000D03*
%TO.C,SW5*%
X118187500Y-114150000D03*
%TO.C,SW33*%
X118187500Y-152250000D03*
%TO.C,SW47*%
X122950000Y-171300000D03*
%TO.C,SW20*%
X127712500Y-133200000D03*
%TO.C,SW60*%
X132475000Y-190350000D03*
%TO.C,SW6*%
X137237500Y-114150000D03*
%TO.C,SW34*%
X137237500Y-152250000D03*
%TO.C,SW48*%
X142000000Y-171300000D03*
%TO.C,SW21*%
X146762500Y-133200000D03*
%TO.C,SW61*%
X151525000Y-190350000D03*
%TO.C,SW72*%
X153906250Y-209400000D03*
%TO.C,SW7*%
X156287500Y-114150000D03*
%TO.C,SW35*%
X156287500Y-152250000D03*
%TO.C,SW49*%
X161050000Y-171300000D03*
%TO.C,SW22*%
X165812500Y-133200000D03*
%TO.C,SW62*%
X170575000Y-190350000D03*
%TO.C,SW8*%
X175337500Y-114150000D03*
%TO.C,SW36*%
X175337500Y-152250000D03*
%TO.C,SW50*%
X180100000Y-171300000D03*
%TO.C,SW23*%
X184862500Y-133200000D03*
%TO.C,SW63*%
X189625000Y-190350000D03*
%TO.C,SW9*%
X194387500Y-114150000D03*
%TO.C,SW37*%
X194387500Y-152250000D03*
%TO.C,SW51*%
X199150000Y-171300000D03*
%TO.C,SW24*%
X203912500Y-133200000D03*
%TO.C,SW64*%
X208675000Y-190350000D03*
%TO.C,SW10*%
X213437500Y-114150000D03*
%TO.C,SW38*%
X213437500Y-152250000D03*
%TO.C,SW52*%
X218200000Y-171300000D03*
%TO.C,SW25*%
X222962500Y-133200000D03*
%TO.C,SW73*%
X222962500Y-209400000D03*
%TO.C,SW65*%
X227725000Y-190350000D03*
%TO.C,SW11*%
X232487500Y-114150000D03*
%TO.C,SW39*%
X232487500Y-152250000D03*
%TO.C,SW53*%
X237250000Y-171300000D03*
%TO.C,SW26*%
X242012500Y-133200000D03*
%TO.C,SW74*%
X242012500Y-209400000D03*
%TO.C,SW66*%
X246775000Y-190350000D03*
%TO.C,SW12*%
X251537500Y-114150000D03*
%TO.C,SW40*%
X251537500Y-152250000D03*
%TO.C,SW54*%
X256300000Y-171300000D03*
%TO.C,SW27*%
X261062500Y-133200000D03*
%TO.C,SW75*%
X261062500Y-209400000D03*
%TO.C,SW13*%
X270587500Y-114150000D03*
%TO.C,SW41*%
X270587500Y-152250000D03*
%TO.C,SW67*%
X272968750Y-190350000D03*
%TO.C,SW76*%
X280112500Y-209400000D03*
%TO.C,SW55*%
X287256250Y-171300000D03*
%TO.C,SW28*%
X289637500Y-133200000D03*
%TO.C,SW14*%
X294400000Y-114150000D03*
%TO.C,SW42*%
X294400000Y-152250000D03*
%TO.C,SW68*%
X299162500Y-190350000D03*
%TO.C,SW77*%
X299162500Y-209400000D03*
%TO.C,SW78*%
X318212500Y-209400000D03*
M02*
